<svg xmlns="http://www.w3.org/2000/svg" viewBox="0 0 122 63" fill="currentColor">
  <path
    d="M103.991 1c2.059.947 4.448 2.776 5.5 5 .943 1.992.753 4.476.205 6.366l.053-.024.2.458c3.497 7.991 3.61 14.143.502 21.397-2.124 4.954-7.543 11.943-13.267 17.807l-.84.85c-2.183 2.183-4.649 5.384-5.405 8.213l-.08.325c-.222.971-.426 1.403-.61 1.295-.185-.107-.266-.54-.246-1.295.688-3.095 3.235-6.846 5.635-9.246 5.943-5.943 11.729-13.292 13.894-18.343 2.997-6.995 2.889-12.86-.499-20.603l-.2-.458.081-.034c-1.745-.917-3.876-2.339-4.923-4.208-1.166-2.081-.687-5.22 0-7.5zm.888 46.957c2.149.012 4.48 1.228 5.99 2.509-1.551 1.385-2.919 3.236-6.201 3.535-3.283.298-4.172-.743-4.642-2.68-.458-1.89 2.703-3.376 4.853-3.364zm-9.226-3.148c1.366 1.365 1.944 2.796 2.119 4.158l-.359.003-.394-.003c-1.367-.03-3.228-.266-4.56-1.539-1.6-1.527-1.305-2.363-1.586-3.925l.42-.014c1.431-.035 3.119.078 4.36 1.32zm22.205-2.539l-.18.174-.359.35-.345.334c-1.219 1.166-2.556 2.259-4.792 2.531-2.782.34-4.267 0-5.13-2.156-.716-1.787 2.583-3.468 4.732-3.53 2.148-.064 4.52 1.07 6.074 2.297zm-16.925-5.897c1.903.998 4.127 3.95 2.705 5.248-2.028 1.852-4.518.582-5.947-.485-1.43-1.067-2.506-3.409-3.225-5.36 1.935-.422 4.563-.402 6.467.597zm20.407-6.425c-.787 1.926-1.943 4.228-3.41 5.245l-.27.18-.28.175c-1.495.893-3.676 1.62-5.41-.079-1.376-1.347.95-4.219 2.886-5.15 1.937-.932 4.565-.86 6.484-.371zm-17.053-1.224c1.937.931 3.608 3.059 4.203 4.756-1.73.398-3.707 1.635-5.643.863-1.935-.772-3.552-3.694-4.338-5.62l.523-.13c1.745-.427 3.494-.716 5.255.13zm16.62-11.652c.064 2.079-.52 5.083-1.446 6.608l-.173.278-.179.27c-.918 1.34-2.25 2.542-4.517 1.699-1.805-.671-.849-4.24.542-5.88 1.391-1.638 3.82-2.641 5.772-2.975zm-14.601 3.7c1.2.577 2.645 2.165 4.334 4.763-2.648.46-4.572.45-5.772-.029-1.8-.717-3.102-2.944-3.834-4.734l.533-.134c1.59-.39 3.118-.645 4.739.134zm1.034-6.162c1.478.71 2.483 2.332 2.937 3.627-1.32.304-3.26.565-4.738-.024-1.477-.589-2.546-2.416-3.146-3.886 1.464-.373 3.469-.427 4.947.283zm9.722-6.536c.455 1.727.732 4.092-.197 5.622-.928 1.529-2.848 2.608-4.24 3.229-.469-1.471-.663-3.608.183-5.247.847-1.64 2.686-2.948 4.254-3.604zM17.349 0c-2.059.947-4.448 2.776-5.5 5-.943 1.992-.753 4.476-.205 6.366l-.053-.024-.2.458c-3.497 7.991-3.61 14.143-.502 21.397 2.123 4.954 7.543 11.943 13.267 17.807l.84.85c2.182 2.183 4.648 5.384 5.405 8.213l.08.325c.222.971.426 1.403.61 1.295.184-.107.266-.54.246-1.295-.663-2.985-3.056-6.58-5.377-8.983l-.258-.263c-5.943-5.943-11.73-13.292-13.894-18.343-2.936-6.852-2.892-12.62.295-20.13l.404-.93-.081-.035C14.17 10.79 16.3 9.369 17.349 7.5c1.166-2.081.687-5.22 0-7.5zm-.888 46.957c-2.15.012-4.48 1.228-5.99 2.509l.32.292.772.736c1.208 1.142 2.599 2.278 5.11 2.507 3.282.298 4.171-.743 4.641-2.68.458-1.89-2.704-3.376-4.853-3.364zm9.226-3.148c-1.366 1.365-1.944 2.796-2.119 4.158l.359.003.394-.003.447-.018c1.305-.074 2.92-.382 4.113-1.521 1.6-1.527 1.304-2.363 1.586-3.925l-.42-.014c-1.431-.035-3.119.078-4.36 1.32zM3.482 41.27l.884.858c1.219 1.166 2.556 2.259 4.792 2.531 2.782.34 4.267 0 5.13-2.156.716-1.787-2.584-3.468-4.732-3.53-2.149-.064-4.52 1.07-6.074 2.297zm16.925-5.897c-1.903.998-4.127 3.95-2.706 5.248 2.029 1.852 4.518.582 5.948-.485 1.43-1.067 2.506-3.409 3.225-5.36-1.935-.422-4.563-.402-6.467.597zM0 28.948l.26.619c.773 1.777 1.837 3.716 3.15 4.626l.269.18.28.175c1.496.893 3.677 1.62 5.412-.079 1.375-1.347-.95-4.219-2.888-5.15-1.937-.932-4.564-.86-6.483-.371zm17.053-1.224c-1.937.931-3.608 3.059-4.203 4.756 1.73.398 3.706 1.635 5.642.863 1.936-.772 3.553-3.694 4.34-5.62l-.524-.13c-1.745-.427-3.494-.716-5.255.13zM.433 16.072C.37 18.15.953 21.155 1.88 22.68l.173.278.178.27.19.265c.91 1.226 2.212 2.22 4.328 1.434 1.805-.671.848-4.24-.542-5.88-1.391-1.638-3.821-2.641-5.773-2.975zm14.601 3.7c-1.2.577-2.645 2.165-4.335 4.763 2.649.46 4.573.45 5.773-.029 1.8-.717 3.102-2.944 3.833-4.734l-.532-.134c-1.59-.39-3.118-.645-4.739.134zM14 13.61c-1.478.71-2.483 2.332-2.937 3.627 1.32.304 3.26.565 4.737-.024 1.478-.589 2.547-2.416 3.147-3.886-1.464-.373-3.47-.427-4.947.283zM4.278 7.074c-.455 1.727-.732 4.092.196 5.622.929 1.529 2.85 2.608 4.24 3.229.47-1.471.664-3.608-.183-5.247-.846-1.64-2.685-2.948-4.253-3.604z" />
</svg>