<svg xmlns="http://www.w3.org/2000/svg" viewBox="0 0 512 512">
    <path fill="#00AABE" d="M0 0h512v512H0z" />
    <path
        d="M163.735 338.227c-45.144 0-81.735-36.603-81.735-81.77 0-45.142 36.591-81.744 81.735-81.744 18.32 0 35.24 6.021 48.87 16.207h.035V131c92.931 0 173.99 50.436 217.36 125.514C386.609 331.536 305.518 382 212.64 382v-59.876c-13.628 10.172-30.588 16.103-48.905 16.103zm161.874-72.39c-5.121 26.4-30.67 43.633-57.054 38.504a48.622 48.622 0 01-19.382-8.437l30.512-20.586c21.229-14.324 27.74-42.318 15.463-64.254 21.747 8.238 35.056 31.181 30.461 54.774zm-179.381 36.1c-12.28-21.94-5.773-49.936 15.466-64.255l30.511-20.586a48.63 48.63 0 00-19.38-8.439c-26.39-5.13-51.93 12.105-57.058 38.498-4.595 23.604 8.714 46.536 30.46 54.781zm74.461-65.043l22.569-15.017c7.462-5.035 17.627-2.977 22.653 4.471 5.025 7.453 3.078 17.63-4.38 22.667l-40.842 27.098v39.057c14.72 14.306 34.809 23.119 56.955 23.119 45.134 0 81.732-36.611 81.732-81.775 0-45.14-36.598-81.74-81.732-81.74-22.144 0-42.235 8.75-56.955 23.058v39.062zm-8.084 44.586v-39.177l-32.765 21.682c-7.456 5.04-9.4 15.214-4.368 22.667 5.015 7.45 15.184 9.506 22.644 4.473l14.49-9.645z"
        fill="#FFF" />
</svg>