<svg xmlns="http://www.w3.org/2000/svg" viewBox="0 0 134 134">
  <path
    d="M67.992 43.567l19 10.857A2 2 0 0188 56.161v21.678a2 2 0 01-1.008 1.737l-19 10.857a2 2 0 01-1.984 0l-19-10.857A2 2 0 0146 77.839V56.161a2 2 0 011.008-1.737l19-10.857a2 2 0 011.984 0zm-1.488 3.927L50.189 56.82a1 1 0 00-.504.868V76.31a1 1 0 00.504.868l16.315 9.324a1 1 0 00.992 0l16.313-9.322a1 1 0 00.504-.868V57.685a1 1 0 00-.504-.869l-16.313-9.322a1 1 0 00-.992 0zm-3.928 10.198c.097 0 .192.029.273.082l13.369 8.821a.483.483 0 010 .81l-13.37 8.821a.495.495 0 01-.681-.135.483.483 0 01-.083-.27V58.18a.49.49 0 01.492-.487z"
    fill="#E8D49B" fill-rule="nonzero" />
</svg>
