<svg xmlns="http://www.w3.org/2000/svg" viewBox="0 0 134 134">
  <defs>
    <linearGradient x1="67.094%" y1="9.942%" x2="27.777%" y2="100%" id="prefix__fcret__a">
      <stop stop-color="#C9E7F2" offset="0%" />
      <stop stop-color="#D6B1E0" offset="51.258%" />
      <stop stop-color="#E8D49E" offset="100%" />
    </linearGradient>
  </defs>
  <path
    d="M69.49 88.487c.65 0 1.183.49 1.247 1.127l.007.13c0 .693-.563 1.256-1.254 1.256h-4.98a1.252 1.252 0 01-1.254-1.257c0-.694.563-1.256 1.254-1.256h4.98zm3.258-3.518c.642 0 1.17.49 1.234 1.127l.006.13c0 .693-.565 1.256-1.24 1.256H61.252c-.685 0-1.24-.558-1.24-1.257 0-.694.565-1.256 1.24-1.256h11.496zm0-3.519c.642 0 1.17.49 1.234 1.128l.006.129c0 .694-.565 1.256-1.24 1.256H61.252c-.685 0-1.24-.557-1.24-1.256 0-.694.565-1.257 1.24-1.257h11.496zM67.208 43l.4.013c2.086.098 7.933.866 12.12 6.27l.274.376c1.25 1.748 3.254 5.022 2.97 10.43-.451 5.56-3.227 7.711-4.741 9.801-1.515 2.211-2.09 3.467-2.745 5.277l-.08.338c-.313 1.41-.54 3.438-.67 3.432.09.42-.29.754-.748.754H60.012c-.458 0-.839-.335-.749-.754-.14.006-.395-2.375-.749-3.77l-.217-.584c-.578-1.517-1.182-2.728-2.528-4.693-1.514-2.09-4.29-4.24-4.742-9.801-.305-5.824 2.042-9.173 3.245-10.806 4.502-5.81 11.016-6.26 12.586-6.283h.35zm2.29 6.03c-.57-.091-.964.024-1.524.358l-.327.202-.117.07c-.22.126-.37.177-.53.179-.186-.002-.36-.072-.647-.249l-.327-.202c-.56-.334-.954-.449-1.524-.358-.383.061-.722.225-1.124.506l-.724.54c-.124.09-.231.164-.34.232a6.106 6.106 0 01-.506.281l-.63.308-.308.155c-.378.204-.611.388-.737.64l-.059.137c-.13.381-.539 2.032-.694 2.515l-.04.124-.116.329c-.105.28-.228.575-.375.903l-.051.115-.52 1.123a5.625 5.625 0 00-.202.503l-.042.146c-.067.28-.04.542.119 1.047l.099.302.295.828c.035.097.066.184.093.265l.075.232.052.172c.047.167.083.32.108.463.051.288.034.531-.047 1.02l-.05.33c-.076.55-.052.831.134 1.203.26.518.626.888 1.34 1.451l.458.363c.102.088.213.203.37.38l.205.23c.259.287.408.432.601.572.583.421 2.035.89 2.68.89.608 0 1.405-.375 2.435-1.116 1.028.741 1.825 1.117 2.433 1.117.645 0 2.097-.47 2.68-.891.138-.1.254-.203.402-.358l.199-.215.205-.23.169-.184c.076-.08.14-.142.2-.195l.63-.5c.604-.489.931-.84 1.169-1.314.186-.372.21-.654.135-1.204l-.075-.483c-.06-.39-.068-.61-.023-.866.025-.143.061-.296.108-.463l.052-.172.075-.232.388-1.093.1-.302c.171-.551.189-.812.097-1.124l-.051-.155a4.8 4.8 0 00-.075-.19l-.097-.227-.52-1.123-.157-.355a13.64 13.64 0 01-.269-.663l-.116-.33-.072-.227c-.15-.503-.445-1.677-.601-2.214l-.061-.197-.044-.106-.015-.032c-.126-.251-.36-.435-.737-.64l-.307-.154-.773-.38a5.434 5.434 0 01-.704-.441l-.724-.54-.169-.113c-.33-.213-.627-.34-.955-.393zm-.356.786l.118.004.11.014.103.02c.171.044.346.127.554.262l.164.112.68.51a6.21 6.21 0 00.796.498v-.001l1.075.532.096.054c.179.104.277.185.301.234l.018.039.013.036c.073.218.297 1.104.482 1.788l.112.403a.405.405 0 00-.18.137c-.762 1.023-1.351 1.494-1.672 1.465-.303-.027-.824-.519-1.482-1.479.925-.51 1.53-1.035 1.81-1.596a.407.407 0 10-.728-.364c-.209.417-.76.874-1.656 1.345l-.05.025-1.057-.353-.072-.017a.407.407 0 00-.443.274l-.017.072a.407.407 0 00.275.443l1.085.362.057.086c.85 1.28 1.552 1.953 2.205 2.013.141.012.285-.002.432-.043l-.014.157c-.067.628-.264 1.001-.563 1.15-.373.187-.731.097-1.158-.33a.407.407 0 00-.576.576c.658.658 1.385.84 2.098.483.71-.355 1.038-1.176 1.038-2.399a.35.35 0 00-.014-.1c.306-.255.627-.603.97-1.045.074.192.155.39.245.598l.22.492.34.73.116.255c.085.19.141.328.179.44.048.146.028.333-.102.751l-.133.397-.283.792-.088.259-.097.317c-.054.191-.096.37-.126.54-.063.36-.053.65.017 1.114l.053.326c.077.496.071.682-.033.89-.174.348-.441.633-.967 1.057l-.55.435-.082.068-.166-.273c-.506-.863-.606-1.372-1.194-1.88l-.153-.127.075-.1c.367-.533.553-1.159.553-1.867a.407.407 0 10-.814 0c0 .708-.23 1.282-.695 1.747l.041-.044c-.978.487-1.612.739-1.788.739l-.073.006a.407.407 0 00.073.808c.273 0 .734-.157 1.434-.48l.37-.175.194-.094c.634.484.828 1.084 1.441 2.143l.12.202-.21.233-.078.08a1.977 1.977 0 01-.254.223c-.444.321-1.729.737-2.203.737l-.084-.004-.091-.014c-.381-.07-.94-.353-1.653-.853l-.192-.138V60.25l.873.436.354 1.062.03.067a.407.407 0 00.742-.325l-.328-.982 1.044-1.043.047-.056a.407.407 0 00-.623-.52l-1.013 1.014-1.126-.562v-8.747l.106-.03.13-.052c.089-.039.18-.085.275-.14l.466-.285c.36-.214.585-.29.87-.266zm-4.402.004c.32-.027.565.073 1.01.353l.325.198c.144.082.275.146.405.191l.106.032v2.748c-.688.877-1.312 1.17-1.906.973-.633-.211-.943-.727-.943-1.649a.407.407 0 10-.813 0c0 1.248.504 2.09 1.499 2.42.743.249 1.47.049 2.163-.557v10.984l-.192.138c-.773.542-1.364.828-1.744.867l-.084.004c-.474 0-1.76-.416-2.203-.737a1.762 1.762 0 01-.185-.155l-.097-.096c-.474-1.44-.255-2.302.618-2.738.873-.437 1.603-.124 2.317 1.066a.407.407 0 00.698-.419 4.54 4.54 0 00-.809-1.022c.462-.322.768-.563.996-.771l.159-.151a.407.407 0 10-.576-.576c-.167.168-.462.402-.881.7l-.338.236-.106.079c-.566-.23-1.18-.193-1.824.13-.947.473-1.375 1.297-1.3 2.411l-.428-.338c-.526-.424-.793-.709-.967-1.056-.095-.19-.108-.36-.052-.763l.072-.454c.07-.464.08-.754.017-1.113a5.963 5.963 0 00-.184-.736l-.04-.122-.087-.26-.283-.79c-.247-.71-.296-.964-.235-1.148.053-.158.141-.365.295-.696l.34-.73.22-.492c.142-.329.262-.63.364-.926l.018.464c.27.63.631 1.14 1.084 1.524-.43.847-.365 1.72.195 2.56.667 1 1.707 1.172 2.962.545a.407.407 0 10-.364-.728c-.914.457-1.502.359-1.92-.269-.378-.566-.44-1.104-.185-1.659.833.404 1.688.332 2.513-.218a.407.407 0 00-.451-.677c-.678.451-1.313.451-1.99 0-.715-.476-1.203-1.331-1.455-2.59a.394.394 0 00-.058-.142c.146-.549.301-1.153.382-1.43l.045-.141.018-.039c.028-.057.157-.158.397-.288l1.074-.532a6.21 6.21 0 00.938-.602l.539-.405.164-.112c.25-.161.452-.25.657-.282z"
    fill="url(#prefix__fcret__a)" fill-rule="evenodd" opacity=".827" />
</svg>
