<svg xmlns="http://www.w3.org/2000/svg" viewBox="0 0 24 24">
    <rect fill="var(--background-highlight)" x="1" y="1" width="22" height="22" rx="2" />
    <rect fill-opacity=".5" fill="var(--theme--background-accent)" x="6" y="6" width="3" height="3" rx=".5" />
    <rect fill-opacity=".5" fill="var(--theme--background-accent)" x="6" y="10.5" width="3" height="3" rx=".5" />
    <rect fill-opacity=".5" fill="var(--theme--background-accent)" x="6" y="15" width="3" height="3" rx=".5" />
    <rect fill-opacity=".5" fill="var(--theme--background-accent)" x="15" y="6" width="3" height="3" rx=".5" />
    <rect fill-opacity=".5" fill="var(--theme--background-accent)" x="15" y="10.5" width="3" height="3" rx=".5" />
    <rect fill-opacity=".5" fill="var(--theme--background-accent)" x="15" y="15" width="3" height="3" rx=".5" />
    <rect fill-opacity=".5" fill="var(--theme--background-accent)" x="10.5" y="6" width="3" height="3" rx=".5" />
    <rect fill-opacity=".5" fill="var(--theme--background-accent)" x="10.5" y="10.5" width="3" height="3" rx=".5" />
    <rect fill-opacity=".5" fill="var(--theme--background-accent)" x="10.5" y="15" width="3" height="3" rx=".5" />
    <rect fill="var(--theme--background-accent)" x="3" y="3" width="18" height="2" rx=".5" />
    <rect fill="var(--theme--background-accent)" x="3" y="19" width="18" height="2" rx=".5" />
    <rect fill="var(--theme--background-accent)" transform="rotate(90 20 12)" x="14" y="11" width="12" height="2"
        rx=".5" />
    <rect fill="var(--theme--background-accent)" transform="rotate(90 4 12)" x="-2" y="11" width="12" height="2"
        rx=".5" />
</svg>