<svg xmlns="http://www.w3.org/2000/svg" viewBox="0 0 153 33">
  <defs>
    <linearGradient x1="49.997%" y1="-19.516%" x2="49.997%" y2="129.625%" id="prefix__a">
      <stop stop-color="#161616" stop-opacity=".707" offset="0%" />
      <stop stop-color="#161616" offset="35.001%" />
      <stop stop-color="#161616" offset="35.001%" />
      <stop stop-color="#161616" offset="84.616%" />
      <stop stop-color="#161616" offset="84.616%" />
      <stop stop-color="#161616" offset="100%" />
    </linearGradient>
    <linearGradient x1="50.001%" y1="-19.516%" x2="50.001%" y2="129.624%" id="prefix__b">
      <stop stop-color="#161616" offset="0%" />
      <stop stop-color="#161616" offset="36%" />
      <stop stop-color="#161616" offset="36%" />
      <stop stop-color="#161616" offset="84.616%" />
      <stop stop-color="#161616" offset="84.616%" />
      <stop stop-color="#161616" offset="100%" />
    </linearGradient>
    <linearGradient x1="49.999%" y1="110.922%" x2="49.999%" y2="-6.214%" id="prefix__c">
      <stop stop-color="#161616" offset="0%" />
      <stop stop-color="#161616" offset="50%" />
      <stop stop-color="#161616" stop-opacity=".42" offset="100%" />
    </linearGradient>
    <linearGradient x1="50.001%" y1="-19.515%" x2="50.001%" y2="129.627%" id="prefix__d">
      <stop stop-color="#161616" offset="0%" />
      <stop stop-color="#161616" offset="39.999%" />
      <stop stop-color="#161616" offset="39.999%" />
      <stop stop-color="#161616" offset="84.616%" />
      <stop stop-color="#161616" offset="84.616%" />
      <stop stop-color="#161616" offset="100%" />
    </linearGradient>
    <linearGradient x1="49.999%" y1="-19.521%" x2="49.999%" y2="129.627%" id="prefix__e">
      <stop stop-color="#161616" offset="0%" />
      <stop stop-color="#161616" stop-opacity=".948" offset="39%" />
      <stop stop-color="#161616" offset="78.023%" />
      <stop stop-color="#161616" offset="78.023%" />
      <stop stop-color="#161616" offset="100%" />
    </linearGradient>
    <linearGradient x1="0%" y1="50.001%" x2="100%" y2="50.001%" id="prefix__f">
      <stop stop-color="#161616" stop-opacity=".698" offset="0%" />
      <stop stop-color="#161616" offset="100%" />
    </linearGradient>
    <linearGradient x1="50.01%" y1="94.686%" x2="50.01%" y2="-3.025%" id="prefix__g">
      <stop stop-color="#161616" offset="0%" />
      <stop stop-color="#161616" stop-opacity=".549" offset="60%" />
      <stop stop-color="#161616" stop-opacity=".235" offset="100%" />
    </linearGradient>
    <linearGradient x1="-.001%" y1="50%" x2="99.999%" y2="50%" id="prefix__h">
      <stop stop-color="#161616" stop-opacity=".247" offset="0%" />
      <stop stop-color="#161616" offset="100%" />
    </linearGradient>
    <linearGradient x1="49.998%" y1="124.314%" x2="49.998%" y2="-9.421%" id="prefix__i">
      <stop stop-color="#161616" offset="0%" />
      <stop stop-color="#161616" offset="100%" />
    </linearGradient>
    <linearGradient x1="49.999%" y1="91.2%" x2="49.999%" y2="-76.785%" id="prefix__j">
      <stop stop-color="#161616" offset="0%" />
      <stop stop-color="#161616" stop-opacity=".549" offset="100%" />
    </linearGradient>
    <linearGradient x1="50%" y1="100.01%" x2="50%" y2=".01%" id="prefix__k">
      <stop stop-color="#161616" offset="0%" />
      <stop stop-color="#161616" offset="50%" />
      <stop stop-color="#161616" offset="50%" />
      <stop stop-color="#161616" stop-opacity=".785" offset="91.759%" />
      <stop stop-color="#161616" offset="100%" />
    </linearGradient>
    <linearGradient x1="59.804%" y1="94.568%" x2="38.471%" y2="5.755%" id="prefix__l">
      <stop stop-color="#161616" offset="0%" />
      <stop stop-color="#161616" stop-opacity=".887" offset="100%" />
    </linearGradient>
    <linearGradient x1="49.995%" y1="76.998%" x2="49.995%" y2="-3.299%" id="prefix__m">
      <stop stop-color="#161616" offset="0%" />
      <stop stop-color="#161616" stop-opacity=".867" offset="87.363%" />
      <stop stop-color="#161616" offset="100%" />
    </linearGradient>
    <linearGradient x1="65.263%" y1="-4.161%" x2="34.263%" y2="105.844%" id="prefix__n">
      <stop stop-color="#161616" stop-opacity=".329" offset="0%" />
      <stop stop-color="#161616" offset="96.153%" />
      <stop stop-color="#161616" offset="96.153%" />
      <stop stop-color="#161616" offset="100%" />
    </linearGradient>
    <linearGradient x1="50.017%" y1="-.296%" x2="50.017%" y2="101.882%" id="prefix__o">
      <stop stop-color="#161616" stop-opacity=".831" offset="0%" />
      <stop stop-color="#161616" stop-opacity=".926" offset="50%" />
      <stop stop-color="#161616" offset="100%" />
    </linearGradient>
    <linearGradient x1="16.674%" y1="205.565%" x2="87.813%" y2="-19.836%" id="prefix__p">
      <stop stop-color="#161616" offset="0%" />
      <stop stop-color="#161616" stop-opacity=".873" offset="70.329%" />
      <stop stop-color="#161616" offset="100%" />
    </linearGradient>
    <linearGradient x1="6.89%" y1="6.3%" x2="75.783%" y2="116.771%" id="prefix__q">
      <stop stop-color="#161616" offset="0%" />
      <stop stop-color="#161616" offset="100%" />
    </linearGradient>
    <linearGradient x1="49.997%" y1="6.363%" x2="49.997%" y2="127.961%" id="prefix__r">
      <stop stop-color="#161616" offset="0%" />
      <stop stop-color="#161616" stop-opacity="0" offset="100%" />
    </linearGradient>
  </defs>
  <g fill="none" fill-rule="nonzero">
    <path
      d="M84.111 30.784c0 .564-.201 1.052-.608 1.464-.406.41-.898.618-1.476.618a1.918 1.918 0 01-1.437-.618c-.394-.412-.59-.9-.59-1.464 0-.58.196-1.07.59-1.476a1.924 1.924 0 011.437-.608c.578 0 1.07.204 1.476.616.407.412.608.902.608 1.468M109.916 32.845h-3.76L92.514 11.774a9.67 9.67 0 01-.827-1.66h-.112c.097.564.146 1.776.146 3.631v19.1h-3.098V6.409h4.021l13.236 20.739c.527.823.887 1.412 1.07 1.767h.074c-.123-.76-.187-2.057-.187-3.887V6.408h3.08v26.437zM129.78 32.845h-14.011V6.409h13.403V9.21h-10.307v8.794h9.551v2.803h-9.551v9.235h10.915zM151.033 9.21h-7.615v23.635h-3.098V9.21h-7.629V6.408h18.342z"
      fill="#000" />
    <path
      d="M28.807 6.748c2.99 9.14 4.122 25.447 12.863 25.447.665 0 1.338-.065 2.013-.193-7.946-1.853-8.888-17.982-13.737-26.335-.38.346-.757.706-1.139 1.08"
      fill="url(#prefix__a)" transform="translate(.058)" />
    <path
      d="M29.946 5.667c4.85 8.353 5.79 24.482 13.737 26.335.624-.115 1.25-.288 1.876-.507C38.427 28 36.456 12.338 30.95 4.798c-.333.277-.668.568-1.003.87"
      fill="url(#prefix__b)" transform="translate(.058)" />
    <path
      d="M36.99.7c-.664 0-1.338.065-2.014.193-1.769.334-3.565 1.095-5.377 2.248.495.488.966 1.047 1.409 1.656C32.85 3.27 34.68 2.14 36.503 1.46a12.253 12.253 0 012.05-.57A6.316 6.316 0 0036.99.7"
      fill="#161616" />
    <path
      d="M51.127 28.274c.73-.58 1.46-1.222 2.193-1.922C50.283 17.253 49.196.713 40.393.713c-.63 0-1.264.059-1.898.176 8.018 1.994 9.045 19.439 12.632 27.385"
      fill="url(#prefix__c)" transform="translate(.058)" />
    <path
      d="M38.553.89A6.322 6.322 0 0036.99.7l3.461.012c-.63 0-1.264.059-1.898.177M51.031 30.207c-.344-.329-.67-.689-.992-1.073-1.481 1.049-2.956 1.844-4.422 2.361a6.81 6.81 0 001.648.562c.45.091.916.138 1.405.138 1.645 0 2.945-.194 4.052-.725a7.694 7.694 0 01-1.691-1.263"
      fill="#161616" />
    <path
      d="M36.445 1.462c7.182 3.756 7.806 20.765 13.536 27.672.384-.27.765-.557 1.145-.86-3.587-7.946-4.613-25.392-12.63-27.385-.684.128-1.367.318-2.05.573"
      fill="url(#prefix__d)" transform="translate(.058)" />
    <path
      d="M45.56 31.495c1.465-.517 2.94-1.312 4.421-2.36-5.73-6.908-6.354-23.917-13.536-27.673-1.823.677-3.653 1.807-5.495 3.336 5.506 7.54 7.477 23.202 14.61 26.697z"
      fill="url(#prefix__e)" transform="translate(.058)" />
    <path
      d="M25.284 6.528c-.863 1.951-1.744 4.516-2.81 7.864 2.12-2.986 4.232-5.56 6.333-7.644-.29-.89-.6-1.71-.935-2.441a31.56 31.56 0 00-2.588 2.22"
      fill="url(#prefix__f)" transform="translate(.058)" />
    <path
      d="M28.695 3.744c-.253.181-.508.367-.764.563.335.73.644 1.551.934 2.44.38-.373.76-.734 1.139-1.08a15.122 15.122 0 00-1.309-1.923"
      fill="#161616" />
    <path
      d="M29.6 3.14c-.302.192-.602.393-.905.604.47.579.902 1.224 1.31 1.924.335-.302.67-.594 1.003-.87a13.344 13.344 0 00-1.409-1.657"
      fill="#161616" />
    <path
      d="M78.526.004C74.465 15.667 65.981 28.248 58.87 31.42h-.014c-.129.06-.257.112-.384.164-.017.011-.033.012-.046.019-.038.015-.073.026-.11.041-.017.01-.033.014-.05.02-.06.022-.118.04-.177.064-.025.01-.049.017-.073.025a.892.892 0 01-.088.029c-.027.01-.055.018-.085.03-.026.01-.052.015-.076.025-.052.016-.1.028-.152.046-.022 0-.042.012-.064.018-.032.01-.069.018-.103.027-.024.01-.044.014-.07.02l-.112.028-.136.03c.322.119.657.179 1.018.179 6.744 0 13.544-12.086 24.795-32.185h-4.417l.001.004z"
      fill="url(#prefix__g)" transform="translate(.058)" />
    <path
      d="M21.01 1.335c.004 0 .009-.01.012-.01.005 0 .013 0 .016-.01h.008c.037-.013.072-.028.11-.042.009 0 .014 0 .02-.01.01 0 .02-.011.029-.013.04-.012.08-.028.117-.041h.007c.09-.027.172-.06.258-.091.013 0 .024-.01.04-.01.035-.012.073-.025.11-.034.017-.01.034-.01.05-.016.04-.011.077-.024.113-.033.016 0 .03-.01.042-.012.124-.034.247-.066.371-.096.017 0 .032-.01.05-.011a.71.71 0 01.109-.022c.016-.01.034-.01.053-.016.036-.01.07-.011.11-.02h.025l.225-.042h.046c.036-.01.068-.011.104-.018.02 0 .04-.01.058-.01.034 0 .067-.011.1-.016.018 0 .035 0 .055-.01.079-.01.16-.015.243-.022a7.492 7.492 0 00-.718-.037C15.178.693 4.713 14.785 0 33.035h.908a264.252 264.252 0 004.103-7.624C8.313 12.485 15.037 3.67 21.01 1.333"
      fill="url(#prefix__h)" transform="translate(.058)" />
    <path
      d="M25.342 6.528a31.546 31.546 0 012.588-2.221 12.22 12.22 0 00-.616-1.191c-.695.843-1.33 1.955-1.972 3.412M25.966 1.442c.496.416.94.989 1.347 1.674.128-.157.258-.303.392-.439a7.615 7.615 0 00-1.739-1.235"
      fill="#161616" />
    <path d="M5.011 25.413C11.937 12.067 15.218 3.62 21.01 1.335 15.038 3.672 8.312 12.487 5.01 25.413"
      fill="url(#prefix__i)" transform="translate(.058)" />
    <path
      d="M27.705 2.677a6.726 6.726 0 00-.392.439c.217.364.42.76.617 1.191.257-.196.511-.381.765-.563a10.399 10.399 0 00-.99-1.067"
      fill="#161616" />
    <path
      d="M8.155 32.977c-.043.01-.085.01-.125.015h-.024c-.037 0-.074.01-.107.01H7.88c-.086.011-.172.011-.254.018H7.6c7.01-.196 10.213-3.706 11.803-8.796 1.209-3.859 2.201-7.11 3.071-9.837-2.936 4.132-5.885 9.058-8.85 14.576-1.43 2.66-3.604 3.771-5.47 4.009"
      fill="url(#prefix__j)" transform="translate(.058)" />
    <path
      d="M8.155 32.974c1.865-.237 4.039-1.347 5.469-4.008 2.965-5.517 5.916-10.444 8.849-14.577 1.067-3.349 1.947-5.913 2.812-7.864-5.847 5.565-11.716 14.818-17.13 26.447"
      fill="url(#prefix__k)" transform="translate(.058)" />
    <path d="M5.068 25.413a263.985 263.985 0 01-4.103 7.624h2.643c.35-2.671.845-5.22 1.46-7.623" fill-opacity=".895"
      fill="#161616" />
    <path
      d="M23.248.759c-.022 0-.038.01-.056.01-.032.01-.066.01-.099.014-.02 0-.039 0-.059.01-.036.011-.069.012-.104.019-.016 0-.032 0-.045.01l-.225.04h-.026a.886.886 0 01-.11.021c-.018.011-.037.011-.054.015-.036.01-.072.015-.107.022-.018.01-.033.01-.05.011-.124.03-.247.062-.371.096-.013 0-.027.01-.043.013a6.52 6.52 0 00-.112.033c-.016.01-.035.01-.05.015-.038.01-.075.021-.111.033-.015 0-.027.01-.04.01-.086.033-.17.065-.258.091l-.117.04c-.016.011-.03.014-.05.021-.037.012-.074.027-.109.04-.013.011-.026.012-.036.018-5.791 2.286-9.073 10.732-15.998 24.078a64.301 64.301 0 00-1.46 7.623h.37c1.044 0 1.34-.01 2.541-.01H7.633c.083-.011.169-.011.255-.018h.016c.036 0 .072-.01.107-.01h.025c.039 0 .083-.011.126-.016 5.414-11.628 11.283-20.881 17.13-26.446.642-1.457 1.276-2.57 1.97-3.411-.406-.686-.85-1.26-1.347-1.675 0 0-.013 0-.014-.011-.028-.012-.055-.026-.083-.04l-.081-.041a.883.883 0 01-.08-.039c-.035-.01-.063-.025-.093-.04l-.074-.031a3.122 3.122 0 01-.153-.064c-.023-.01-.044-.016-.066-.025a2.179 2.179 0 01-.114-.046c-.02-.01-.04-.012-.062-.02l-.158-.054h-.014c-.061-.02-.121-.036-.184-.053-.014-.01-.026-.01-.041-.012l-.155-.044c-.013 0-.025-.01-.036-.01a5.478 5.478 0 00-.385-.085c-.014 0-.027-.01-.04-.01-.056-.011-.111-.02-.167-.027-.013-.01-.021-.01-.033-.01a4.443 4.443 0 00-.198-.026h-.034c-.054-.011-.103-.012-.152-.018-.085.011-.165.016-.243.023"
      fill="url(#prefix__l)" transform="translate(.058)" />
    <path
      d="M62.661 8.675c-1.332 4.269-2.412 7.79-3.35 10.687 3.656-5.031 7.257-11.36 10.686-18.665-4 1.257-6.134 4.133-7.336 7.978"
      fill="url(#prefix__m)" transform="translate(.058)" />
    <path
      d="M59.426 31.154c-.186.095-.373.185-.557.266C65.98 28.248 74.465 15.667 78.526.004h-.823c-9.332 16.67-12.333 27.828-18.277 31.15"
      fill="url(#prefix__n)" transform="translate(.058)" />
    <path
      d="M54.84 29.753c1.547-1.889 2.808-5.1 4.528-10.39-1.984 2.726-3.983 5.07-5.982 6.98 0 .011 0 .011-.01.018.436 1.307.914 2.46 1.46 3.392M54.84 29.753c-.527.643-1.085 1.133-1.705 1.495a6.356 6.356 0 01-.413.222c.655.353 1.37.59 2.17.684.117.012.233.023.355.031h.021a.95.95 0 01.17.01h.579c.022 0 .044 0 .065-.01.042 0 .086 0 .128-.01h.064c.043 0 .091-.011.138-.016h.01c.015 0 .03-.01.043-.01.05-.01.1-.015.149-.023h.043c.055-.01.111-.017.167-.027H56.851c.112-.022.221-.043.332-.07-.918-.337-1.686-1.13-2.348-2.258M41.728 32.196c.665 0 1.338-.065 2.013-.195.624-.113 1.25-.287 1.876-.506a6.823 6.823 0 003.054.7h-6.943z"
      fill="#161616" />
    <path
      d="M48.67 32.196c1.644 0 2.946-.195 4.052-.726.655.353 1.37.59 2.17.684.117.012.233.023.355.031h.021a.95.95 0 01.17.01H55.639h-6.972.005zM55.642 32.196h.381c.022 0 .043 0 .065-.01.041 0 .085 0 .13-.012h.063c.043 0 .09-.01.137-.014h.011c.014 0 .028-.01.042-.01.049-.011.1-.016.148-.023.016 0 .029 0 .046-.01.054-.011.11-.017.167-.028H56.858c.112-.021.222-.042.332-.07.322.119.657.179 1.018.179l-2.564.01-.002-.012zM53.38 26.361v-.01c-.733.7-1.464 1.341-2.193 1.922-.382.302-.762.59-1.146.86.321.384.648.744.992 1.072a7.691 7.691 0 001.692 1.264c.138-.069.277-.143.412-.222.621-.363 1.179-.852 1.706-1.495-.546-.931-1.024-2.085-1.46-3.392"
      fill="#161616" />
    <path
      d="M71.637.004H70.954c-.224.01-.441.018-.656.032-.101.217-.205.435-.305.653-3.43 7.305-7.031 13.634-10.687 18.665-1.72 5.292-2.981 8.502-4.529 10.391.662 1.129 1.431 1.922 2.347 2.258.026-.01.048-.01.072-.016h.014c.016 0 .034-.01.051-.01.037-.01.077-.018.115-.03.024-.01.044-.01.068-.018.034-.011.07-.019.102-.027.022-.01.043-.014.065-.018.053-.018.1-.03.152-.046.024-.01.049-.02.076-.026.029-.01.058-.018.085-.03.03-.011.061-.017.088-.029.024-.01.05-.017.072-.026.06-.022.119-.04.179-.063.016 0 .032-.015.05-.018.035-.016.073-.027.109-.043.013-.01.029-.012.046-.017.126-.053.255-.106.384-.164h.014a10.9 10.9 0 00.556-.267c5.945-3.321 8.946-14.48 18.278-31.15h-2.606L71.637.004z"
      fill="url(#prefix__o)" transform="translate(.058)" />
    <path
      d="M23.548.736c.015 0 .028 0 .043.01.036 0 .072 0 .108.012h.036c.066.01.13.016.198.026.012 0 .022 0 .033.01.055.011.11.02.167.028.012 0 .028.01.041.01.128.026.259.053.384.086.012 0 .024.01.035.01.053.013.101.03.155.045.016 0 .028.01.042.012.063.017.122.032.183.053.003 0 .006 0 .014.01.051.016.105.037.16.055.021.01.04.015.06.02l.116.047c.021 0 .042.015.065.022.05.023.101.043.152.065.027.01.05.022.075.032.029.015.06.028.092.039l.081.038c.028.015.055.027.081.042a7.653 7.653 0 011.836 1.285 5.96 5.96 0 01.65-.591C27.123 1.227 25.725.728 24.112.728c-.186 0-.373.01-.563.024"
      fill="#161616" />
    <path
      d="M27.705 2.677c.345.321.676.68.99 1.067.303-.21.603-.413.904-.603a9.542 9.542 0 00-1.244-1.055 5.825 5.825 0 00-.65.591"
      fill="#161616" />
    <path
      d="M23.49 2.05c.19.016.377.022.563.022 1.613 0 3.01-.498 4.245-1.372 1.302 1.027 2.876 1.386 5.062 1.386H22.773c.244 0 .483-.015.717-.036"
      fill="url(#prefix__p)" transform="matrix(1 0 0 -1 .058 2.786)" />
    <path
      d="M33.36 3.14c-2.186 0-3.76-.358-5.062-1.385.432-.305.848-.66 1.243-1.055 1.813 1.152 3.608 1.915 5.378 2.249.675.127 1.349.192 2.013.192H33.36z"
      fill="url(#prefix__q)" transform="matrix(1 0 0 -1 .058 3.84)" />
    <path
      d="M59.31 19.365c.94-2.9 2.017-6.42 3.352-10.69 1.204-3.847 3.334-6.723 7.334-7.978.106-.215.205-.436.308-.653-6.521.39-9.569 3.708-11.103 8.62-2.682 8.577-4.307 14.137-5.872 17.68 1.998-1.91 3.997-4.255 5.981-6.98"
      fill="url(#prefix__r)" transform="translate(.058)" />
    <path fill="#161616"
      d="M68.936 29.911h-.74v2.297h-.301v-2.297h-.741v-.274h1.782zM71.961 32.207h-.3v-1.726c0-.136.01-.302.025-.499a1.754 1.754 0 01-.08.251l-.875 1.974h-.147l-.878-1.959a1.423 1.423 0 01-.079-.266h-.01c.01.104.014.271.014.503v1.722h-.288v-2.57h.397l.788 1.794c.06.135.097.239.116.308h.012c.052-.141.095-.247.124-.316l.804-1.786h.38v2.57h-.003z" />
  </g>
</svg>
