<svg width="180px" height="46px" viewBox="0 0 180 46" version="1.1" xmlns="http://www.w3.org/2000/svg" xmlns:xlink="http://www.w3.org/1999/xlink">
    <g id="ethereum-logo" stroke="none" stroke-width="1" fill="none" fill-rule="evenodd">
        <g id="ethereum-logo-landscape-black.09fee9a6" fill-rule="nonzero">
            <g id="Group" transform="translate(38.451058, 8.780423)" fill="#3B3B3B">
                <path d="M12.7645503,17.5925926 C12.7645503,17.906746 12.5,18.1712963 12.1693122,18.1712963 L1.20701058,18.1712963 C1.48809524,20.8829365 3.5218254,23.3630952 6.39880952,23.3630952 C8.36640212,23.3630952 9.82142857,22.6190476 10.9126984,21.0482804 C11.0284392,20.8829365 11.1937831,20.7671958 11.3921958,20.7671958 C11.7063492,20.7671958 11.9378307,20.9986772 11.9378307,21.3128307 C11.9378307,21.4285714 11.9047619,21.5112434 11.8551587,21.5939153 C10.7473545,23.5119048 8.54828042,24.4543651 6.39880952,24.4543651 C2.71164021,24.4543651 0.0661375661,21.1474868 0.0661375661,17.6256614 C0.0661375661,14.0873016 2.69510582,10.7969577 6.39880952,10.7969577 C10.0859788,10.7969577 12.7480159,14.0707672 12.7645503,17.5925926 L12.7645503,17.5925926 Z M11.5906085,17.0800265 C11.359127,14.3683862 9.27579365,11.8882275 6.39880952,11.8882275 C3.5218254,11.8882275 1.48809524,14.3683862 1.20701058,17.0800265 L11.5906085,17.0800265 Z" id="Shape"></path>
                <path d="M26.0912698,11.0615079 C26.4054233,11.0615079 26.6369048,11.3425926 26.6369048,11.6071429 C26.6369048,11.9212963 26.4054233,12.1527778 26.0912698,12.1527778 L23.1481481,12.1527778 L23.1481481,23.7103175 C23.1481481,23.9914021 22.9166667,24.2559524 22.6025132,24.2559524 C22.2883598,24.2559524 22.0568783,23.9748677 22.0568783,23.7103175 L22.0568783,12.1527778 L19.2294974,12.1527778 C18.9153439,12.1527778 18.6838624,11.9212963 18.6838624,11.6071429 C18.6838624,11.3260582 18.9153439,11.0615079 19.2294974,11.0615079 L22.0568783,11.0615079 L22.0568783,6.8452381 C22.0568783,6.56415344 22.2718254,6.29960317 22.5529101,6.26653439 C22.9001323,6.23346561 23.1646825,6.48148148 23.1646825,6.81216931 L23.1646825,11.0615079 L26.0912698,11.0615079 Z" id="Path"></path>
                <path d="M44.0310847,16.6501323 L44.0310847,23.6441799 C44.0310847,23.9583333 43.75,24.1898148 43.4854497,24.1898148 C43.1712963,24.1898148 42.9398148,23.9583333 42.9398148,23.6441799 L42.9398148,16.6501323 C42.9398148,14.2857143 41.6005291,11.9378307 38.9715608,11.9378307 C35.598545,11.9378307 34.1435185,14.8809524 34.3419312,17.906746 C34.3419312,17.989418 34.375,18.3366402 34.375,18.3862434 L34.375,23.6276455 C34.375,23.9087302 34.1600529,24.1732804 33.8789683,24.2063492 C33.531746,24.239418 33.2671958,23.9914021 33.2671958,23.6607143 L33.2671958,0.661375661 C33.2671958,0.380291005 33.4986772,0.115740741 33.8128307,0.115740741 C34.1269841,0.115740741 34.3584656,0.396825397 34.3584656,0.661375661 L34.3584656,13.6574074 C35.3009259,11.9708995 36.9874339,10.8300265 38.9550265,10.8300265 C42.1957672,10.8300265 44.0310847,13.6574074 44.0310847,16.6501323 L44.0310847,16.6501323 Z" id="Path"></path>
                <path d="M63.723545,17.5925926 C63.723545,17.906746 63.4589947,18.1712963 63.1283069,18.1712963 L52.1660053,18.1712963 C52.4470899,20.8829365 54.4808201,23.3630952 57.3578042,23.3630952 C59.3253968,23.3630952 60.7804233,22.6190476 61.8716931,21.0482804 C61.9874339,20.8829365 62.1527778,20.7671958 62.3511905,20.7671958 C62.6653439,20.7671958 62.8968254,20.9986772 62.8968254,21.3128307 C62.8968254,21.4285714 62.8637566,21.5112434 62.8141534,21.5939153 C61.7063492,23.5119048 59.5072751,24.4543651 57.3578042,24.4543651 C53.6706349,24.4543651 51.0251323,21.1474868 51.0251323,17.6256614 C51.0251323,14.0873016 53.6541005,10.7969577 57.3578042,10.7969577 C61.0284392,10.7969577 63.7070106,14.0707672 63.723545,17.5925926 Z M62.5330688,17.0800265 C62.3015873,14.3683862 60.218254,11.8882275 57.3412698,11.8882275 C54.4642857,11.8882275 52.4305556,14.3683862 52.1494709,17.0800265 L62.5330688,17.0800265 Z" id="Shape"></path>
                <path d="M77.1990741,11.5740741 C77.1990741,11.9212963 77.0006614,12.119709 76.6865079,12.1693122 C73.4623016,12.6488095 72.0072751,15.2777778 72.0072751,18.3366402 L72.0072751,23.5780423 C72.0072751,23.859127 71.792328,24.1236772 71.5112434,24.156746 C71.1640212,24.1898148 70.8994709,23.9417989 70.8994709,23.6111111 L70.8994709,11.656746 C70.8994709,11.3756614 71.114418,11.1111111 71.3955026,11.0780423 C71.7427249,11.0449735 72.0072751,11.2929894 72.0072751,11.6236772 L72.0072751,14.0542328 C72.9166667,12.5165344 74.7189153,11.0615079 76.603836,11.0615079 C76.8849206,11.0615079 77.1990741,11.2599206 77.1990741,11.5740741 L77.1990741,11.5740741 Z" id="Path"></path>
                <path d="M95.2215608,17.5925926 C95.2215608,17.906746 94.9570106,18.1712963 94.6263228,18.1712963 L83.6640212,18.1712963 C83.9451058,20.8829365 85.978836,23.3630952 88.8558201,23.3630952 C90.8234127,23.3630952 92.2784392,22.6190476 93.369709,21.0482804 C93.4854497,20.8829365 93.6507937,20.7671958 93.8492063,20.7671958 C94.1633598,20.7671958 94.3948413,20.9986772 94.3948413,21.3128307 C94.3948413,21.4285714 94.3617725,21.5112434 94.3121693,21.5939153 C93.2043651,23.5119048 91.005291,24.4543651 88.8558201,24.4543651 C85.1686508,24.4543651 82.5231481,21.1474868 82.5231481,17.6256614 C82.5231481,14.0873016 85.1521164,10.7969577 88.8558201,10.7969577 C92.5429894,10.7969577 95.2050265,14.0707672 95.2215608,17.5925926 L95.2215608,17.5925926 Z M94.047619,17.0800265 C93.8161376,14.3683862 91.7328042,11.8882275 88.8558201,11.8882275 C85.978836,11.8882275 83.9451058,14.3683862 83.6640212,17.0800265 L94.047619,17.0800265 Z" id="Shape"></path>
                <path d="M112.946429,11.7063492 L112.946429,15.4927249 L112.946429,23.7103175 C112.946429,24.0244709 112.665344,24.2559524 112.400794,24.2559524 C112.08664,24.2559524 111.855159,24.0244709 111.855159,23.7103175 L111.855159,21.4285714 C110.945767,23.2308201 109.341931,24.537037 107.291667,24.537037 C104.034392,24.537037 102.232143,21.7096561 102.232143,18.7169312 L102.232143,11.6898148 C102.232143,11.4087302 102.463624,11.1441799 102.777778,11.1441799 C103.091931,11.1441799 103.323413,11.4252646 103.323413,11.6898148 L103.323413,18.7169312 C103.323413,21.0813492 104.662698,23.4292328 107.291667,23.4292328 C110.978836,23.4292328 111.855159,19.973545 111.855159,16.1541005 L111.855159,11.6732804 C111.855159,11.3425926 112.202381,11.0119048 112.599206,11.1607143 C112.814153,11.2599206 112.946429,11.4748677 112.946429,11.7063492 L112.946429,11.7063492 Z" id="Path"></path>
                <path d="M140.707672,16.6005291 L140.707672,23.6276455 C140.707672,23.9417989 140.426587,24.1732804 140.162037,24.1732804 C139.847884,24.1732804 139.616402,23.9417989 139.616402,23.6276455 L139.616402,16.6005291 C139.616402,14.2361111 138.277116,11.9212963 135.648148,11.9212963 C132.34127,11.9212963 131.084656,15.4596561 131.084656,18.2043651 L131.084656,23.6276455 C131.084656,23.9417989 130.803571,24.1732804 130.539021,24.1732804 C130.224868,24.1732804 129.993386,23.9417989 129.993386,23.6276455 L129.993386,16.6005291 C129.993386,14.2361111 128.654101,11.9212963 126.025132,11.9212963 C122.685185,11.9212963 121.312831,14.5502646 121.428571,18.0555556 C121.428571,18.1382275 121.46164,18.287037 121.428571,18.3366402 L121.428571,23.6111111 C121.428571,23.8921958 121.213624,24.156746 120.93254,24.1898148 C120.585317,24.2228836 120.320767,23.9748677 120.320767,23.6441799 L120.320767,11.656746 C120.320767,11.3756614 120.535714,11.1111111 120.816799,11.0780423 C121.164021,11.0449735 121.428571,11.2929894 121.428571,11.6236772 L121.428571,13.6243386 C122.371032,11.9378307 124.05754,10.8300265 126.025132,10.8300265 C128.257275,10.8300265 129.993386,12.2519841 130.704365,14.3187831 C131.613757,12.2685185 133.382937,10.8300265 135.648148,10.8300265 C138.872354,10.8300265 140.707672,13.6243386 140.707672,16.6005291 L140.707672,16.6005291 Z" id="Path"></path>
            </g>
            <polygon id="Path" fill="#000000" opacity="0.6" points="14.3108466 17.1798942 0.587301587 23.4133598 14.3108466 31.531746 28.0509259 23.4133598"></polygon>
            <polygon id="Path" fill="#000000" opacity="0.45" points="0.587301587 23.4133598 14.3108466 31.531746 14.3108466 17.1798942 14.3108466 0.628968254"></polygon>
            <polygon id="Path" fill="#000000" opacity="0.8" points="14.3108466 0.628968254 14.3108466 17.1798942 14.3108466 31.531746 28.0509259 23.4133598"></polygon>
            <polygon id="Path" fill="#000000" opacity="0.45" points="0.587301587 26.0257937 14.3108466 45.3710317 14.3108466 34.1276455"></polygon>
            <polygon id="Path" fill="#000000" opacity="0.8" points="14.3108466 34.1276455 14.3108466 45.3710317 28.0509259 26.0257937"></polygon>
        </g>
    </g>
</svg>