<svg width="124px" height="42px" viewBox="0 0 124 42" version="1.1" xmlns="http://www.w3.org/2000/svg" xmlns:xlink="http://www.w3.org/1999/xlink">
    <g id="react-logo" stroke="none" stroke-width="1" fill="none" fill-rule="evenodd" stroke-linecap="round" stroke-linejoin="round">
        <g transform="translate(1.000000, 1.000000)">
            <path d="M18.1920768,19.7478992 C18.1920768,18.257291 18.9873067,16.8799123 20.2782112,16.1346082 C21.5691158,15.3893041 23.1595757,15.3893041 24.4504802,16.1346082 C25.7413847,16.8799123 26.5366146,18.257291 26.5366146,19.7478992 C26.5366146,21.2385073 25.7413847,22.615886 24.4504802,23.3611901 C23.1595757,24.1064942 21.5691158,24.1064942 20.2782112,23.3611901 C18.9873067,22.615886 18.1920768,21.2385073 18.1920768,19.7478992 Z" id="Path" fill="#383838"></path>
            <g id="Group" stroke="#383838" stroke-width="1.99639856">
                <path d="M22.364946,11.2641056 C27.9663866,11.2641056 33.1692677,12.0684274 37.0948379,13.4189676 C41.8223289,15.0468187 44.729892,17.512605 44.729892,19.7478992 C44.729892,22.0768307 41.6494598,24.6962785 36.5726291,26.3781513 C32.7346939,27.6506603 27.6830732,28.3133253 22.3661465,28.3133253 C16.9135654,28.3133253 11.7515006,27.6890756 7.86914766,26.3637455 C2.95678271,24.6854742 0,22.0312125 0,19.7478992 C0,17.5318127 2.7755102,15.0840336 7.43697479,13.457383 C11.3745498,12.0852341 16.7082833,11.2629052 22.364946,11.2629052 L22.364946,11.2641056 Z" id="Path"></path>
                <path d="M14.9795918,15.5294118 C17.7767107,10.6770708 21.0744298,6.57022809 24.2052821,3.84633854 C27.9759904,0.56422569 31.5654262,-0.720288115 33.5006002,0.393757503 C35.517407,1.55822329 36.2496999,5.53541417 35.1812725,10.7731092 C34.364946,14.7346939 32.4177671,19.4405762 29.7611044,24.0468187 C27.0360144,28.7695078 23.9183673,32.9303721 20.8295318,35.6314526 C16.9219688,39.0468187 13.1464586,40.2833133 11.1656663,39.1428571 C9.24489796,38.0384154 8.52460984,34.4093637 9.43337335,29.5594238 C10.2112845,25.4621849 12.1644658,20.4321729 14.9891957,15.5318127 L14.9795918,15.5294118 Z" id="Path"></path>
                <path d="M14.9855942,24.060024 C12.1788715,19.212485 10.2677071,14.304922 9.47178872,10.2328932 C8.52340936,5.32533013 9.19087635,1.57503001 11.1236495,0.456182473 C13.1380552,-0.708283313 16.9507803,0.643457383 20.9495798,4.19447779 C23.9747899,6.8787515 27.0780312,10.9171669 29.7430972,15.5198079 C32.4741897,20.2376951 34.5210084,25.0180072 35.3181273,29.0420168 C36.3265306,34.1320528 35.5102041,38.0216086 33.5342137,39.1668667 C31.6170468,40.2773109 28.1080432,39.1020408 24.3661465,35.8811525 C21.2040816,33.1620648 17.8235294,28.9567827 14.9879952,24.0612245 L14.9855942,24.060024 Z" id="Path"></path>
            </g>
            <path d="M68.6794718,30.4081633 L63.5654262,22.6818727 C66.15006,22.4417767 68.4789916,20.5810324 68.4789916,17.1596639 C68.4789916,13.6782713 66.0084034,11.4501801 62.542617,11.4501801 L54.9315726,11.4501801 L54.9315726,30.3937575 L57.2893157,30.3937575 L57.2893157,22.8667467 L61.0672269,22.8667467 L65.8955582,30.3937575 L68.6794718,30.4081633 Z M62.2605042,20.8079232 L57.2905162,20.8079232 L57.2905162,13.5654262 L62.2605042,13.5654262 C64.5054022,13.5654262 66.0384154,15.0420168 66.0384154,17.1728691 C66.0384154,19.3037215 64.5042017,20.8103241 62.2605042,20.8103241 L62.2605042,20.8079232 Z M77.4561825,30.7478992 C79.7010804,30.7478992 81.5462185,30.0096038 82.909964,28.6470588 L81.8871549,27.2545018 C80.8067227,28.362545 79.2172869,28.9867947 77.6554622,28.9867947 C74.7022809,28.9867947 72.8835534,26.8283313 72.7130852,24.244898 L83.817527,24.244898 L83.817527,23.7046819 C83.817527,19.5870348 81.3745498,16.3481393 77.214886,16.3481393 C73.2953181,16.3481393 70.4561825,19.5582233 70.4561825,23.5342137 C70.4561825,27.8235294 73.3817527,30.7370948 77.4429772,30.7370948 L77.4561825,30.7478992 Z M81.7178872,22.6806723 L72.7142857,22.6806723 C72.8283313,20.5798319 74.27491,18.1188475 77.2016807,18.1188475 C80.3265306,18.1188475 81.6890756,20.6470588 81.7178872,22.6806723 Z M97.9651861,30.4069628 L97.9651861,20.9771909 C97.9651861,17.6542617 95.5642257,16.3469388 92.6542617,16.3469388 C90.4093637,16.3469388 88.6494598,17.0852341 87.1728691,18.6194478 L88.1668667,20.0960384 C89.3877551,18.789916 90.7238896,18.1932773 92.3709484,18.1932773 C94.3589436,18.1932773 95.8367347,19.2436975 95.8367347,21.090036 L95.8367347,23.5606242 C94.7286915,22.2821128 93.1668667,21.6854742 91.2917167,21.6854742 C88.9627851,21.6854742 86.4897959,23.1344538 86.4897959,26.2016807 C86.4897959,29.1836735 88.9603842,30.7466987 91.2917167,30.7466987 C93.1380552,30.7466987 94.7010804,30.0936375 95.8367347,28.8439376 L95.8367347,30.4045618 L97.9651861,30.4069628 Z M92.0588235,29.2136855 C90.0708283,29.2136855 88.6782713,27.9651861 88.6782713,26.2316927 C88.6782713,24.4705882 90.0708283,23.2208884 92.0588235,23.2208884 C93.5642257,23.2208884 95.0120048,23.7887155 95.8367347,24.9255702 L95.8367347,27.5102041 C95.0132053,28.6458583 93.5642257,29.214886 92.0588235,29.214886 L92.0588235,29.2136855 Z M108.265306,30.7478992 C110.764706,30.7478992 112.241297,29.72509 113.292917,28.362545 L111.872749,27.0564226 C110.963986,28.2773109 109.79952,28.8571429 108.391357,28.8571429 C105.465786,28.8571429 103.64946,26.5846339 103.64946,23.5462185 C103.64946,20.5078031 105.466987,18.2641056 108.391357,18.2641056 C109.811525,18.2641056 110.97599,18.8043217 111.872749,20.0648259 L113.292917,18.7587035 C112.242497,17.394958 110.764706,16.3733493 108.265306,16.3733493 C104.17527,16.3733493 101.420168,19.4981993 101.420168,23.5594238 C101.420168,27.6494598 104.17527,30.7623049 108.265306,30.7623049 L108.265306,30.7478992 Z M119.741897,30.7478992 C120.990396,30.7478992 121.758703,30.3781513 122.29892,29.8679472 L121.67467,28.2773109 C121.390156,28.5894358 120.834334,28.8451381 120.22569,28.8451381 C119.289316,28.8451381 118.833133,28.1068427 118.833133,27.0840336 L118.833133,18.5606242 L121.618247,18.5606242 L121.618247,16.6866747 L118.833133,16.6866747 L118.833133,12.937575 L116.702281,12.937575 L116.702281,16.6866747 L114.429772,16.6866747 L114.429772,18.5618247 L116.702281,18.5618247 L116.702281,27.5378151 C116.702281,29.5834334 117.72509,30.7478992 119.741897,30.7478992 L119.741897,30.7478992 Z" id="Shape" fill="#383838"></path>
        </g>
    </g>
</svg>