<svg xmlns="http://www.w3.org/2000/svg" viewBox="0 0 124 42">
  <g fill="none" fill-rule="evenodd" stroke-linecap="round" stroke-linejoin="round">
    <path d="M19.192 20.748a4.172 4.172 0 118.345 0 4.172 4.172 0 01-8.345 0z" fill="#383838" />
    <g stroke="#383838" stroke-width="1.996">
      <path
        d="M23.365 12.264c5.601 0 10.804.804 14.73 2.155 4.727 1.628 7.635 4.094 7.635 6.329 0 2.329-3.08 4.948-8.157 6.63-3.838 1.273-8.89 1.935-14.207 1.935-5.452 0-10.614-.624-14.497-1.95C3.957 25.686 1 23.032 1 20.749c0-2.216 2.776-4.664 7.437-6.29 3.938-1.373 9.271-2.195 14.928-2.195v.001z" />
      <path
        d="M15.98 16.53c2.797-4.853 6.094-8.96 9.225-11.684 3.771-3.282 7.36-4.566 9.296-3.452 2.016 1.164 2.749 5.141 1.68 10.38-.816 3.96-2.763 8.667-5.42 13.273-2.725 4.723-5.843 8.883-8.931 11.584-3.908 3.416-7.684 4.652-9.664 3.512-1.921-1.105-2.641-4.734-1.733-9.584.778-4.097 2.731-9.127 5.556-14.027l-.01-.003z" />
      <path
        d="M15.986 25.06c-2.807-4.848-4.718-9.755-5.514-13.827-.949-4.908-.281-8.658 1.652-9.777 2.014-1.164 5.827.187 9.826 3.738 3.025 2.685 6.128 6.723 8.793 11.326 2.731 4.718 4.778 9.498 5.575 13.522 1.009 5.09.192 8.98-1.784 10.125-1.917 1.11-5.426-.065-9.168-3.286-3.162-2.719-6.542-6.924-9.378-11.82l-.002-.001z" />
    </g>
    <path
      d="M69.68 31.408l-5.115-7.726c2.585-.24 4.914-2.101 4.914-5.522 0-3.482-2.47-5.71-5.936-5.71h-7.611v18.944h2.357v-7.527h3.778l4.829 7.527 2.783.014zm-6.42-9.6h-4.97v-7.243h4.97c2.245 0 3.778 1.477 3.778 3.608 0 2.13-1.534 3.637-3.777 3.637v-.002zm15.196 9.94c2.245 0 4.09-.738 5.454-2.1l-1.023-1.393c-1.08 1.108-2.67 1.732-4.232 1.732-2.953 0-4.771-2.159-4.942-4.742h11.105v-.54c0-4.118-2.443-7.357-6.603-7.357-3.92 0-6.759 3.21-6.759 7.186 0 4.29 2.926 7.203 6.987 7.203l.013.01zm4.262-8.067h-9.004c.114-2.101 1.56-4.562 4.488-4.562 3.125 0 4.487 2.528 4.516 4.562zm16.247 7.726v-9.43c0-3.323-2.4-4.63-5.31-4.63-2.246 0-4.006.738-5.482 2.272l.994 1.477c1.22-1.306 2.557-1.903 4.204-1.903 1.988 0 3.466 1.05 3.466 2.897v2.47c-1.108-1.278-2.67-1.875-4.545-1.875-2.33 0-4.802 1.45-4.802 4.517 0 2.982 2.47 4.545 4.802 4.545 1.846 0 3.41-.653 4.545-1.903v1.56l2.128.003zm-5.906-1.193c-1.988 0-3.38-1.249-3.38-2.982 0-1.761 1.392-3.011 3.38-3.011 1.505 0 2.953.568 3.778 1.705v2.584c-.824 1.136-2.273 1.705-3.778 1.705v-.001zm16.206 1.534c2.5 0 3.976-1.023 5.028-2.385l-1.42-1.307c-.909 1.221-2.073 1.801-3.482 1.801-2.925 0-4.742-2.272-4.742-5.31 0-3.04 1.818-5.283 4.742-5.283 1.42 0 2.585.54 3.482 1.8l1.42-1.305c-1.05-1.364-2.528-2.386-5.028-2.386-4.09 0-6.845 3.125-6.845 7.186 0 4.09 2.755 7.203 6.845 7.203v-.014zm11.477 0c1.248 0 2.017-.37 2.557-.88l-.624-1.59c-.285.311-.84.567-1.45.567-.936 0-1.392-.738-1.392-1.761v-8.523h2.785v-1.874h-2.785v-3.75h-2.13v3.75h-2.273v1.875h2.272v8.976c0 2.045 1.023 3.21 3.04 3.21z"
      fill="#383838" />
  </g>
</svg>
