<svg width="51px" height="65px" viewBox="0 0 51 65" version="1.1" xmlns="http://www.w3.org/2000/svg" xmlns:xlink="http://www.w3.org/1999/xlink">
    <g id="swarm-logo" stroke="none" stroke-width="1" fill="none" fill-rule="evenodd">
        <g id="swarm" transform="translate(-6.000000, -11.000000)">
            <g id="Group-4" transform="translate(37.398910, 39.846704) rotate(-60.000000) translate(-37.398910, -39.846704) translate(6.898910, 14.346704)">
                <g id="exagon" transform="translate(13.377512, 22.839654)">
                    <polygon id="Polygon" fill="#141414" points="12.0552968 0.135543286 24.0128064 7.03921464 12.0552968 13.942886"></polygon>
                    <polygon id="Polygon" fill="#1C1C1C" points="24.0128064 7.03921464 24.0128064 20.8465574 12.0552968 13.942886"></polygon>
                    <polygon id="Polygon" fill="#383838" points="24.0128064 20.8465574 12.0552968 27.7502287 12.0552968 13.942886"></polygon>
                    <polygon id="Polygon" fill="#474747" points="12.0552968 27.7502287 0.0977872901 20.8465574 12.0552968 13.942886"></polygon>
                    <polygon id="Polygon" fill="#626262" points="0.0977872901 20.8465574 0.0977872901 7.03921464 12.0552968 13.942886"></polygon>
                    <polygon id="Polygon" fill="#383838" points="0.0977872901 7.03921464 12.0552968 0.135543286 12.0552968 13.942886"></polygon>
                </g>
                <g id="exagon" transform="translate(-0.000000, 0.000000)">
                    <polygon id="Polygon" fill="#141414" points="12.0552968 0.135543286 24.0128064 7.03921464 12.0552968 13.942886"></polygon>
                    <polygon id="Polygon" fill="#1C1C1C" points="24.0128064 7.03921464 24.0128064 20.8465574 12.0552968 13.942886"></polygon>
                    <polygon id="Polygon" fill="#383838" points="24.0128064 20.8465574 12.0552968 27.7502287 12.0552968 13.942886"></polygon>
                    <polygon id="Polygon" fill="#474747" points="12.0552968 27.7502287 0.0977872901 20.8465574 12.0552968 13.942886"></polygon>
                    <polygon id="Polygon" fill="#626262" points="0.0977872901 20.8465574 0.0977872901 7.03921464 12.0552968 13.942886"></polygon>
                    <polygon id="Polygon" fill="#383838" points="0.0977872901 7.03921464 12.0552968 0.135543286 12.0552968 13.942886"></polygon>
                </g>
                <g id="exagon" transform="translate(26.755024, 0.000000)">
                    <polygon id="Polygon" fill="#141414" points="12.0552968 0.135543286 24.0128064 7.03921464 12.0552968 13.942886"></polygon>
                    <path d="M24.0128064,7.03921464 L24.0122968,13.9432146 L18.0368012,17.3938132 L18.0362968,17.3952146 L12.0552968,13.942886 L24.0128064,7.03921464 Z" id="Combined-Shape" fill="#383838"></path>
                    <polygon id="Polygon" fill="#1C1C1C" points="24.015556 13.9415477 18.0368012 10.489712 24.015556 7.0378763"></polygon>
                    <path d="M12.0552968,13.942886 L18.0362968,17.395886 L18.0368012,24.2974845 L12.0552968,27.7502287 L12.0552968,13.942886 Z" id="Combined-Shape" fill="#383838"></path>
                    <g id="Group-3" transform="translate(12.065863, 13.945240)">
                        <polygon id="Polygon" fill="#0B0B0B" points="4.23101492e-14 -1.62285504e-14 5.97875477 3.45183568 4.23101492e-14 6.90367136"></polygon>
                        <polygon id="Polygon" fill="#1C1C1C" points="5.97875477 3.45183568 5.97875477 10.355507 5.21631977e-15 6.90367136"></polygon>
                    </g>
                    <polygon id="Polygon" fill="#474747" points="12.0552968 27.7502287 0.0977872901 20.8465574 12.0552968 13.942886"></polygon>
                    <polygon id="Polygon" fill="#626262" points="0.0977872901 20.8465574 0.0977872901 7.03921464 12.0552968 13.942886"></polygon>
                    <polygon id="Polygon" fill="#383838" points="0.0977872901 7.03921464 12.0552968 0.135543286 12.0552968 13.942886"></polygon>
                </g>
                <g id="exagon" transform="translate(47.636993, 15.661477)">
                    <polygon id="Polygon" fill="#333333" points="6.02764842 0.0677716429 12.0064032 3.51960732 6.02764842 6.971443"></polygon>
                    <polygon id="Polygon" fill="#1C1C1C" points="12.0064032 3.51960732 12.0064032 10.4232787 6.02764842 6.971443"></polygon>
                    <polygon id="Polygon" fill="#383838" points="12.0064032 10.4232787 6.02764842 13.8751144 6.02764842 6.971443"></polygon>
                    <polygon id="Polygon" fill="#666666" points="6.02764842 13.8751144 0.048893645 10.4232787 6.02764842 6.971443"></polygon>
                </g>
            </g>
            <path d="M15.4881579,75.5726304 C15.8968585,75.5726304 16.2967171,75.5127007 16.6877336,75.3928414 C17.0787501,75.2729821 17.4009949,75.0833686 17.6544679,74.8240008 C17.9079409,74.5646331 18.0346774,74.228634 18.0346774,73.8160035 C18.0346774,73.4741097 17.9305373,73.2029526 17.7222572,73.002532 C17.513977,72.8021115 17.282118,72.6586733 17.0266801,72.5722174 C16.7044353,72.4582528 16.3615591,72.3894811 15.9980513,72.3659022 C15.6345435,72.3423233 15.2749655,72.315797 14.9193173,72.2863234 C14.5636691,72.2568498 14.2325823,72.179236 13.9260568,72.053482 C13.7688643,71.9866751 13.6205138,71.8894122 13.4810054,71.7616933 C13.341497,71.6339743 13.2717428,71.4620449 13.2717428,71.2459052 C13.2717428,71.0101163 13.341497,70.8096958 13.4810054,70.6446436 C13.6205138,70.4795914 13.8012852,70.3459778 14.0233197,70.2438026 C14.2453542,70.1416274 14.483108,70.0659785 14.736581,70.0168558 C14.990054,69.9677332 15.2307551,69.9431718 15.4586843,69.9431718 C15.8988235,69.9431718 16.2937698,70.0296277 16.6435232,70.2025396 C16.9932767,70.3754514 17.2506795,70.6190998 17.4157317,70.933485 C17.4550298,71.0081514 17.5159419,71.0454847 17.598468,71.0454847 C17.6534854,71.0454847 17.7016256,71.0248531 17.7428887,70.9835901 C17.7841517,70.942327 17.8047832,70.8941868 17.8047832,70.8391694 C17.8047832,70.8038011 17.7969236,70.7703977 17.7812044,70.7389592 C17.576854,70.361697 17.2673812,70.0659785 16.8527858,69.8518037 C16.4381904,69.6376288 15.9734899,69.5305414 15.4586843,69.5305414 C15.167878,69.5305414 14.8701946,69.5629623 14.565634,69.6278043 C14.2610735,69.6926462 13.9800918,69.7938389 13.7226889,69.9313824 C13.4652861,70.0689259 13.257006,70.2457675 13.0978485,70.4619073 C12.938691,70.6780471 12.8591123,70.9393797 12.8591123,71.2459052 C12.8591123,71.5563605 12.9544103,71.8098335 13.1450063,72.0063242 C13.3356023,72.2028149 13.5428999,72.3462531 13.7668993,72.4366388 C14.0852143,72.5623929 14.4231783,72.6400067 14.7807914,72.6694803 C15.1384044,72.6989539 15.4979824,72.7264626 15.8595253,72.7520064 C16.2210682,72.7775502 16.5649269,72.8473044 16.8911015,72.961269 C17.0758027,73.024146 17.2438023,73.1223914 17.3951001,73.256005 C17.546398,73.3896187 17.6220469,73.5762849 17.6220469,73.8160035 C17.6220469,74.1421781 17.5129946,74.4044932 17.2948899,74.6029488 C17.0767852,74.8014044 16.8046456,74.9438602 16.478471,75.0303161 C16.1522965,75.116772 15.8221921,75.1599999 15.4881579,75.1599999 C14.9537032,75.1599999 14.4801606,75.0686318 14.0675301,74.8858954 C13.6548996,74.7031591 13.3503391,74.4211949 13.1538484,74.0400029 C13.11848,73.9653365 13.0575679,73.9280032 12.971112,73.9280032 C12.9160946,73.9280032 12.8679544,73.9486348 12.8266913,73.9898978 C12.7854283,74.0311609 12.7647968,74.0793011 12.7647968,74.1343185 C12.7647968,74.165757 12.7726564,74.1971955 12.7883757,74.228634 C13.0202347,74.672703 13.3768653,75.0077196 13.8582675,75.2336839 C14.3396697,75.4596483 14.8829665,75.5726304 15.4881579,75.5726304 Z M21.1423894,75.602104 C21.2445645,75.602104 21.3133363,75.5549462 21.3487046,75.4606307 L21.3487046,75.4606307 L23.2880678,70.361697 L25.2097469,75.454736 C25.2451152,75.5490515 25.313887,75.5962093 25.4160621,75.5962093 C25.5339565,75.5962093 25.6066581,75.5431568 25.6341668,75.4370518 L25.6341668,75.4370518 L27.2434256,69.7899091 C27.2473555,69.7781196 27.2493204,69.7565057 27.2493204,69.7250672 C27.2493204,69.579664 27.1766188,69.5069625 27.0312157,69.5069625 L27.0312157,69.5069625 L27.0194262,69.5069625 C26.9093914,69.5148221 26.8406197,69.5678746 26.813111,69.6661199 L26.813111,69.6661199 L25.3865885,74.6707381 L23.4943831,69.6543305 C23.4590147,69.560015 23.390243,69.5128572 23.2880678,69.5128572 C23.1858927,69.5128572 23.1171209,69.560015 23.0817526,69.6543305 L23.0817526,69.6543305 L21.1600735,74.7002117 L19.586183,69.707383 C19.5586743,69.601278 19.4899026,69.5482255 19.3798678,69.5482255 C19.3169908,69.5482255 19.2639383,69.5698395 19.2207103,69.6130675 C19.1774824,69.6562954 19.1558684,69.7093479 19.1558684,69.7722249 C19.1558684,69.791874 19.1597982,69.813488 19.1676578,69.8370669 L19.1676578,69.8370669 L20.9301794,75.4488413 C20.9655478,75.5510164 21.0362844,75.602104 21.1423894,75.602104 Z M34.3186035,75.5903146 C34.3814806,75.5903146 34.4345331,75.5687006 34.477761,75.5254726 C34.520989,75.4822447 34.5426029,75.4291922 34.5426029,75.3663152 L34.5426029,75.3663152 L34.5367082,75.3663152 L34.5543924,69.748646 C34.5543924,69.5993131 34.4797259,69.5246466 34.330393,69.5246466 C34.1849899,69.5246466 34.1122883,69.5993131 34.1122883,69.748646 L34.1122883,69.748646 L34.1063936,71.1987474 C33.9609905,70.9315201 33.7713769,70.6701874 33.537553,70.4147495 C33.3037291,70.1593116 33.0365017,69.9480841 32.7358709,69.781067 C32.4352402,69.6140499 32.1061182,69.5305414 31.7485052,69.5305414 C31.3437343,69.5305414 30.970402,69.6130675 30.6285082,69.7781196 C30.2866144,69.9431718 29.9889309,70.1681537 29.7354579,70.4530652 C29.4819849,70.7379767 29.2854942,71.0621864 29.1459858,71.4256942 C29.0064774,71.789202 28.9367232,72.1674466 28.9367232,72.560428 C28.9367232,72.9534094 29.0074599,73.3306715 29.1489332,73.6922144 C29.2904065,74.0537573 29.4868972,74.376002 29.7384053,74.6589486 C29.9899134,74.9418953 30.2846495,75.1649122 30.6226135,75.3279995 C30.9605775,75.4910868 31.3260502,75.5726304 31.7190316,75.5726304 C32.2259776,75.5726304 32.692643,75.4321396 33.1190278,75.1511579 C33.5454126,74.8701762 33.8725696,74.5292648 34.1004989,74.1284238 L34.1004989,74.1284238 L34.0946041,75.3604204 L34.0946041,75.3663152 C34.0946041,75.4291922 34.1162181,75.4822447 34.1594461,75.5254726 C34.202674,75.5687006 34.2557265,75.5903146 34.3186035,75.5903146 Z M31.7190316,75.1305263 C31.2749626,75.1305263 30.8760865,75.0096845 30.5224032,74.768001 C30.1687199,74.5263174 29.8897031,74.2099674 29.6853528,73.8189509 C29.4810025,73.4279344 29.3788273,73.0084268 29.3788273,72.560428 C29.3788273,72.1124292 29.4819849,71.6909566 29.6883002,71.2960103 C29.8946154,70.901064 30.177562,70.5817666 30.53714,70.3381181 C30.896718,70.0944697 31.3024713,69.9726454 31.7543999,69.9726454 C32.2023987,69.9726454 32.6002924,70.0934872 32.9480809,70.3351708 C33.2958694,70.5768543 33.5689915,70.8922219 33.7674471,71.2812735 C33.9659027,71.6703251 34.0651305,72.0908152 34.0651305,72.5427438 C34.0651305,72.9946724 33.9629554,73.4171274 33.758605,73.8101088 C33.5542547,74.2030902 33.2752379,74.5214052 32.9215547,74.7650536 C32.5678714,75.0087021 32.1670304,75.1305263 31.7190316,75.1305263 Z M36.7563885,75.5785251 C36.8192655,75.5785251 36.872318,75.5569112 36.9155459,75.5136832 C36.9587739,75.4704552 36.9803879,75.4174028 36.9803879,75.3545257 L36.9803879,75.3545257 L36.9803879,72.6960065 C36.9803879,72.3659022 37.0275456,72.0397276 37.1218612,71.7174829 C37.2161767,71.3952381 37.3527378,71.1005021 37.5315443,70.8332747 C37.7103508,70.5660474 37.9274731,70.3528549 38.182911,70.1936975 C38.4383489,70.03454 38.7291551,69.9549613 39.0553297,69.9549613 C39.090698,69.9549613 39.1260663,69.9569262 39.1614347,69.960856 C39.196803,69.9647858 39.2341362,69.9667507 39.2734344,69.9667507 C39.4188375,69.9667507 39.491539,69.8940492 39.491539,69.748646 C39.491539,69.6504007 39.4542058,69.5875237 39.3795393,69.560015 C39.3048729,69.5325063 39.216452,69.5187519 39.1142769,69.5187519 C38.7645234,69.5187519 38.4491559,69.5875237 38.1681742,69.7250672 C37.8871925,69.8626106 37.6464914,70.0404347 37.4460708,70.2585394 C37.2456503,70.4766441 37.0904227,70.7114505 36.9803879,70.9629586 L36.9803879,70.9629586 L36.9803879,69.7958038 C36.9803879,69.7329268 36.9587739,69.6808567 36.9155459,69.6395937 C36.872318,69.5983307 36.8192655,69.5776991 36.7563885,69.5776991 C36.6935115,69.5776991 36.640459,69.5983307 36.597231,69.6395937 C36.5540031,69.6808567 36.5323891,69.7329268 36.5323891,69.7958038 L36.5323891,69.7958038 L36.5323891,75.3545257 C36.5323891,75.4174028 36.5540031,75.4704552 36.597231,75.5136832 C36.640459,75.5569112 36.6935115,75.5785251 36.7563885,75.5785251 Z M42.2490998,69.707383 C42.2490998,69.6523656 42.2266427,69.6042254 42.1817286,69.5629623 C42.1368145,69.5216993 42.0844147,69.5010678 42.0245293,69.5010678 C41.9646438,69.5010678 41.912244,69.5216993 41.8673299,69.5629623 C41.8224158,69.6042254 41.7999587,69.6523656 41.7999587,69.707383 L41.7999587,69.707383 L41.7999587,69.7132777 L41.8127913,75.3663152 C41.8127913,75.4213326 41.8352484,75.4694728 41.8801625,75.5107358 C41.9250766,75.5519989 41.9774764,75.5726304 42.0373619,75.5726304 C42.0972473,75.5726304 42.1496471,75.5519989 42.1945612,75.5107358 C42.2394753,75.4694728 42.2619324,75.4213326 42.2619324,75.3663152 L42.2619324,75.3663152 L42.2555161,72.8197957 C42.2555161,72.2971304 42.3325117,71.819658 42.4865029,71.3873785 C42.6404941,70.9550989 42.8843136,70.6092753 43.2179612,70.3499076 C43.5516088,70.0905399 43.9836398,69.960856 44.5140539,69.960856 C44.9033095,69.960856 45.2038063,70.0620487 45.4155442,70.2644341 C45.6272821,70.4668195 45.774857,70.7281522 45.858269,71.048432 C45.9416809,71.3687119 45.9833868,71.7076583 45.9833868,72.0652714 L45.9833868,72.0652714 L45.9833868,75.3545257 C45.9833868,75.4095431 46.0058439,75.4576833 46.050758,75.4989464 C46.0956721,75.5402094 46.1480719,75.560841 46.2079573,75.560841 C46.2678428,75.560841 46.3202426,75.5402094 46.3651567,75.4989464 C46.4100708,75.4576833 46.4325279,75.4095431 46.4325279,75.3545257 L46.4325279,75.3545257 L46.4325279,72.8787429 C46.4325279,72.348218 46.513801,71.8619035 46.6763473,71.4197994 C46.8388936,70.9776954 47.0891293,70.6230297 47.4270545,70.3558023 C47.7649797,70.0885749 48.1948718,69.9549613 48.7167309,69.9549613 C49.101709,69.9549613 49.3979282,70.0689259 49.6053886,70.2968551 C49.812849,70.5247843 49.9561464,70.8116607 50.0352807,71.1574844 C50.1144151,71.503308 50.1539823,71.8510965 50.1539823,72.20085 L50.1539823,72.20085 L50.1603986,75.3722099 C50.1603986,75.4272273 50.1828556,75.4753675 50.2277698,75.5166306 C50.2726839,75.5578936 50.3250836,75.5785251 50.3849691,75.5785251 C50.4448546,75.5785251 50.4972544,75.5578936 50.5421685,75.5166306 C50.5870826,75.4753675 50.6095396,75.4272273 50.6095396,75.3722099 L50.6095396,75.3722099 L50.6031233,72.20085 C50.6031233,71.8864649 50.5710418,71.5730622 50.5068788,71.260642 C50.4427158,70.9482218 50.3379162,70.6623278 50.1924801,70.4029601 C50.0470439,70.1435923 49.8534855,69.9362947 49.6118049,69.781067 C49.3701242,69.6258393 49.0717662,69.5462606 48.7167309,69.5423308 C48.2761449,69.538401 47.8986526,69.6209271 47.5842539,69.7899091 C47.2698551,69.9588911 47.0153419,70.1779782 46.8207141,70.4471705 C46.6260863,70.7163627 46.4881358,71.0002918 46.4068627,71.2989577 C46.4154177,70.784152 46.2507327,70.3636619 45.9128075,70.0374874 C45.5748823,69.7113128 45.1086312,69.5482255 44.5140539,69.5482255 C44.1076882,69.5482255 43.7505142,69.6297692 43.4425317,69.7928564 C43.1345493,69.9559437 42.880036,70.1632414 42.6789919,70.4147495 C42.4779478,70.6662576 42.3346505,70.9236604 42.2490998,71.186958 L42.2489009,71.1868522 L42.2490998,69.707383 Z" fill="#2F3031" fill-rule="nonzero"></path>
        </g>
    </g>
</svg>