<svg xmlns="http://www.w3.org/2000/svg" viewBox="0 0 51 65">
  <g fill="none" fill-rule="evenodd">
    <path fill="#141414" d="M26.679 31.973l11.957-6.904v13.808z" />
    <path fill="#1C1C1C" d="M38.636 25.069l11.958 6.904-11.958 6.904z" />
    <path fill="#383838" d="M50.594 31.973V45.78l-11.958-6.903z" />
    <path fill="#474747" d="M50.593 45.78l-11.956 6.904V38.877z" />
    <path fill="#626262" d="M38.637 52.684L26.679 45.78l11.957-6.903z" />
    <path fill="#383838" d="M26.679 45.78V31.973l11.957 6.904z" />
    <g>
      <path fill="#141414" d="M.21 32.139l11.958-6.905v13.808z" />
      <path fill="#1C1C1C" d="M12.168 25.234l11.958 6.904-11.958 6.904z" />
      <path fill="#383838" d="M24.126 32.138l-.001 13.808-11.957-6.904z" />
      <path fill="#474747" d="M24.125 45.946l-11.957 6.903V39.042z" />
      <path fill="#626262" d="M12.168 52.85L.21 45.944l11.958-6.903z" />
      <path fill="#383838" d="M.21 45.945V32.14l11.958 6.903z" />
    </g>
    <g>
      <path fill="#141414" d="M13.588 8.968l11.957-6.904v13.808z" />
      <path d="M25.545 2.064l5.98 3.452v6.902l-5.98 3.453V2.064z" fill="#383838" />
      <path fill="#1C1C1C" d="M31.525 5.512l-5.98 3.452V2.06z" />
      <path d="M25.545 15.871l5.981-3.453 5.977 3.45v6.907L25.545 15.87z" fill="#383838" />
      <path fill="#0B0B0B" d="M25.553 15.863l5.979-3.452v6.904z" />
      <path fill="#1C1C1C" d="M31.532 12.411l5.979 3.452-5.98 3.452z" />
      <path fill="#474747" d="M37.502 22.775l-11.956 6.904V15.872z" />
      <path fill="#626262" d="M25.546 29.679l-11.958-6.904 11.957-6.903z" />
      <path fill="#383838" d="M13.588 22.775V8.968l11.957 6.904z" />
    </g>
    <g>
      <path fill="#333" d="M34.52 3.9L40.498.449V7.35z" />
      <path fill="#1C1C1C" d="M40.498.449L46.477 3.9l-5.979 3.451z" />
      <path fill="#383838" d="M46.477 3.9v6.903l-5.979-3.452z" />
      <path fill="#666" d="M46.477 10.803l-5.979 3.452V7.351z" />
    </g>
    <path
      d="M9.488 64.573c.409 0 .809-.06 1.2-.18.39-.12.713-.31.966-.569.254-.26.38-.595.38-1.008 0-.342-.103-.613-.312-.813-.208-.2-.44-.344-.695-.43a3.81 3.81 0 00-1.029-.207 60.4 60.4 0 01-1.079-.08 3.324 3.324 0 01-.993-.233 1.567 1.567 0 01-.445-.291.665.665 0 01-.21-.516.9.9 0 01.21-.601c.14-.165.32-.299.542-.401.222-.102.46-.178.714-.227a3.8 3.8 0 01.722-.074c.44 0 .835.087 1.185.26.35.172.607.416.772.73.039.075.1.112.182.112.055 0 .104-.02.145-.061a.198.198 0 00.062-.145.221.221 0 00-.024-.1 2.137 2.137 0 00-.928-.887 2.992 2.992 0 00-1.394-.321c-.291 0-.589.032-.893.097a3.186 3.186 0 00-.843.303 1.836 1.836 0 00-.625.53c-.16.217-.239.478-.239.785 0 .31.095.564.286.76.19.197.398.34.622.43.318.126.656.204 1.014.233.357.03.717.057 1.079.083.361.026.705.095 1.031.21.185.062.353.16.504.294.151.134.227.32.227.56 0 .326-.109.588-.327.787-.218.198-.49.34-.817.427a3.85 3.85 0 01-.99.13c-.534 0-1.008-.091-1.42-.274a1.821 1.821 0 01-.914-.846c-.036-.075-.096-.112-.183-.112a.198.198 0 00-.144.062.198.198 0 00-.039.239c.232.444.589.779 1.07 1.005.482.226 1.025.339 1.63.339zm5.654.03c.103 0 .171-.048.207-.142l1.94-5.1 1.92 5.094c.036.094.105.141.207.141.118 0 .19-.053.218-.159l1.61-5.647a.237.237 0 00.005-.065c0-.145-.072-.218-.218-.218h-.012c-.11.008-.178.06-.206.16l-1.426 5.004-1.893-5.017c-.035-.094-.104-.141-.206-.141s-.17.047-.206.141L15.16 63.7l-1.574-4.993c-.027-.106-.096-.159-.206-.159a.216.216 0 00-.16.065.216.216 0 00-.052.224l1.762 5.612c.036.102.106.153.212.153zm13.177-.013a.216.216 0 00.159-.065.216.216 0 00.065-.159h-.006l.017-5.617c0-.15-.074-.224-.224-.224-.145 0-.218.074-.218.224l-.006 1.45a3.995 3.995 0 00-.568-.784 3.162 3.162 0 00-.802-.634 2 2 0 00-.987-.25c-.405 0-.779.082-1.12.247-.342.165-.64.39-.894.675-.253.285-.45.61-.589.973a3.14 3.14 0 00.003 2.266c.141.362.338.684.59.967.25.283.546.506.884.669a2.49 2.49 0 001.096.245c.507 0 .974-.14 1.4-.422.426-.28.754-.622.981-1.023l-.005 1.232v.006c0 .063.021.116.064.16a.216.216 0 00.16.064zm-2.6-.46c-.444 0-.843-.12-1.197-.362a2.572 2.572 0 01-.837-.949 2.677 2.677 0 01-.306-1.259c0-.448.103-.869.31-1.264a2.58 2.58 0 01.848-.958 2.12 2.12 0 011.217-.365c.448 0 .846.12 1.194.362s.621.557.82.946c.198.39.297.81.297 1.262 0 .452-.102.874-.306 1.267a2.59 2.59 0 01-.837.955 2.07 2.07 0 01-1.203.366zm5.037.449a.216.216 0 00.16-.065.216.216 0 00.064-.16v-2.658c0-.33.048-.656.142-.979a3.19 3.19 0 01.41-.884c.178-.267.395-.48.65-.64a1.615 1.615 0 01.98-.232c.035.004.072.006.111.006.146 0 .219-.073.219-.218 0-.099-.038-.161-.112-.189a.768.768 0 00-.266-.041c-.35 0-.665.069-.946.206a2.405 2.405 0 00-.722.534 2.55 2.55 0 00-.466.704v-1.167a.207.207 0 00-.064-.156.222.222 0 00-.16-.062.222.222 0 00-.159.062.207.207 0 00-.065.156v5.559c0 .062.022.115.065.159a.216.216 0 00.16.065zm5.493-5.872a.19.19 0 00-.067-.144.225.225 0 00-.157-.062c-.06 0-.113.02-.158.062a.19.19 0 00-.067.144v.006l.013 5.653a.19.19 0 00.067.145.225.225 0 00.157.062c.06 0 .113-.021.158-.062a.19.19 0 00.067-.145l-.006-2.546c0-.523.077-1 .23-1.433.154-.432.398-.778.732-1.037.334-.26.766-.39 1.296-.39.39 0 .69.102.902.304.211.203.359.464.442.784.084.32.125.66.125 1.017v3.29a.19.19 0 00.068.144.225.225 0 00.157.062c.06 0 .112-.02.157-.062a.19.19 0 00.068-.144v-2.476c0-.53.08-1.017.243-1.46a2.36 2.36 0 01.751-1.063c.338-.267.768-.401 1.29-.401.385 0 .68.114.888.342.208.228.351.515.43.86.08.346.119.694.119 1.044l.006 3.171a.19.19 0 00.068.145.225.225 0 00.157.062c.06 0 .112-.021.157-.062a.19.19 0 00.068-.145l-.007-3.171c0-.315-.032-.628-.096-.94a2.958 2.958 0 00-.315-.858 1.733 1.733 0 00-.58-.622c-.242-.155-.54-.235-.895-.239-.44-.004-.818.079-1.133.248a2.224 2.224 0 00-.763.657c-.195.27-.333.553-.414.852.008-.515-.156-.935-.494-1.262-.338-.326-.804-.489-1.399-.489-.406 0-.763.082-1.071.245a2.4 2.4 0 00-.764.622 2.458 2.458 0 00-.43.772v-1.48z"
      fill="#2F3031" fill-rule="nonzero" />
  </g>
</svg>
