<svg xmlns="http://www.w3.org/2000/svg" viewBox="0 0 163 42">
  <g fill="#242424" fill-rule="nonzero">
    <path
      d="M91.657 13.447l-2.505 17.438h-.05L86.91 13.447h-6.24l-2.2 17.438h-.049l-2.504-17.438h-3.806l3.106 20.19h6.225l2.299-17.402h.05l2.27 17.408h6.232l3.176-20.181h-3.798s-.014-.057-.014-.015zM161.518 14.388a4.612 4.612 0 00-3.671-1.513 4.768 4.768 0 00-4.478 2.652 4.138 4.138 0 00-1.315-1.853 3.968 3.968 0 00-2.561-.8 4.428 4.428 0 00-2.511.708 4.089 4.089 0 00-1.415 1.733v-1.868h-3.707V33.63h3.707V19.835c-.04-.88.208-1.75.707-2.476a2.221 2.221 0 011.91-.884 2.016 2.016 0 011.627.708c.437.546.66 1.232.63 1.93v14.502h3.713V20.07a4.3 4.3 0 01.708-2.752 2.278 2.278 0 011.846-.842 1.945 1.945 0 011.726.708c.405.61.605 1.333.573 2.065v14.346h3.735V18.258a5.786 5.786 0 00-1.224-3.87zM117.993 31.458l-2.349 2.624h-.035l-4.146-3.586-4.951 2.893c-.81.47-1.73.715-2.667.707a5.596 5.596 0 01-3.778-1.507 5.15 5.15 0 01-1.627-3.855 5.334 5.334 0 012.703-4.654l9.98-5.723v-1.274H99.432v-3.536h15.258v15.11l3.268 2.829.036-.028zm-13.3-1.175l6.43-3.735v-4.032l-8.19 4.704a1.74 1.74 0 00-.913 1.557c.022.979.81 1.767 1.79 1.79.329-.007.65-.105.926-.284h-.042zM135.876 14.82a6.437 6.437 0 00-4.719-1.967 6.367 6.367 0 00-5.291 2.575l-2.363-2.164-2.327 2.596 3.353 3.041v11.106h-3.332v3.488h12.026v-3.488h-5.086V19.722a3.261 3.261 0 012.83-3.296 3.148 3.148 0 013.444 3.126v1.16h3.488v-1.16a6.437 6.437 0 00-2.023-4.732zM68.37 25.247a3.827 3.827 0 00-1.062-1.415 4.655 4.655 0 00-1.67-1.019 10.83 10.83 0 00-1.923-.707 33.157 33.157 0 00-2.18-.516 10.915 10.915 0 01-3.451-1.16 2.016 2.016 0 01-1.068-1.748 1.988 1.988 0 01.955-1.832 4.18 4.18 0 013.112-.538 6.14 6.14 0 012.73 1.493c.163.134 1.776 1.627 1.748 1.662l2.327-2.638s-1.117-1.132-1.648-1.599a9.196 9.196 0 00-4.464-2.292 8.616 8.616 0 00-5.114.778c-.42.216-.816.474-1.181.771a5.355 5.355 0 00-2.038 4.315c0 1.84.58 3.148 1.769 4.004a12.26 12.26 0 004.76 1.931c1.345.24 2.657.631 3.912 1.168a1.62 1.62 0 011.125 1.577 2.377 2.377 0 01-1.146 2.122 5.907 5.907 0 01-5.829 0A13.667 13.667 0 0156.018 28c-.502-.425-.976-.885-1.464-1.337l-2.264 2.723s1.104 1.033 1.203 1.118a11.078 11.078 0 005.242 2.978c.735.153 1.484.229 2.235.226a8.807 8.807 0 005.553-1.733 5.78 5.78 0 002.313-4.831 4.343 4.343 0 00-.467-1.896zM0 36.162l9.529 5.348 9.528-5.348V25.487l-9.528-5.355L0 25.487zM31.5 0l-5.037 2.83-.007.042v5.652l5.044 2.83.043.021 5.036-2.823V2.851zM40.866 25.487l-9.529-5.355-9.528 5.355v10.675l9.528 5.348 9.529-5.348z" />
    <path d="M20.359 1.493L10.844 6.84v10.675l9.529 5.348 9.528-5.348v-4.251l-4.64-2.604-1.252-.7V3.671z" />
  </g>
</svg>
