<svg viewBox="0 0 24 20">
  <path
    d="M1.471 8.71s10.615-4.39 14.296-5.936C17.18 2.155 21.964.177 21.964.177s2.21-.866 2.025 1.236c-.061.866-.552 3.896-1.043 7.173-.736 4.638-1.534 9.709-1.534 9.709s-.123 1.422-1.166 1.67c-1.043.247-2.76-.866-3.067-1.114-.246-.185-4.602-2.968-6.197-4.328-.43-.371-.92-1.113.06-1.98 2.21-2.04 4.848-4.575 6.443-6.183.737-.742 1.473-2.473-1.595-.37a523.896 523.896 0 01-8.651 5.874s-.982.618-2.823.062c-1.84-.557-3.988-1.299-3.988-1.299s-1.472-.928 1.043-1.917z" />
</svg>
