<svg xmlns="http://www.w3.org/2000/svg" viewBox="0 0 180 46">
  <g fill-rule="nonzero" fill="none">
    <g fill="#3B3B3B">
      <path
        d="M51.216 26.373a.59.59 0 01-.596.579H39.658c.281 2.711 2.315 5.192 5.192 5.192 1.967 0 3.422-.745 4.514-2.315.115-.166.28-.281.48-.281a.53.53 0 01.545.545.512.512 0 01-.083.281c-1.108 1.918-3.307 2.86-5.456 2.86-3.687 0-6.333-3.306-6.333-6.828 0-3.538 2.63-6.829 6.333-6.829 3.687 0 6.35 3.274 6.366 6.796zm-1.174-.513c-.232-2.711-2.315-5.191-5.192-5.191-2.877 0-4.91 2.48-5.192 5.191h10.384zM64.542 19.842c.314 0 .546.281.546.546a.53.53 0 01-.546.545H61.6v11.558a.55.55 0 01-.545.545.561.561 0 01-.546-.545V20.933H57.68a.53.53 0 01-.546-.545.55.55 0 01.546-.546h2.827v-4.216c0-.281.215-.546.496-.579a.54.54 0 01.612.546v4.249h2.926zM82.482 25.43v6.995a.561.561 0 01-.545.545.53.53 0 01-.546-.545V25.43c0-2.365-1.34-4.713-3.968-4.713-3.373 0-4.828 2.943-4.63 5.97 0 .082.033.43.033.479v5.241c0 .281-.215.546-.496.579a.54.54 0 01-.612-.546v-23a.55.55 0 01.546-.545c.314 0 .546.281.546.546v12.996c.942-1.687 2.628-2.828 4.596-2.828 3.24 0 5.076 2.828 5.076 5.82zM102.175 26.373a.59.59 0 01-.596.579H90.617c.281 2.711 2.315 5.192 5.192 5.192 1.967 0 3.422-.745 4.514-2.315.115-.166.28-.281.48-.281a.53.53 0 01.545.545.512.512 0 01-.083.281c-1.108 1.918-3.307 2.86-5.456 2.86-3.687 0-6.333-3.306-6.333-6.828 0-3.538 2.63-6.829 6.333-6.829 3.67 0 6.35 3.274 6.366 6.796zm-1.19-.513c-.232-2.711-2.316-5.191-5.193-5.191s-4.91 2.48-5.191 5.191h10.383zM115.65 20.354c0 .348-.198.546-.512.596-3.225.48-4.68 3.108-4.68 6.167v5.241c0 .282-.215.546-.496.58a.54.54 0 01-.611-.546V20.437c0-.28.214-.545.496-.579a.54.54 0 01.611.546v2.43c.91-1.537 2.712-2.992 4.597-2.992.281 0 .595.198.595.512zM133.673 26.373a.59.59 0 01-.596.579h-10.962c.281 2.711 2.315 5.192 5.192 5.192 1.967 0 3.422-.745 4.514-2.315.116-.166.28-.281.48-.281a.53.53 0 01.545.545.512.512 0 01-.083.281c-1.108 1.918-3.307 2.86-5.456 2.86-3.687 0-6.333-3.306-6.333-6.828 0-3.538 2.63-6.829 6.333-6.829 3.687 0 6.35 3.274 6.366 6.796zm-1.174-.513c-.232-2.711-2.315-5.191-5.192-5.191-2.877 0-4.91 2.48-5.192 5.191H132.5zM151.397 20.487V32.49a.561.561 0 01-.545.545.53.53 0 01-.546-.545v-2.282c-.91 1.802-2.513 3.108-4.563 3.108-3.258 0-5.06-2.827-5.06-5.82V20.47a.55.55 0 01.546-.545c.314 0 .545.28.545.545v7.027c0 2.365 1.34 4.713 3.969 4.713 3.687 0 4.563-3.456 4.563-7.275v-4.481c0-.331.347-.662.744-.513a.6.6 0 01.347.546zM179.159 25.381v7.027a.561.561 0 01-.546.546.53.53 0 01-.546-.546v-7.027c0-2.364-1.339-4.68-3.968-4.68-3.307 0-4.563 3.54-4.563 6.284v5.423a.561.561 0 01-.546.546.53.53 0 01-.546-.546v-7.027c0-2.364-1.339-4.68-3.968-4.68-3.34 0-4.712 2.63-4.596 6.135 0 .083.033.231 0 .281v5.275c0 .28-.215.545-.496.578a.54.54 0 01-.612-.545V20.437c0-.28.215-.545.496-.579a.54.54 0 01.612.546v2c.942-1.686 2.629-2.794 4.596-2.794 2.232 0 3.968 1.422 4.68 3.49.909-2.051 2.678-3.49 4.943-3.49 3.224 0 5.06 2.795 5.06 5.771z" />
    </g>
    <path fill="#000" opacity=".6" d="M14.311 17.18L.587 23.413l13.724 8.119 13.74-8.119z" />
    <path fill="#000" opacity=".45" d="M.587 23.413l13.724 8.119V.629z" />
    <path fill="#000" opacity=".8" d="M14.311.629v30.903l13.74-8.119z" />
    <path fill="#000" opacity=".45" d="M.587 26.026l13.724 19.345V34.128z" />
    <path fill="#000" opacity=".8" d="M14.311 34.128v11.243l13.74-19.345z" />
  </g>
</svg>
