<svg viewBox="0 0 20 20" fill="currentColor">
  <path
    d="M10 0c5.523 0 10 4.59 10 10.253 0 4.529-2.862 8.37-6.833 9.728-.507.1-.687-.219-.687-.492l.011-2.313v-.5c0-.957-.319-1.581-.677-1.9 2.226-.253 4.566-1.12 4.566-5.058 0-1.12-.388-2.034-1.03-2.752l.04-.108c.127-.374.35-1.342-.138-2.606l-.055-.012c-.216-.034-1.066-.067-2.692 1.063A9.388 9.388 0 0010 4.958a9.363 9.363 0 00-2.503.345c-1.91-1.326-2.75-1.05-2.75-1.05-.544 1.411-.201 2.454-.098 2.713-.64.718-1.03 1.632-1.03 2.752 0 3.928 2.335 4.808 4.556 5.067-.286.256-.545.708-.635 1.37l-.146.064c-.617.246-1.834.509-2.658-.743l-.161-.264c-.147-.227-.587-.807-1.295-.941l-.183-.024s-.892-.012-.176.544l.108.08s.585.28 1.033 1.31l.123.3c.183.388.963 1.625 3.323 1.1l.014 1.908c0 .271-.184.588-.683.493C2.865 18.627 0 14.783 0 10.253 0 4.59 4.478 0 10 0zM6.474 16.589a.209.209 0 01.217.207.214.214 0 01-.213.217.21.21 0 01-.217-.207c0-.118.094-.214.213-.217zm.978.059c.014.112-.068.227-.186.258-.116.03-.224-.04-.239-.151a.248.248 0 01.186-.26c.118-.029.224.038.24.153zM5.71 16.47c.113.047.187.17.163.28-.024.106-.136.155-.25.11-.113-.047-.187-.172-.164-.28.024-.108.137-.158.25-.11zm-.606-.378c.096.094.125.227.06.296-.06.07-.19.052-.284-.044-.097-.093-.123-.226-.063-.296.062-.07.192-.05.287.044zm-.431-.549c.08.107.08.233-.002.285-.08.05-.211.003-.292-.102-.08-.105-.08-.232.001-.282.082-.05.21-.005.293.1zm-.411-.546c.092.1.11.23.04.294-.068.062-.2.033-.288-.065-.093-.099-.11-.23-.042-.294.07-.062.197-.033.29.065zm-.472-.414c.11.063.171.196.134.293-.034.096-.151.125-.258.06-.11-.064-.17-.196-.135-.293.032-.1.15-.127.259-.06z" />
</svg>