<svg viewBox="0 0 25 20" fill="currentColor">
  <path
    d="M7.844 20c9.44 0 14.602-7.696 14.602-14.366 0-.22 0-.44-.01-.65 1-.712 1.872-1.602 2.564-2.618a10.55 10.55 0 01-2.948.796A5.062 5.062 0 0024.308.366c-.99.576-2.086.995-3.256 1.226A5.147 5.147 0 0017.305 0c-2.83 0-5.13 2.262-5.13 5.047 0 .398.043.785.139 1.152A14.639 14.639 0 011.734.921a5.003 5.003 0 00-.691 2.534c0 1.75.905 3.299 2.288 4.2a5.104 5.104 0 01-2.32-.629v.063c0 2.45 1.767 4.482 4.119 4.953a5.195 5.195 0 01-2.32.084c.649 2.01 2.543 3.466 4.789 3.508a10.424 10.424 0 01-6.375 2.157c-.415 0-.82-.021-1.224-.074A14.468 14.468 0 007.844 20" />
</svg>