<svg viewBox="0 0 586 421" xmlns="http://www.w3.org/2000/svg">
  <g fill="#44D7B6" fill-rule="evenodd">
    <path d="M53 22v21h21v6H53v21h-6V49H26v-6h21V22h6zM101 70v21h21v6h-21v21h-6V97H74v-6h21V70h6z" opacity=".9" />
    <path d="M149 22v21h21v6h-21v21h-6V49h-21v-6h21V22h6z" opacity=".1" />
    <path d="M245 22v21h21v6h-21v21h-6V49h-21v-6h21V22h6z" opacity=".9" />
    <path d="M53 118v21h21v6H53v21h-6v-21H26v-6h21v-21h6z" opacity=".4" />
    <path d="M101 166v21h21v6h-21v21h-6v-21H74v-6h21v-21h6zM341 118v21h21v6h-21v21h-6v-21h-21v-6h21v-21h6z"
      opacity=".6" />
    <path d="M149 118v21h21v6h-21v21h-6v-21h-21v-6h21v-21h6z" opacity=".7" />
    <path d="M293 70v21h21v6h-21v21h-6V97h-21v-6h21V70h6zM437 22v21h21v6h-21v21h-6V49h-21v-6h21V22h6z" opacity=".9" />
    <path d="M197 70v21h21v6h-21v21h-6V97h-21v-6h21V70h6z" opacity=".6" />
    <path d="M149 214v21h21v6h-21v21h-6v-21h-21v-6h21v-21h6zM197 166v21h21v6h-21v21h-6v-21h-21v-6h21v-21h6z"
      opacity=".9" />
    <path d="M389 70v21h21v6h-21v21h-6V97h-21v-6h21V70h6z" opacity=".7" />
    <path d="M149 310v21h21v6h-21v21h-6v-21h-21v-6h21v-21h6z" opacity=".6" />
    <path d="M197 358v21h21v6h-21v21h-6v-21h-21v-6h21v-21h6z" opacity=".9" />
    <path d="M197 358v21h21v6h-21v21h-6v-21h-21v-6h21v-21h6zM245 310v21h21v6h-21v21h-6v-21h-21v-6h21v-21h6z"
      opacity=".9" />
    <path d="M245 310v21h21v6h-21v21h-6v-21h-21v-6h21v-21h6z" opacity=".1" />
    <path d="M53 214v21h21v6H53v21h-6v-21H26v-6h21v-21h6z" opacity=".9" />
    <path
      d="M101 262v21h21v6h-21v21h-6v-21H74v-6h21v-21h6zM341 22v21h21v6h-21v21h-6V49h-21v-6h21V22h6zM437 118v21h21v6h-21v21h-6v-21h-21v-6h21v-21h6zM533 22v21h21v6h-21v21h-6V49h-21v-6h21V22h6z"
      opacity=".4" />
    <path d="M53 310v21h21v6H53v21h-6v-21H26v-6h21v-21h6z" opacity=".9" />
    <path d="M101 358v21h21v6h-21v21h-6v-21H74v-6h21v-21h6z" opacity=".4" />
  </g>
</svg>
