<svg xmlns="http://www.w3.org/2000/svg" xmlns:xlink="http://www.w3.org/1999/xlink" viewBox="0 0 86 86">
  <defs>
    <linearGradient x1="50%" y1="0%" x2="50%" y2="100%" id="prefix__news__c">
      <stop stop-color="#DA7315" offset="0%" />
      <stop stop-color="#AF4A12" offset="100%" />
    </linearGradient>
    <linearGradient x1="50%" y1="100%" x2="50%" y2="0%" id="prefix__news__g">
      <stop stop-color="#FF9D5B" offset="0%" />
      <stop stop-color="#DC7531" offset="100%" />
    </linearGradient>
    <linearGradient x1="50%" y1="0%" x2="50%" y2="100%" id="prefix__news__h">
      <stop stop-color="#DA7315" offset="0%" />
      <stop stop-color="#E0631E" offset="100%" />
    </linearGradient>
    <linearGradient x1="50%" y1="0%" x2="50%" y2="100%" id="prefix__news__k">
      <stop stop-color="#F09500" offset="0%" />
      <stop stop-color="#FA6400" offset="100%" />
    </linearGradient>
    <filter x="-61.2%" y="-30.6%" width="222.4%" height="222.4%" filterUnits="objectBoundingBox" id="prefix__news__e">
      <feOffset dy="3" in="SourceAlpha" result="shadowOffsetOuter1" />
      <feGaussianBlur stdDeviation="1.5" in="shadowOffsetOuter1" result="shadowBlurOuter1" />
      <feColorMatrix values="0 0 0 0 0.683338995 0 0 0 0 0.683338995 0 0 0 0 0.683338995 0 0 0 0.5 0"
        in="shadowBlurOuter1" />
    </filter>
    <filter x="-6.2%" y="-7.4%" width="112.4%" height="120.8%" filterUnits="objectBoundingBox" id="prefix__news__i">
      <feOffset in="SourceAlpha" result="shadowOffsetOuter1" />
      <feGaussianBlur stdDeviation="1.5" in="shadowOffsetOuter1" result="shadowBlurOuter1" />
      <feColorMatrix values="0 0 0 0 0.464928668 0 0 0 0 0.131801027 0 0 0 0 0.0324156631 0 0 0 1 0"
        in="shadowBlurOuter1" />
    </filter>
    <path id="prefix__news__f" d="M51.8 0v9.8h9.8z" />
    <path d="M40.198 56.706L72.8 86.8H0l32.602-30.094a5.6 5.6 0 017.596 0z" id="prefix__news__j" />
    <radialGradient cx="30.664%" cy="13.854%" fx="30.664%" fy="13.854%" r="147.262%"
      gradientTransform="scale(1 .85714) rotate(57.684 .286 .15)" id="prefix__news__d">
      <stop stop-color="#FFF" offset="0%" />
      <stop stop-color="#E3E3E3" offset="100%" />
    </radialGradient>
    <circle id="prefix__news__a" cx="43" cy="43" r="42" />
  </defs>
  <g fill="none" fill-rule="evenodd">
    <mask id="prefix__news__b" fill="#fff">
      <use xlink:href="#prefix__news__a" />
    </mask>
    <use fill="#EBEBEB" xlink:href="#prefix__news__a" />
    <g mask="url(#prefix__news__b)">
      <path fill="url(#prefix__news__c)" transform="translate(7 14)" d="M36.4 8.4l32.2 28.84V42H4.2v-4.76z" />
      <path stroke="#FCFCFC" stroke-width="1.4" fill="url(#prefix__news__d)" d="M11.2 0h41.3l9.1 9.1v49.7H11.2z"
        transform="translate(7 14)" />
      <path fill="#C0B87B" d="M21 33.6h16.8v14H21z" />
      <path fill="#44D7B6" d="M21 19.6h14v2.8H21z" />
      <path
        d="M65.8 61.6v2.8H21v-2.8h44.8zm0-5.6v2.8H21V56h44.8zm0-5.6v2.8H21v-2.8h44.8zm0-5.6v2.8H40.6v-2.8h25.2zm0-5.6V42H40.6v-2.8h25.2zm0-5.6v2.8H40.6v-2.8h25.2zm-19.6-8.4V28H21v-2.8h25.2z"
        fill="#BBCFCB" />
      <g transform="translate(7 14)">
        <use fill="#000" filter="url(#prefix__news__e)" xlink:href="#prefix__news__f" />
        <use fill="#FCFCFC" xlink:href="#prefix__news__f" />
      </g>
      <path d="M21 42l23.8 33.6H-.093a1.4 1.4 0 01-1.142-2.21L21 42z" fill="url(#prefix__news__g)"
        transform="rotate(90 17.5 69.3)" />
      <path d="M51.8 42l23.8 33.6H30.707a1.4 1.4 0 01-1.142-2.21L51.8 42z" fill="url(#prefix__news__h)"
        transform="matrix(0 1 1 0 0 21)" />
      <g transform="matrix(-1 0 0 1 79.8 14)">
        <use fill="#000" filter="url(#prefix__news__i)" xlink:href="#prefix__news__j" />
        <use fill="url(#prefix__news__k)" xlink:href="#prefix__news__j" />
      </g>
    </g>
  </g>
</svg>
