<svg xmlns="http://www.w3.org/2000/svg" viewBox="0 0 32 32">
    <path fill="#D80027" d="M16 16h16v-4H16zM16 8h16V4H16zM0 32h32v-4H0zM0 24h32v-4H0z" />
    <path fill="#FFF" d="M0 28h32v-4H0zM0 20h32v-4H0zM16 12h16V8H16zM16 4h16V0H16z" />
    <path fill="#0052B4" d="M0 0v16h16V0z" />
    <path fill="#FFF"
        d="M9.332 14.4l-1.356-.985-1.356.985.518-1.594-1.357-.986h1.677l.518-1.594.518 1.594h1.676l-1.356.986zM4.351 14.4l-1.357-.985-1.356.985.518-1.594L.8 11.82h1.676l.518-1.594.518 1.594h1.677l-1.356.986zM4.351 9.742l-1.357-.985-1.356.985.518-1.594L.8 7.162h1.676l.518-1.594.518 1.594h1.677l-1.356.986zM8.814 8.145l.518 1.594-1.356-.985-1.356.985.518-1.594-1.357-.985h1.677l.518-1.595.518 1.595h1.676zM14.303 14.4l-1.357-.985-1.356.985.518-1.594-1.356-.986h1.676l.518-1.594.518 1.594h1.677l-1.357.986zM13.784 8.145l.519 1.594-1.357-.985-1.356.985.518-1.594-1.356-.985h1.676l.518-1.595.518 1.595h1.677zM13.784 3.484l.519 1.594-1.357-.985-1.356.985.518-1.594-1.356-.985h1.676l.518-1.595.518 1.595h1.677zM8.809 3.484l.518 1.594-1.356-.985-1.356.985.518-1.594-1.356-.985h1.676L7.971.904l.518 1.595h1.676zM3.833 3.484l.518 1.594-1.357-.985-1.356.985.518-1.594L.8 2.499h1.676L2.994.904l.518 1.595h1.677z" />
</svg>