<svg xmlns="http://www.w3.org/2000/svg" viewBox="0 0 156 28">
  <g fill="#A0AEC0" fill-rule="nonzero">
    <path
      d="M67.839 25.59v-2.03a.747.747 0 00-.747-.747h-8.837a.373.373 0 01-.374-.374v-7.555c0-.207.168-.374.374-.374h8.547a.747.747 0 00.747-.746v-2.03a.747.747 0 00-.747-.748h-8.547a.373.373 0 01-.374-.373V5.39c0-.206.168-.373.374-.373h8.837a.747.747 0 00.747-.747V2.24a.747.747 0 00-.747-.747H54.88a.747.747 0 00-.747.747v23.35c0 .412.335.746.747.746h12.212a.747.747 0 00.747-.746zm7.68 0V14.044h1.53a.747.747 0 00.746-.747V11.41a.747.747 0 00-.746-.746h-1.53V5.667a.747.747 0 00-.747-.746h-2.126a.747.747 0 00-.747.746v4.998h-1.544a.747.747 0 00-.747.746v1.886c0 .412.334.747.747.747h1.544V25.59c0 .412.334.746.747.746h2.126a.747.747 0 00.746-.746zm7.778 0v-6.832c0-1.93.252-2.92.756-3.714.515-.783 1.405-1.547 2.67-1.547.987 0 1.703.281 2.148.844.445.563.668 1.473.668 2.728v8.52c0 .413.334.747.746.747h2.126a.747.747 0 00.747-.746v-8.86c0-2.188-.45-3.78-1.351-4.778-1.062-1.148-2.478-1.722-4.247-1.722-1.555 0-2.976.58-4.263 1.738v-6.3a.747.747 0 00-.746-.747h-2.126a.747.747 0 00-.747.746V25.59c0 .412.334.746.747.746h2.126a.747.747 0 00.746-.746zm19.31 1.197c.814 0 1.57-.086 2.267-.258a6.772 6.772 0 001.947-.812c.6-.37 1.163-.842 1.689-1.416a10.558 10.558 0 001.07-1.392.747.747 0 00-.263-1.06l-1.772-.989a.747.747 0 00-.977.226c-.283.407-.5.704-.655.89-.334.405-.649.716-.942.933-.59.43-1.335.644-2.236.644-1.158 0-2.107-.376-2.847-1.126a4.12 4.12 0 01-.8-1.181c-.138-.304-.266-.789-.383-1.455a.373.373 0 01.368-.438h10.055a.747.747 0 00.747-.732l.002-.12c0-2.586-.665-4.608-1.994-6.066-1.34-1.47-3.164-2.205-5.47-2.205-2.284 0-4.118.756-5.501 2.269-1.373 1.534-2.06 3.54-2.06 6.018 0 2.499.709 4.505 2.124 6.017 1.416 1.502 3.293 2.253 5.63 2.253zm-3.57-10.896a3.912 3.912 0 01.351-.705c.226-.354.497-.657.814-.91a3.544 3.544 0 011.053-.578 3.75 3.75 0 011.239-.201c1.69 0 2.833.74 3.43 2.219.02.05.042.11.067.182a.373.373 0 01-.353.495h-6.25a.373.373 0 01-.35-.502zm16.251 9.699v-7.38c0-2.981.987-4.472 2.96-4.472a2.938 2.938 0 011.354.345.747.747 0 001.017-.326l.971-1.942a.747.747 0 00-.335-1.003 5.477 5.477 0 00-.306-.142c-.696-.293-1.37-.44-2.025-.44-.719 0-1.34.134-1.866.402-.515.258-1.105.735-1.77 1.433v-.654a.747.747 0 00-.747-.746h-2.126a.747.747 0 00-.746.746V25.59c0 .412.334.746.746.746h2.126a.747.747 0 00.747-.746zm11.807 0v-6.816c0-1.952.247-2.947.74-3.73.504-.793 1.357-1.564 2.558-1.564 1.104 0 1.866.3 2.284.901.429.59.644 1.658.644 3.202v8.007c0 .412.334.746.746.746h2.142a.747.747 0 00.747-.746v-8.86c0-2.21-.44-3.802-1.32-4.778-1.018-1.148-2.439-1.722-4.262-1.722-1.587 0-3.013.628-4.279 1.883v-.702a.747.747 0 00-.746-.746h-2.143a.747.747 0 00-.746.746V25.59c0 .412.334.746.746.746h2.143a.747.747 0 00.746-.746zm19.393 1.197c1.716 0 3.32-.697 4.81-2.092v.895c0 .412.334.746.747.746h2.142a.747.747 0 00.746-.746V11.41a.747.747 0 00-.746-.746h-2.142a.747.747 0 00-.747.746v1.072c-1.448-1.502-3.083-2.253-4.906-2.253-2.113 0-3.872.783-5.277 2.35-1.404 1.565-2.107 3.523-2.107 5.872 0 2.392.703 4.388 2.107 5.986 1.416 1.566 3.207 2.349 5.373 2.349zm.174-3.234c-1.255 0-2.295-.478-3.12-1.432-.805-.944-1.207-2.167-1.207-3.669 0-1.405.413-2.585 1.238-3.54.837-.943 1.877-1.415 3.121-1.415 1.319 0 2.391.466 3.217 1.4.826.954 1.239 2.166 1.239 3.636 0 1.47-.413 2.681-1.239 3.636-.826.923-1.909 1.384-3.25 1.384zM36.79 0v5.165l-8.523 8.523a.365.365 0 00-.03.482l.03.034 8.523 8.523v5.165L25.523 16.624l-11.049 11.05a.747.747 0 01-1.008.043l-.048-.044-13.2-13.199a.747.747 0 01-.043-1.008l.044-.048L13.418.218a.747.747 0 011.008-.043l.048.044 11.049 11.048L36.79 0zm1.119 0l13.43 13.43c.27.27.284.699.042.986l-.043.046-13.43 13.43v-5.165l8.523-8.523a.365.365 0 00.03-.482l-.03-.034-8.522-8.523V0zM14.21 5.234a.373.373 0 00-.493-.03l-.035.03-8.448 8.448a.373.373 0 00-.03.493l.03.035 8.448 8.448a.373.373 0 00.493.03l.035-.03 8.448-8.448a.373.373 0 00.03-.493l-.03-.035-8.448-8.448z" />
    <path d="M44.982 14.222l-7.073 7.073V6.72l7.073 7.073a.303.303 0 010 .429z" />
  </g>
</svg>
