<svg width="2800px" height="861px" viewBox="0 0 2800 861" version="1.1" xmlns="http://www.w3.org/2000/svg" xmlns:xlink="http://www.w3.org/1999/xlink" preserveAspectRatio="none">
    <defs>
        <linearGradient x1="50%" y1="-55.0493162%" x2="50%" y2="100%" id="linearGradient-1">
            <stop stop-color="#F1F3F8" offset="0%"></stop>
            <stop stop-color="#DADFEB" offset="100%"></stop>
        </linearGradient>
        <linearGradient x1="50%" y1="-55.0493162%" x2="50%" y2="100%" id="linearGradient-2">
            <stop stop-color="#E1E5F0" stop-opacity="0" offset="0%"></stop>
            <stop stop-color="#DADFEB" offset="100%"></stop>
        </linearGradient>
        <linearGradient x1="50%" y1="-38.2907645%" x2="50%" y2="100%" id="linearGradient-3">
            <stop stop-color="#FFFFFF" offset="0%"></stop>
            <stop stop-color="#DADFEB" offset="100%"></stop>
        </linearGradient>
        <linearGradient x1="50%" y1="0%" x2="50%" y2="111.250036%" id="linearGradient-4">
            <stop stop-color="#F9FAFB" offset="0%"></stop>
            <stop stop-color="#DADFEB" offset="100%"></stop>
        </linearGradient>
        <linearGradient x1="50%" y1="-19.5769341%" x2="50%" y2="162.517107%" id="linearGradient-5">
            <stop stop-color="#E1E5F0" stop-opacity="0" offset="0%"></stop>
            <stop stop-color="#DADFEB" offset="100%"></stop>
        </linearGradient>
        <linearGradient x1="27.2343178%" y1="6.2165223%" x2="75.4959677%" y2="118.354015%" id="linearGradient-6">
            <stop stop-color="#B5B5B5" offset="6.23%"></stop>
            <stop stop-color="#D1D1D1" offset="58.28%"></stop>
        </linearGradient>
        <linearGradient x1="27.1934805%" y1="6.10619957%" x2="67.2089889%" y2="99.0834538%" id="linearGradient-7">
            <stop stop-color="#C1C1C1" offset="6.23%"></stop>
            <stop stop-color="#D1D1D1" offset="58.28%"></stop>
        </linearGradient>
        <linearGradient x1="57.8227898%" y1="99.3917076%" x2="42.1771593%" y2="0.608285091%" id="linearGradient-8">
            <stop stop-color="#C1C1C1" offset="33.21%"></stop>
            <stop stop-color="#D1D1D1" offset="94.79%"></stop>
        </linearGradient>
        <linearGradient x1="62.9441367%" y1="98.3083884%" x2="37.0556422%" y2="1.69166836%" id="linearGradient-9">
            <stop stop-color="#C1C1C1" offset="33.21%"></stop>
            <stop stop-color="#D1D1D1" offset="94.79%"></stop>
        </linearGradient>
        <linearGradient x1="49.9999882%" y1="100.00003%" x2="49.9999882%" y2="3.35179975e-05%" id="linearGradient-10">
            <stop stop-color="#A3A3A3" offset="0%"></stop>
            <stop stop-color="#666666" offset="100%"></stop>
        </linearGradient>
        <linearGradient x1="72.8969869%" y1="6.11087017%" x2="24.5506103%" y2="118.248202%" id="linearGradient-11">
            <stop stop-color="#B5B5B5" offset="6.23%"></stop>
            <stop stop-color="#D1D1D1" offset="58.28%"></stop>
        </linearGradient>
        <linearGradient x1="72.8535357%" y1="6.20943587%" x2="32.7679886%" y2="99.186529%" id="linearGradient-12">
            <stop stop-color="#C1C1C1" offset="6.23%"></stop>
            <stop stop-color="#D1D1D1" offset="58.28%"></stop>
        </linearGradient>
        <linearGradient x1="50.0000137%" y1="0%" x2="50.0000137%" y2="100%" id="linearGradient-13">
            <stop stop-color="#C1C1C1" offset="26.86%"></stop>
            <stop stop-color="#D1D1D1" offset="94.79%"></stop>
        </linearGradient>
        <linearGradient x1="22.7960888%" y1="33.2638378%" x2="50%" y2="67.513536%" id="linearGradient-14">
            <stop stop-color="#F1F3F8" offset="0%"></stop>
            <stop stop-color="#D0D4E0" offset="100%"></stop>
        </linearGradient>
        <linearGradient x1="50%" y1="-55.0493162%" x2="50%" y2="100%" id="linearGradient-15">
            <stop stop-color="#F3F5F9" offset="0%"></stop>
            <stop stop-color="#D1D7E4" offset="100%"></stop>
        </linearGradient>
    </defs>
    <g id="hero-bg" stroke="none" stroke-width="1" fill="none" fill-rule="evenodd">
        <g id="etherna-landing" transform="translate(-59.000000, 51.000000)">
            <path d="M446.714984,383.786325 C446.714984,383.786325 446.806864,383.694444 446.806864,383.602564 C447.358146,382.775641 447.817548,382.040598 448.36883,381.213675 C448.46071,381.121795 448.46071,381.029915 448.552591,380.938034 C449.103873,380.111111 449.563275,379.376068 450.114557,378.549145 C450.206437,378.457265 450.298317,378.365385 450.298317,378.181624 C450.849599,377.354701 451.400881,376.527778 451.952163,375.700855 L452.044044,375.608974 C453.238488,373.863248 454.432933,372.025641 455.719257,370.188034 C455.811138,370.096154 455.811138,370.004274 455.903018,369.912393 C456.4543,368.99359 457.097463,368.166667 457.740625,367.247863 C457.832505,367.155983 457.924386,367.064103 457.924386,366.880342 C458.567548,365.961538 459.11883,365.134615 459.761993,364.215812 C459.853873,364.123932 459.853873,364.032051 459.945753,363.940171 C461.232078,362.010684 462.610283,360.081197 463.988488,358.151709 L464.080369,358.059829 C464.723531,357.141026 465.458574,356.222222 466.101736,355.211538 C466.193616,355.119658 466.193616,355.027778 466.285497,354.935897 C466.928659,354.017094 467.663702,353.098291 468.306864,352.179487 C468.398745,352.087607 468.490625,351.995726 468.582505,351.811966 C469.317548,350.893162 469.96071,349.882479 470.695753,348.963675 C470.695753,348.871795 470.787634,348.871795 470.787634,348.779915 C472.257719,346.850427 473.727805,344.82906 475.19789,342.807692 C475.28977,342.715812 475.28977,342.623932 475.381651,342.623932 C476.116693,341.705128 476.851736,340.694444 477.494899,339.775641 C477.586779,339.683761 477.678659,339.59188 477.77054,339.40812 C478.505582,338.489316 479.240625,337.478632 479.975668,336.559829 C480.067548,336.467949 480.159428,336.376068 480.159428,336.284188 C480.894471,335.273504 481.629514,334.354701 482.456437,333.344017 C483.28336,332.333333 484.018403,331.32265 484.845326,330.311966 C484.845326,330.311966 484.845326,330.311966 484.937206,330.220085 C485.672249,329.301282 486.499172,328.290598 487.234215,327.371795 C487.326095,327.279915 487.417975,327.188034 487.509856,327.096154 C488.244899,326.17735 488.979941,325.258547 489.806864,324.339744 C489.898745,324.247863 489.990625,324.155983 490.082505,323.972222 C490.817548,323.053419 491.644471,322.134615 492.379514,321.215812 C492.471394,321.123932 492.471394,321.123932 492.563275,321.032051 C494.12524,319.102564 495.779087,317.264957 497.341052,315.42735 C497.432933,315.33547 497.432933,315.33547 497.524813,315.24359 C498.259856,314.324786 499.086779,313.497863 499.821822,312.57906 C499.913702,312.487179 500.005582,312.395299 500.097463,312.303419 C500.832505,311.476496 501.659428,310.557692 502.394471,309.730769 C502.486352,309.638889 502.578232,309.547009 502.670112,309.455128 C503.497035,308.536325 504.232078,307.709402 505.059001,306.882479 C505.059001,306.882479 505.059001,306.882479 505.150881,306.790598 C505.977805,305.871795 506.804728,305.044872 507.631651,304.126068 C508.458574,303.299145 509.193616,302.472222 510.02054,301.645299 C510.11242,301.553419 510.2043,301.461538 510.296181,301.369658 C511.031223,300.542735 511.858146,299.807692 512.593189,299.07265 C512.685069,298.980769 512.77695,298.888889 512.86883,298.797009 C513.603873,298.061966 514.430796,297.235043 515.165839,296.5 C515.257719,296.40812 515.257719,296.40812 515.349599,296.316239 C517.003446,294.754274 518.565411,293.284188 520.127377,291.814103 C520.219257,291.814103 520.219257,291.722222 520.311138,291.630342 C521.046181,290.895299 521.873104,290.252137 522.608146,289.608974 C522.700027,289.517094 522.791907,289.425214 522.883787,289.333333 C523.61883,288.690171 524.353873,288.047009 525.180796,287.403846 C525.272676,287.311966 525.364557,287.220085 525.456437,287.220085 C526.19148,286.576923 527.018403,285.933761 527.753446,285.382479 L527.845326,285.290598 C528.672249,284.647436 529.407292,284.096154 530.234215,283.452991 C530.969257,282.901709 531.796181,282.350427 532.531223,281.799145 C532.623104,281.707265 532.714984,281.707265 532.806864,281.615385 C533.541907,281.155983 534.27695,280.604701 535.011993,280.145299 C535.103873,280.053419 535.195753,280.053419 535.287634,279.961538 C536.022676,279.502137 536.757719,279.042735 537.492762,278.583333 C537.584642,278.583333 537.676522,278.491453 537.676522,278.491453 C539.146608,277.57265 540.708574,276.745726 542.178659,276.102564 C542.27054,276.102564 542.27054,276.102564 542.36242,276.010684 C543.097463,275.643162 543.740625,275.367521 544.475668,275.09188 C544.567548,275.09188 544.659428,275 544.751309,275 C545.394471,274.724359 546.129514,274.448718 546.772676,274.173077 C546.864557,274.173077 546.956437,274.081197 547.048317,274.081197 C547.69148,273.805556 548.426522,273.621795 549.069685,273.438034 C549.161565,273.438034 549.161565,273.438034 549.253446,273.438034 C555.041907,271.692308 560.370967,271.692308 565.148745,273.897436 C565.424386,273.989316 565.700027,274.173077 566.067548,274.356838 C566.343189,274.540598 566.61883,274.632479 566.986352,274.816239 C609.251309,299.623932 624.870967,318.918803 635.896608,306.974359 C636.264129,306.606838 636.631651,306.239316 636.907292,305.871795 C636.999172,305.779915 637.182933,305.596154 637.274813,305.504274 C637.550454,305.228632 637.734215,305.044872 638.009856,304.769231 C638.193616,304.58547 638.377377,304.401709 638.561138,304.309829 C638.744899,304.126068 639.02054,303.850427 639.2043,303.666667 C639.388061,303.482906 639.663702,303.299145 639.847463,303.115385 C640.031223,302.931624 640.214984,302.747863 640.490625,302.564103 C640.766266,302.380342 640.950027,302.104701 641.225668,301.92094 C641.409428,301.737179 641.593189,301.553419 641.77695,301.369658 C642.052591,301.185897 642.328232,300.910256 642.603873,300.726496 C642.787634,300.542735 642.971394,300.450855 643.155155,300.267094 C643.430796,299.991453 643.706437,299.807692 644.073958,299.532051 C644.257719,299.440171 644.44148,299.25641 644.62524,299.07265 C644.992762,298.797009 645.268403,298.613248 645.635924,298.337607 C645.819685,298.245726 646.003446,298.061966 646.095326,297.970085 C646.462847,297.694444 646.830369,297.418803 647.19789,297.143162 C647.381651,297.051282 647.473531,296.959402 647.657292,296.775641 C648.024813,296.5 648.392334,296.224359 648.851736,295.948718 C648.943616,295.856838 649.127377,295.764957 649.219257,295.673077 C649.586779,295.397436 650.046181,295.121795 650.413702,294.846154 C650.505582,294.754274 650.597463,294.662393 650.781223,294.570513 C651.240625,294.294872 651.608146,294.019231 652.067548,293.651709 C652.159428,293.559829 652.251309,293.559829 652.343189,293.467949 C652.802591,293.192308 653.261993,292.824786 653.721394,292.549145 C653.813275,292.549145 653.905155,292.457265 653.905155,292.457265 C654.364557,292.181624 654.915839,291.814103 655.37524,291.538462 C655.467121,291.538462 655.467121,291.446581 655.559001,291.446581 C656.110283,291.07906 656.569685,290.803419 657.120967,290.527778 L657.212847,290.527778 C657.764129,290.160256 658.315411,289.884615 658.866693,289.608974 C661.898745,283.17735 663.552591,276.010684 663.552591,268.384615 C663.552591,240.452991 640.950027,217.850427 613.018403,217.850427 C612.467121,217.850427 611.915839,217.850427 611.364557,217.850427 C612.467121,213.715812 613.018403,209.397436 613.018403,204.987179 C613.018403,183.67094 599.787634,165.478632 581.135924,158.036325 C584.443616,152.523504 586.373104,146.183761 586.373104,139.292735 C586.373104,119.262821 570.110283,103 550.080369,103 C530.050454,103 513.236352,119.446581 513.236352,139.476496 C513.236352,151.237179 518.841052,161.619658 527.385924,168.235043 C519.667975,175.401709 514.247035,185.049145 512.225668,195.799145 C500.464984,190.010684 487.234215,186.794872 473.268403,186.794872 C424.296181,186.794872 384.603873,226.487179 384.603873,275.459402 C384.603873,295.764957 391.494899,314.508547 402.979941,329.485043 C379.953506,337.465104 361.208148,354.65352 351.188825,376.632111 C346.096005,387.803825 445.7043,385.440171 446.714984,383.786325 Z" id="Path" fill="url(#linearGradient-1)"></path>
            <path d="M1394.64174,342.689286 C1419.74075,370.12121 1521.45779,458.131967 1543.9148,456.98897 C1566.37181,455.845973 1603.35982,364.406226 1686.58286,392.981147 C1725.28817,406.23991 1764.91819,391.380951 1799,372.064305 C1778.78869,339.488895 1733.47837,323.944138 1692.26316,337.088602 C1683.94085,339.717494 1676.27905,343.375084 1669.54195,347.832772 C1669.67405,343.946583 1669.01355,340.060393 1667.29625,336.288504 C1660.42705,320.286548 1639.95154,312.171271 1621.45753,318.000554 C1608.77592,322.001043 1600.32152,331.602217 1598.47212,342.460687 C1590.14982,333.773911 1578.12871,328.401826 1565.31501,327.258829 C1572.84471,312.971368 1574.16571,296.283614 1567.29651,280.395958 C1553.6902,248.392047 1512.73919,232.047192 1475.75117,243.82006 C1459.10657,249.077845 1446.16076,259.250517 1438.23476,271.594883 C1415.11725,248.734946 1377.46873,239.362372 1342.59432,250.449441 C1318.55211,258.10752 1300.8507,273.995176 1292,292.968924 C1332.42262,302.112898 1375.09093,321.315245 1394.64174,342.689286 Z" id="Shape" fill="url(#linearGradient-2)"></path>
            <path d="M2538.84402,349.239316 L2538.84402,349.239316 C2543.89744,330.403846 2557.77137,315.24359 2575.68803,308.352564 C2574.30983,306.698718 2573.0235,304.952991 2571.82906,303.115385 C2568.70513,301.737179 2565.30556,301.002137 2561.72222,301.002137 C2558.41453,301.002137 2555.38248,301.645299 2552.44231,302.839744 C2554.18803,297.235043 2555.10684,291.262821 2555.10684,285.014957 C2555.10684,253.775641 2531.49359,228.141026 2501.17308,224.833333 C2502.36752,221.893162 2503.01068,218.769231 2503.01068,215.369658 C2503.01068,201.679487 2491.89316,190.561966 2478.20299,190.561966 C2475.44658,190.561966 2472.78205,191.021368 2470.30128,191.848291 C2471.49573,188.264957 2472.23077,184.497863 2472.23077,180.547009 C2472.23077,161.435897 2456.79487,146 2437.68376,146 C2418.57265,146 2403.13675,161.435897 2403.13675,180.547009 C2403.13675,186.886752 2404.7906,192.767094 2407.82265,197.820513 C2387.70085,204.160256 2373,222.903846 2373,245.138889 C2373,249.549145 2373.55128,253.775641 2374.65385,257.910256 C2381.82051,261.49359 2388.4359,263.882479 2394.0406,264.525641 C2417.92949,267.282051 2462.95085,326.08547 2505.21581,338.029915 C2514.49573,340.602564 2526.16453,344.553419 2538.84402,349.239316 Z" id="Path" fill="url(#linearGradient-3)"></path>
            <path d="M2859,445.926166 C2838.28261,440.811473 2585.92081,344.597712 2570.75808,341.789646 C2501.70012,328.752194 2428.13838,264.56782 2389.10562,261.559177 C2350.07286,258.550534 2279.51365,219.438181 2243.48341,205.397849 C2207.45317,191.357517 2132.39017,270.585105 2094.85867,274.596628 C2057.32717,278.608152 1968.75283,310.700339 1937.22637,306.688816 C1905.69991,302.677292 1806.61675,391.933688 1712.03737,366.861667 C1617.45799,341.789646 1575.42271,422.020114 1549.90129,423.022995 C1524.37987,424.025876 1408.78285,346.80405 1380.25891,322.734909 C1351.73497,298.665769 1279.67449,277.605271 1225.62914,274.596628 C1171.58378,271.587986 1083.00944,178.320066 1013.95148,147.230759 C944.893518,116.141453 904.359498,195.369041 875.835558,195.369041 C847.311619,195.369041 832.299019,218.4353 790.263739,252.533249 C748.22846,286.631198 652.14782,292.648484 652.14782,292.648484 C622.122621,285.628318 622.122621,285.628318 578.586081,249.524607 C550.662645,226.358059 497.5189,323.690705 475,322.687824 C452.4811,321.684943 413.447483,338.781003 395.432363,351.818454 C377.417243,364.855905 351.895823,343.795407 282.837864,316.717624 C213.779905,289.639841 59,465.143991 59,465.143991 L59,737.098446 C526.20804,785.699482 993.041374,810 1459.5,810 C1925.95863,810 2392.40858,785.699482 2858.84987,737.098446 C2857.4487,546.660822 2857.49874,449.603396 2859,445.926166 Z" id="Path" fill="url(#linearGradient-4)"></path>
            <circle id="Oval" fill="url(#linearGradient-5)" cx="1549.58547" cy="105.58547" r="72.5854701"></circle>
            <g id="Group-2" transform="translate(1520.000000, 460.000000)" fill-rule="nonzero">
                <g id="Group" transform="translate(0.000000, 26.875000)">
                    <path d="M14.5400641,20.6730769 C12.0592949,17.2964744 7.37339744,16.5384615 3.92788462,18.9503205 C2.6875,19.8461538 1.79166667,21.0176282 1.30929487,22.3958333 L1.30929487,22.3958333 C1.30929487,22.3958333 1.30929487,22.3958333 1.30929487,22.4647436 C1.17147436,22.7403846 1.1025641,23.0160256 1.03365385,23.3605769 C-0.137820513,27.5641026 -3.30769231,45.3429487 19.2259615,59.125 C19.2948718,59.1939103 19.3637821,59.1939103 19.4326923,59.2628205 L19.4326923,59.2628205 L19.4326923,59.2628205 C21.9823718,60.7788462 25.2211538,60.7099359 27.7019231,58.849359 C31.0785256,56.3685897 31.8365385,51.6826923 29.4246795,48.2371795 C28.5288462,46.9278846 27.2195513,46.0320513 25.8413462,45.5496795 L25.8413462,45.5496795 C25.8413462,45.5496795 14.1955128,40.1746795 15.1602564,28.5977564 L15.1602564,28.5977564 C16.400641,26.1169872 16.2628205,23.0849359 14.5400641,20.6730769 Z" id="Path" fill="url(#linearGradient-6)"></path>
                    <path d="M17.9855769,10.4054487 C15.5048077,7.02884615 10.8189103,6.27083333 7.37339744,8.68269231 C6.13301282,9.57852564 5.23717949,10.75 4.75480769,12.1282051 L4.75480769,12.1282051 C4.75480769,12.1282051 4.75480769,12.1282051 4.75480769,12.1971154 C4.61698718,12.4727564 4.54807692,12.7483974 4.47916667,13.0929487 C3.30769231,17.2964744 0.137820513,35.0753205 22.6714744,48.8573718 C22.7403846,48.9262821 22.8092949,48.9262821 22.8782051,48.9951923 L22.8782051,48.9951923 L22.8782051,48.9951923 C25.4278846,50.5112179 28.6666667,50.4423077 31.1474359,48.5817308 C34.5240385,46.1009615 35.2820513,41.4150641 32.8701923,37.9695513 C31.974359,36.6602564 30.6650641,35.7644231 29.286859,35.2820513 L29.286859,35.2820513 C29.286859,35.2820513 17.6410256,29.9070513 18.6057692,18.3301282 L18.6057692,18.3301282 C19.8461538,15.849359 19.7083333,12.7483974 17.9855769,10.4054487 Z" id="Path" fill="url(#linearGradient-7)"></path>
                    <path d="M26.1169872,3.37660256 C23.6362179,5.55111512e-17 18.9503205,-0.758012821 15.5048077,1.65384615 C14.2644231,2.54967949 13.3685897,3.72115385 12.8862179,5.09935897 L12.8862179,5.09935897 C12.8862179,5.09935897 12.8862179,5.09935897 12.8862179,5.16826923 C12.7483974,5.44391026 12.6794872,5.71955128 12.6105769,6.06410256 C11.4391026,10.2676282 8.26923077,28.0464744 30.8028846,41.8285256 C30.8717949,41.8974359 30.9407051,41.8974359 31.0096154,41.9663462 L31.0096154,41.9663462 L31.0096154,41.9663462 C33.5592949,43.4823718 36.7980769,43.4134615 39.2788462,41.5528846 C42.6554487,39.0721154 43.4134615,34.3862179 40.9326923,30.9407051 C40.036859,29.6314103 38.7275641,28.7355769 37.349359,28.2532051 L37.349359,28.2532051 C37.349359,28.2532051 25.7035256,22.8782051 26.6682692,11.3012821 L26.6682692,11.3012821 C27.9775641,8.82051282 27.8397436,5.78846154 26.1169872,3.37660256 Z" id="Path" fill="#D1D1D1"></path>
                    <path d="M58.9182692,17.7788462 L58.9182692,17.7788462 C58.849359,17.5721154 58.7804487,17.3653846 58.7115385,17.1586538 C57.3333333,13.2307692 52.9919872,11.1634615 48.9951923,12.5416667 C45.0673077,13.9198718 43,18.2612179 44.3782051,22.1891026 C44.4471154,22.3958333 44.5160256,22.6025641 44.6538462,22.8092949 L44.6538462,22.8092949 C44.6538462,22.8092949 46.3076923,26.875 45.8253205,30.9407051 L45.8253205,30.9407051 C41.1394231,28.6666667 35.6266026,28.1842949 30.3894231,30.1137821 C19.9839744,33.8349359 14.5400641,45.2740385 18.2612179,55.6105769 C21.9823718,65.9471154 33.4214744,71.4599359 43.7580128,67.7387821 C49.6153846,65.6714744 53.8878205,61.1233974 55.8862179,55.6794872 L55.8862179,55.6794872 C55.9551282,55.7483974 67.7387821,34.3862179 58.9182692,17.7788462 Z" id="Path" fill="#D1D1D1"></path>
                </g>
                <path d="M53.75,76.4903846 C53.75,76.4903846 77.1794872,104.054487 132.307692,109.567308 L125.416667,128.862179 C125.416667,128.862179 82.6923077,124.727564 41.3461538,90.2724359 L53.75,76.4903846 Z" id="Path" fill="#D1D1D1"></path>
                <rect id="Rectangle" fill="#C1C1C1" x="161.25" y="95.7852564" width="19.9839744" height="22.0512821"></rect>
                <g id="Group" transform="translate(117.836538, 0.000000)">
                    <g transform="translate(0.000000, 14.471154)" id="Oval">
                        <circle fill="url(#linearGradient-8)" cx="87.9983974" cy="51.4759615" r="18.9503205"></circle>
                        <circle fill="url(#linearGradient-9)" cx="19.088141" cy="51.4759615" r="18.9503205"></circle>
                        <circle fill="#D1D1D1" cx="53.4054487" cy="44.4471154" r="44.4471154"></circle>
                    </g>
                    <g transform="translate(5.512821, 0.000000)" id="Path">
                        <path d="M5.30608974,71.7355769 C5.30608974,71.7355769 -10.8189103,24.7387821 14.2644231,20.3285256 C14.2644231,20.3285256 20.3285256,19.3637821 25.4278846,19.088141 C25.4278846,19.088141 30.5272436,-6.68429487 54.8525641,2.27403846 C79.1778846,11.3012821 79.1778846,15.1602564 87.6538462,8.82051282 C87.6538462,8.82051282 87.6538462,21.7067308 77.9375,22.9471154 C77.9375,22.9471154 103.365385,16.2628205 91.0304487,69.4615385 C91.0304487,69.4615385 69.9439103,72.0801282 65.3269231,91.3060897 C65.3269231,91.3060897 45.411859,95.1650641 32.525641,90.8237179 C32.525641,90.8237179 31.1474359,73.7339744 5.30608974,71.7355769 Z" fill="url(#linearGradient-10)"></path>
                        <path d="M5.30608974,71.7355769 C5.30608974,71.7355769 -10.8189103,24.7387821 14.2644231,20.3285256 C14.2644231,20.3285256 20.3285256,19.3637821 25.4278846,19.088141 C25.4278846,19.088141 30.5272436,-6.68429487 54.8525641,2.27403846 C79.1778846,11.3012821 79.1778846,15.1602564 87.6538462,8.82051282 C87.6538462,8.82051282 87.6538462,21.7067308 77.9375,22.9471154 C77.9375,22.9471154 103.365385,16.2628205 91.0304487,69.4615385 C91.0304487,69.4615385 69.9439103,72.0801282 65.3269231,91.3060897 C65.3269231,91.3060897 45.411859,95.1650641 32.525641,90.8237179 C32.525641,90.8237179 31.1474359,73.7339744 5.30608974,71.7355769 Z" fill="#FFFFFF" opacity="0.25"></path>
                    </g>
                </g>
                <g id="Group" transform="translate(274.262821, 26.875000)">
                    <path d="M48.099359,21.0176282 C50.5801282,17.6410256 55.2660256,16.8830128 58.7115385,19.2948718 C59.9519231,20.1907051 60.8477564,21.3621795 61.3301282,22.7403846 L61.3301282,22.7403846 C61.3301282,22.7403846 61.3301282,22.7403846 61.3301282,22.8092949 C61.4679487,23.0849359 61.536859,23.3605769 61.6057692,23.7051282 C62.7772436,27.9086538 65.9471154,45.6875 43.4134615,59.4695513 C43.3445513,59.5384615 43.275641,59.5384615 43.2067308,59.6073718 L43.2067308,59.6073718 L43.2067308,59.6073718 C40.6570513,61.1233974 37.4182692,61.0544872 34.8685897,59.1939103 C31.4919872,56.713141 30.7339744,52.0272436 33.2147436,48.5817308 C34.1105769,47.2724359 35.4198718,46.3766026 36.7980769,45.8942308 L36.7980769,45.8942308 C36.7980769,45.8942308 48.4439103,40.5192308 47.4791667,28.9423077 L47.4791667,28.9423077 C46.3076923,26.4615385 46.3766026,23.4294872 48.099359,21.0176282 Z" id="Path" fill="url(#linearGradient-11)"></path>
                    <path d="M44.6538462,10.6810897 C47.1346154,7.30448718 51.8205128,6.54647436 55.2660256,8.95833333 C56.5064103,9.85416667 57.4022436,11.025641 57.8846154,12.4038462 L57.8846154,12.4038462 C57.8846154,12.4038462 57.8846154,12.4038462 57.8846154,12.4727564 C58.0224359,12.7483974 58.0913462,13.0240385 58.1602564,13.3685897 C59.3317308,17.5721154 62.5016026,35.3509615 39.9679487,49.1330128 C39.8990385,49.2019231 39.8301282,49.2019231 39.7612179,49.2708333 L39.7612179,49.2708333 L39.7612179,49.2708333 C37.2115385,50.786859 33.9727564,50.7179487 31.4230769,48.8573718 C28.0464744,46.3766026 27.2884615,41.6907051 29.7692308,38.2451923 C30.6650641,36.9358974 31.974359,36.0400641 33.3525641,35.5576923 L33.3525641,35.5576923 C33.3525641,35.5576923 44.9983974,30.1826923 44.0336538,18.6057692 L44.0336538,18.6057692 C42.7932692,16.125 42.9310897,13.0929487 44.6538462,10.6810897 Z" id="Path" fill="url(#linearGradient-12)"></path>
                    <path d="M36.5913462,3.65224359 C39.0721154,0.275641026 43.7580128,-0.482371795 47.2035256,1.92948718 C48.4439103,2.82532051 49.3397436,3.99679487 49.8221154,5.375 L49.8221154,5.375 C49.8221154,5.375 49.8221154,5.375 49.8221154,5.44391026 C49.9599359,5.71955128 50.0288462,5.99519231 50.0977564,6.33974359 C51.2692308,10.5432692 54.4391026,28.3221154 31.9054487,42.1041667 C31.8365385,42.1730769 31.7676282,42.1730769 31.6987179,42.2419872 L31.6987179,42.2419872 L31.6987179,42.2419872 C29.1490385,43.7580128 25.9102564,43.6891026 23.3605769,41.8285256 C19.9839744,39.3477564 19.2259615,34.661859 21.7067308,31.2163462 C22.6025641,29.9070513 23.911859,29.0112179 25.2900641,28.5288462 L25.2900641,28.5288462 C25.2900641,28.5288462 36.9358974,23.1538462 35.9711538,11.5769231 L35.9711538,11.5769231 C34.7307692,9.09615385 34.8685897,6.06410256 36.5913462,3.65224359 Z" id="Path" fill="#D1D1D1"></path>
                    <path d="M3.72115385,18.1233974 L3.72115385,18.1233974 C3.7900641,17.9166667 3.85897436,17.7099359 3.92788462,17.5032051 C5.30608974,13.5753205 9.6474359,11.5080128 13.6442308,12.8862179 C17.5721154,14.2644231 19.6394231,18.6057692 18.2612179,22.5336538 C18.1923077,22.7403846 18.1233974,22.9471154 17.9855769,23.1538462 L17.9855769,23.1538462 C17.9855769,23.1538462 16.3317308,27.2195513 16.8141026,31.2852564 L16.8141026,31.2852564 C21.5,29.0112179 27.0128205,28.5288462 32.25,30.4583333 C42.6554487,34.1794872 48.099359,45.6185897 44.3782051,55.9551282 C40.6570513,66.2916667 29.2179487,71.8044872 18.8125,68.0833333 C12.9551282,66.0160256 8.68269231,61.4679487 6.68429487,56.0240385 L6.68429487,56.0240385 C6.75320513,56.0929487 -5.09935897,34.7307692 3.72115385,18.1233974 Z" id="Path" fill="#D1D1D1"></path>
                </g>
                <path d="M199.426282,209.831731 C204.043269,203.698718 206.730769,196.049679 206.730769,187.780449 C206.730769,167.451923 190.261218,150.913462 169.863782,150.913462 C149.466346,150.913462 132.996795,167.451923 132.996795,187.780449 C132.996795,194.326923 134.719551,200.528846 137.751603,205.834936 C117.905449,255.3125 120.592949,348.685897 120.592949,348.685897 L157.115385,348.685897 C148.983974,282.807692 160.836538,237.258013 164.833333,224.302885 C166.487179,224.509615 168.141026,224.647436 169.863782,224.647436 C171.379808,224.647436 172.895833,224.509615 174.342949,224.371795 C188.331731,273.504808 180.544872,348.685897 180.544872,348.685897 L213.621795,348.685897 C216.998397,282.945513 204.112179,227.472756 199.426282,209.831731 Z" id="Path" fill="url(#linearGradient-13)"></path>
                <path d="M283.152244,76.7660256 C283.152244,76.7660256 259.722756,104.330128 204.594551,109.842949 L211.485577,129.137821 C211.485577,129.137821 254.209936,125.003205 295.55609,90.5480769 L283.152244,76.7660256 Z" id="Path" fill="#D1D1D1"></path>
                <path d="M202.596154,135.064103 L219.272436,131.411859 L213.346154,105.915064 L198.80609,109.291667 L198.80609,109.222756 C191.915064,110.600962 181.578526,107.844551 181.578526,107.844551 C169.174679,112.668269 160.216346,106.466346 160.216346,106.466346 C152.636218,111.290064 138.509615,108.878205 138.509615,108.878205 L138.509615,108.878205 L125.692308,105.915064 L119.766026,131.411859 L137.13141,135.753205 L126.794872,202.596154 C164.00641,219.134615 210.865385,205.352564 210.865385,205.352564 L202.596154,135.064103 L202.596154,135.064103 Z" id="Path" fill="#F4F4F4"></path>
            </g>
            <path d="M716.091195,659.390329 C730.573145,677.083073 753.179115,686.308576 776.256042,681.379883 C796.507224,677.083073 812.637525,662.802501 820.997025,644.225119 C834.772538,654.967143 852.66893,659.769459 870.683063,655.978157 C898.587307,650.03845 918.60301,625.268607 921.428756,596.328333 C928.610861,598.982244 936.381663,599.614128 944.387944,597.97123 C968.406787,592.91616 983.948392,567.893565 979.121075,542.112708 C974.293759,516.331852 951.099091,499.650122 927.080248,504.831568 C922.135192,505.842582 917.425615,507.86461 913.304735,510.392145 C913.775693,506.853596 913.657954,503.188671 912.951517,499.397368 C909.537074,480.946363 892.818075,468.940572 875.628119,472.605498 C871.389499,473.490135 867.621838,475.25941 864.207394,477.660568 C852.433452,437.599139 814.285877,412.576544 775.078648,421.043786 C767.307846,422.686683 760.008001,425.593349 753.414593,429.384651 C754.12103,425.214218 754.12103,420.791032 753.414593,416.367846 C750.00015,397.916841 733.281151,385.91105 716.091195,389.575976 C704.317252,392.103511 695.369056,401.329013 691.954613,412.829297 C686.067641,402.087274 676.413008,394.378292 665.227763,391.218874 C674.175959,376.811925 677.943621,358.613673 674.529177,340.289045 C667.700291,303.387035 634.262293,279.375453 599.882381,286.705305 C584.458516,289.9911 571.389439,299.090226 562.323503,311.475147 C545.722244,283.166756 513.932599,267.243286 481.554257,274.194007 C439.521281,283.166756 412.205734,327.019487 420.565233,372.135985 C421.15393,375.295404 421.860367,378.328445 422.802282,381.235111 C406.90746,371.251348 387.833673,367.207292 368.406667,371.377724 C360.635865,373.020622 353.45376,375.800911 346.860352,379.592213 C353.218281,364.427003 355.337591,346.987012 352.040887,329.420645 C343.681387,284.304146 302.825806,254.984741 260.792831,263.95749 C250.549501,266.105895 241.248086,270.402704 233.124065,276.216035 L233.124065,276.089658 C228.649967,251.698946 212.519666,232.995187 192.268484,225.159829 C199.450589,217.324471 202.982772,206.076941 200.863462,194.45028 C197.449019,175.999275 180.73002,163.993484 163.540064,167.65841 C146.350108,171.323335 135.164862,189.268833 138.579306,207.719838 C139.874439,214.923313 143.288883,221.115773 147.88072,225.791713 C119.740997,237.54475 102.551041,269.644444 108.673491,302.628775 C111.499237,317.920361 118.916821,331.063542 129.160151,340.541798 C90.6593588,366.701785 69.2307831,416.494223 78.6499372,467.297675 C85.5965634,504.452438 107.496097,534.403727 136.459996,550.959081 C136.342256,550.959081 136.342256,551.085457 136.224517,551.085457 L136.224517,550.959081 L80.4160287,562.838495 C74.7645362,562.332988 68.8775648,562.712118 62.9905935,563.975886 C57.1036221,565.239653 51.569869,567.261681 46.5070737,570.041969 L0,579.899356 L21.781794,697.682483 L44.2700246,692.880167 C57.2213615,700.589148 72.6452265,703.62219 88.3045703,700.210018 C103.963914,696.924222 117.15073,687.825097 126.334405,675.313799 L134.458426,673.544524 C147.409763,681.253506 162.833628,684.286548 178.375232,680.874376 C184.026724,679.610608 189.324999,677.714957 194.270055,675.187422 C205.808518,692.627413 224.646827,703.495813 245.015748,703.874943 C256.083254,733.952609 285.871329,752.15086 316.48358,745.705646 C337.205719,741.28246 353.571499,726.496381 361.813259,707.413492 C373.704941,713.479576 387.480454,715.627981 401.373707,712.721316 C412.676692,710.320158 422.802282,704.759581 430.808563,697.050599 C441.051894,700.841902 452.237139,701.852916 463.657864,699.325381 C478.022074,696.292339 490.384714,688.204227 499.215171,677.083073 C513.579381,695.786832 536.891787,705.644218 560.675151,700.589148 C579.866678,696.545092 595.290543,683.528287 604.003261,666.34105 C617.425555,690.352632 643.799187,703.874943 670.879255,698.18799 C691.483655,694.143934 707.967175,678.978724 716.091195,659.390329 Z M311,491 C311.652174,490.294118 312.304348,489.705882 312.956522,489 C313.347826,489.705882 313.608696,490.411765 314,491 C313.086957,491 312.043478,491 311,491 Z M631,477.4 C629.631579,477.52 628.368421,477.76 627,478 C627.315789,477.04 627.631579,475.96 627.842105,475 C628.894737,475.84 629.947368,476.68 631,477.4 Z" id="Shape" fill="url(#linearGradient-14)"></path>
            <path d="M1219.36752,40.042735 C1219.36752,40.042735 1236.82479,55.6623932 1238.66239,74.957265 C1238.66239,74.957265 1266.2265,59.3376068 1281.84615,68.525641 C1281.84615,68.525641 1268.98291,58.4188034 1242.33761,67.6068376 C1242.33761,67.6068376 1237.74359,54.7435897 1219.36752,40.042735 Z" id="Path" fill="#444444" fill-rule="nonzero" opacity="0.2"></path>
            <path d="M1765.50427,114.098291 C1765.50427,114.098291 1788.84188,115.935897 1802.07265,130.08547 C1802.07265,130.08547 1814.4765,100.959402 1832.48504,98.7542297 C1832.48504,98.7542297 1816.13034,98.5705128 1800.51068,122 C1800.51068,122 1789.11752,114.557692 1765.50427,114.098291 Z" id="Path" fill="#444444" fill-rule="nonzero" opacity="0.2"></path>
            <path d="M1689.15171,87.9123932 C1689.15171,87.9123932 1705.41453,93.0576923 1712.39744,105.277778 C1712.39744,105.277778 1725.99573,86.6260684 1739.13462,88.0961538 C1739.13462,88.0961538 1727.55769,85.2478632 1712.67308,99.3055556 C1712.5812,99.3055556 1705.69017,92.1388889 1689.15171,87.9123932 Z" id="Path" fill="#444444" fill-rule="nonzero" opacity="0.2"></path>
            <path d="M1316.6688,47.3012821 C1316.6688,47.3012821 1332.01282,54.8354701 1337.06624,67.974359 C1337.06624,67.974359 1353.32906,51.6196581 1366.10043,54.9273504 C1366.10043,54.9273504 1355.07479,50.4252137 1338.26068,62.0940171 C1338.26068,62.0940171 1332.47222,54.008547 1316.6688,47.3012821 Z" id="Path" fill="#444444" fill-rule="nonzero" opacity="0.2"></path>
            <path d="M1327.32692,93.4252137 C1327.32692,93.4252137 1337.89316,95.8141026 1342.94658,103.16453 C1342.94658,103.16453 1350.57265,90.6688034 1358.93376,90.8525641 C1358.93376,90.8525641 1351.49145,89.6581197 1342.76282,99.3974359 C1342.76282,99.3974359 1337.98504,95.1709402 1327.32692,93.4252137 Z" id="Path" fill="#444444" fill-rule="nonzero" opacity="0.2"></path>
            <path d="M1577.33333,0.166666667 C1577.33333,0.166666667 1582.38675,6.69017094 1581.83547,13.4893162 C1581.83547,13.4893162 1592.30983,9.72222222 1597.17949,13.9487179 C1597.17949,13.9487179 1593.32051,9.63034188 1583.5812,11.1923077 C1583.5812,11.1004274 1582.75427,6.32264957 1577.33333,0.166666667 Z" id="Path" fill="#444444" fill-rule="nonzero" opacity="0.2"></path>
            <path d="M1549.95299,11.5598291 C1549.95299,11.5598291 1556.29274,14.6837607 1558.40598,20.1047009 C1558.40598,20.1047009 1565.11325,13.3974359 1570.35043,14.775641 C1570.35043,14.775641 1565.84829,12.8461538 1558.86538,17.715812 C1558.86538,17.715812 1556.4765,14.3162393 1549.95299,11.5598291 Z" id="Path" fill="#444444" fill-rule="nonzero" opacity="0.2"></path>
            <path d="M1595.89316,23.5042735 C1595.89316,23.5042735 1601.13034,26.0769231 1602.78419,30.4871795 C1602.78419,30.4871795 1608.29701,24.8824786 1612.61538,26.0769231 C1612.61538,26.0769231 1608.84829,24.5149573 1603.15171,28.465812 C1603.24359,28.5576923 1601.3141,25.8012821 1595.89316,23.5042735 Z" id="Path" fill="#444444" fill-rule="nonzero" opacity="0.2"></path>
            <path d="M2385.05061,378.420976 C2395.66772,372.288113 2402.8557,360.74778 2402.8557,347.624772 C2402.8557,336.018494 2397.31634,325.731111 2388.74352,319.268524 C2395.79961,312.739993 2400.15196,303.507726 2400.15196,293.154398 C2400.15196,277.195766 2389.66675,263.67709 2375.1589,259.192846 C2377.26913,255.565884 2378.52208,251.279474 2378.52208,246.795231 C2378.52208,233.07872 2367.44336,222 2353.72685,222 C2340.01034,222 2328.93162,233.07872 2328.93162,246.795231 C2328.93162,249.630855 2329.39324,252.400535 2330.31646,254.906436 C2328.53595,254.312933 2326.62356,253.98321 2324.64521,253.98321 C2314.81944,253.98321 2306.84013,261.962526 2306.84013,271.788295 C2306.84013,274.162307 2307.30174,276.470374 2308.15902,278.580606 C2286.39725,280.954617 2269.44945,299.419151 2269.44945,321.774425 C2269.44945,326.192724 2270.10889,330.479134 2271.36184,334.567709 C2269.31756,333.710427 2267.07543,333.314758 2264.70142,333.314758 C2254.87565,333.314758 2246.89634,341.294075 2246.89634,351.119844 C2246.89634,357.84621 2250.65519,363.715294 2256.19455,366.748753 C2250.06169,368.92493 2245.04988,373.409174 2242.21426,379.212313 C2235.75167,372.881616 2226.91507,368.92493 2217.15525,368.92493 C2197.50371,368.92493 2181.54508,384.883562 2181.54508,404.535102 C2181.54508,413.3717 2184.77637,421.416961 2190.1179,427.681713 C2173.7636,433.946466 2162.22326,449.773208 2162.22326,468.303687 C2162.22326,492.30758 2181.67697,511.761285 2205.68086,511.761285 C2207.32948,511.761285 2208.9781,511.69534 2210.56077,511.497506 C2203.70252,519.147098 2199.548,529.302592 2199.548,540.381312 C2199.548,544.799611 2200.20745,549.08602 2201.4604,553.108651 C2194.33836,548.096849 2185.6996,545.129334 2176.40139,545.129334 C2152.39749,545.129334 2132.94379,564.583039 2132.94379,588.586933 C2132.94379,594.390072 2134.06485,599.929432 2136.17508,605.007178 L2136.10914,605.007178 C2123.11802,605.007178 2111.84146,611.931379 2105.57671,622.284706 C2102.41136,617.536683 2096.93795,614.437279 2090.80509,614.437279 C2080.97932,614.437279 2073,622.416596 2073,632.242365 C2073,642.068135 2080.97932,650.047451 2090.80509,650.047451 C2094.62988,650.047451 2098.12495,648.860445 2101.02652,646.816158 C2103.99404,663.500183 2118.50189,676.161577 2136.04319,676.161577 C2144.22034,676.161577 2151.73805,673.391897 2157.73902,668.775763 C2166.97129,692.581823 2190.05195,709.463682 2217.08931,709.463682 C2236.87273,709.463682 2254.54593,700.429249 2266.21815,686.251125 C2266.21815,686.31707 2266.21815,686.31707 2266.2841,686.383015 L2266.21815,686.383015 L2266.21815,718.234335 L2266.21815,764 L2328.86568,764 L2328.86568,751.140771 C2334.2072,744.810074 2337.4385,736.632924 2337.4385,727.730381 C2337.4385,718.827838 2334.2072,710.650687 2328.86568,704.31999 L2328.86568,699.703857 C2334.2072,693.37316 2337.4385,685.196009 2337.4385,676.293466 C2337.4385,673.062173 2337.04283,669.962769 2336.25149,666.995255 C2346.40698,662.445066 2354.05658,653.2128 2356.43059,642.068135 C2373.04867,639.034676 2385.64412,624.526828 2385.64412,607.051466 C2385.64412,595.181409 2379.84098,584.762137 2370.93844,578.233605 C2375.35673,572.298576 2377.92858,564.978708 2377.92858,556.999392 C2377.92858,550.536805 2376.21402,544.469887 2373.18056,539.194306 C2376.21402,533.98467 2377.92858,527.851807 2377.92858,521.38922 C2377.92858,513.146125 2375.1589,505.628422 2370.47682,499.561504 C2381.62149,493.56053 2389.20513,481.756418 2389.20513,468.237742 C2389.20513,457.290911 2384.25928,447.465142 2376.41185,440.93661 C2390.12836,435.990753 2400.02008,422.867745 2400.02008,407.436671 C2400.15196,395.500669 2394.15099,384.883562 2385.05061,378.420976 Z" id="Path" fill="url(#linearGradient-15)"></path>
        </g>
    </g>
</svg>