<svg xmlns="http://www.w3.org/2000/svg" viewBox="0 0 130 24">
  <g fill-rule="nonzero" fill="none">
    <path
      d="M55.91 21.706v-1.674a.615.615 0 00-.614-.615h-7.284a.308.308 0 01-.308-.308v-6.227c0-.17.138-.308.308-.308h7.045c.34 0 .615-.275.615-.615v-1.673a.615.615 0 00-.615-.616h-7.045a.308.308 0 01-.308-.308V5.058c0-.17.138-.308.308-.308h7.284c.34 0 .615-.275.615-.615V2.462a.615.615 0 00-.615-.616H45.23a.615.615 0 00-.616.616v19.244c0 .34.276.615.616.615h10.065c.34 0 .615-.275.615-.615zm6.33 0V12.19h1.262c.34 0 .615-.276.615-.616V10.02a.615.615 0 00-.615-.615H62.24V5.286a.615.615 0 00-.615-.615h-1.752a.615.615 0 00-.616.615v4.119h-1.272a.615.615 0 00-.616.615v1.554c0 .34.276.616.616.616h1.272v9.516c0 .34.276.615.616.615h1.752c.34 0 .615-.275.615-.615zm6.412 0v-5.63c0-1.592.207-2.407.623-3.061.424-.646 1.157-1.276 2.2-1.276.814 0 1.404.232 1.77.696.367.464.55 1.213.55 2.248v7.023c0 .34.276.615.616.615h1.752c.34 0 .615-.275.615-.615v-7.302c0-1.803-.37-3.116-1.113-3.938-.875-.946-2.042-1.42-3.5-1.42-1.282 0-2.453.478-3.513 1.433V5.286a.615.615 0 00-.616-.615h-1.752a.615.615 0 00-.615.615v16.42c0 .34.275.615.615.615h1.752c.34 0 .616-.275.616-.615zm15.914.987c.671 0 1.295-.071 1.869-.213a5.581 5.581 0 001.604-.67 6.556 6.556 0 001.392-1.166 8.702 8.702 0 00.882-1.148.615.615 0 00-.216-.873l-1.46-.815a.615.615 0 00-.806.186c-.233.336-.413.58-.54.733-.276.334-.535.59-.776.77-.487.353-1.1.53-1.843.53-.955 0-1.737-.31-2.347-.928a3.396 3.396 0 01-.66-.973c-.113-.25-.218-.65-.315-1.199a.308.308 0 01.303-.361h8.288a.615.615 0 00.615-.604l.002-.099c0-2.13-.548-3.797-1.644-5-1.105-1.21-2.607-1.816-4.507-1.816-1.883 0-3.394.623-4.535 1.87-1.13 1.264-1.697 2.917-1.697 4.96 0 2.06.584 3.712 1.75 4.959 1.167 1.238 2.714 1.857 4.64 1.857zm-2.941-8.98a3.225 3.225 0 01.29-.581c.185-.292.408-.542.669-.75.26-.208.55-.367.868-.477a3.09 3.09 0 011.02-.166c1.394 0 2.336.61 2.828 1.829.016.041.035.091.055.15a.308.308 0 01-.291.408h-5.15a.308.308 0 01-.29-.414zm13.393 7.993v-6.082c0-2.457.813-3.686 2.44-3.686a2.421 2.421 0 011.115.284.615.615 0 00.838-.268l.8-1.601a.615.615 0 00-.276-.826 4.514 4.514 0 00-.252-.118c-.573-.241-1.13-.362-1.67-.362-.591 0-1.104.11-1.537.331-.424.213-.91.606-1.458 1.18v-.538a.615.615 0 00-.616-.615H92.65a.615.615 0 00-.615.615v11.686c0 .34.275.615.615.615h1.752c.34 0 .616-.275.616-.615zm9.73 0v-5.617c0-1.61.204-2.429.61-3.074.416-.655 1.119-1.29 2.109-1.29.91 0 1.538.248 1.882.743.354.486.53 1.366.53 2.64v6.598c0 .34.276.615.616.615h1.765c.34 0 .616-.275.616-.615v-7.302c0-1.82-.363-3.134-1.087-3.938-.84-.946-2.011-1.42-3.514-1.42-1.308 0-2.483.518-3.526 1.552v-.578a.615.615 0 00-.616-.615h-1.765a.615.615 0 00-.615.615v11.686c0 .34.275.615.615.615h1.765c.34 0 .616-.275.616-.615zm15.984.987c1.414 0 2.736-.575 3.964-1.724v.737c0 .34.276.615.615.615h1.766c.34 0 .615-.275.615-.615V10.02a.615.615 0 00-.615-.615h-1.766a.615.615 0 00-.615.615v.883c-1.193-1.237-2.541-1.856-4.044-1.856-1.74 0-3.19.645-4.348 1.936-1.158 1.29-1.737 2.904-1.737 4.84 0 1.972.58 3.616 1.737 4.933 1.167 1.291 2.643 1.937 4.428 1.937zm.143-2.666c-1.034 0-1.891-.393-2.572-1.18-.663-.778-.994-1.786-.994-3.024 0-1.158.34-2.13 1.02-2.917.69-.778 1.547-1.167 2.573-1.167 1.087 0 1.97.384 2.651 1.154.68.786 1.021 1.785 1.021 2.997 0 1.21-.34 2.21-1.02 2.997-.681.76-1.574 1.14-2.679 1.14zM30.321.615v4.257l-7.024 7.024a.301.301 0 00-.025.398l.025.028 7.024 7.024v4.257l-9.286-9.286-9.106 9.106a.615.615 0 01-.831.036l-.04-.036L.18 12.544a.615.615 0 01-.036-.83l.036-.04L11.06.796A.615.615 0 0111.89.76l.04.036 9.105 9.106L30.321.615zm.923 0l11.068 11.069a.602.602 0 01.035.813l-.035.038-11.068 11.068v-4.257l7.024-7.024a.301.301 0 00.025-.397l-.025-.029-7.024-7.024V.615zM11.712 4.93a.308.308 0 00-.407-.025l-.029.025-6.962 6.963a.308.308 0 00-.025.406l.025.029 6.962 6.962c.111.111.286.12.407.026l.029-.026 6.962-6.962c.11-.111.12-.286.025-.406l-.025-.03-6.962-6.962z"
      fill="#000" />
    <path d="M37.073 12.337l-5.83 5.83V6.153l5.83 5.83a.25.25 0 010 .353z" fill="#37C4A5" />
  </g>
</svg>
