<svg width="130px" height="24px" viewBox="0 0 130 24" version="1.1" xmlns="http://www.w3.org/2000/svg">
    <g stroke="none" stroke-width="1" fill="none" fill-rule="evenodd">
        <g transform="translate(-0.000000, 0.615385)" fill-rule="nonzero">
            <path d="M55.9109161,21.0904529 L55.9109161,19.4170512 C55.9109161,19.0771837 55.635399,18.8016666 55.2955315,18.8016666 L48.0121131,18.8016666 C47.8421794,18.8016666 47.7044208,18.6639081 47.7044208,18.4939743 L47.7044208,12.2666547 C47.7044208,12.096721 47.8421794,11.9589624 48.0121131,11.9589624 L55.0568935,11.9589624 C55.396761,11.9589624 55.6722781,11.6834453 55.6722781,11.3435778 L55.6722781,9.67017607 C55.6722781,9.33030853 55.396761,9.05479145 55.0568935,9.05479145 L48.0121131,9.05479145 C47.8421794,9.05479145 47.7044208,8.91703291 47.7044208,8.74709914 L47.7044208,4.4426325 C47.7044208,4.27269873 47.8421794,4.13494019 48.0121131,4.13494019 L55.2955315,4.13494019 C55.635399,4.13494019 55.9109161,3.85942311 55.9109161,3.51955558 L55.9109161,1.84615385 C55.9109161,1.50628631 55.635399,1.23076923 55.2955315,1.23076923 L45.2307692,1.23076923 C44.8909017,1.23076923 44.6153846,1.50628631 44.6153846,1.84615385 L44.6153846,21.0904529 C44.6153846,21.4303205 44.8909017,21.7058376 45.2307692,21.7058376 L55.2955315,21.7058376 C55.635399,21.7058376 55.9109161,21.4303205 55.9109161,21.0904529 Z M62.2403548,21.0904529 L62.2403548,11.5743918 L62.2403548,11.5743918 L63.5015385,11.5743918 C63.841406,11.5743918 64.1169231,11.2988748 64.1169231,10.9590072 L64.1169231,9.40495498 C64.1169231,9.06508744 63.841406,8.78957036 63.5015385,8.78957036 L62.2403548,8.78957036 L62.2403548,8.78957036 L62.2403548,4.67075848 C62.2403548,4.33089094 61.9648377,4.05537386 61.6249702,4.05537386 L59.8727646,4.05537386 C59.532897,4.05537386 59.2573799,4.33089094 59.2573799,4.67075848 L59.2573799,8.78957036 L59.2573799,8.78957036 L57.984644,8.78957036 C57.6447765,8.78957036 57.3692594,9.06508744 57.3692594,9.40495498 L57.3692594,10.9590072 C57.3692594,11.2988748 57.6447765,11.5743918 57.984644,11.5743918 L59.2573799,11.5743918 L59.2573799,11.5743918 L59.2573799,21.0904529 C59.2573799,21.4303205 59.532897,21.7058376 59.8727646,21.7058376 L61.6249702,21.7058376 C61.9648377,21.7058376 62.2403548,21.4303205 62.2403548,21.0904529 Z M68.6515332,21.0904529 L68.6515332,15.4598808 L68.6515332,15.4598808 C68.6515332,13.8685543 68.8592367,13.0534773 69.2746435,12.3992653 C69.6988888,11.7538939 70.4324797,11.123516 71.4754161,11.123516 C72.2885529,11.123516 72.8785191,11.3555844 73.2453145,11.8197213 C73.6121099,12.2838583 73.7955077,13.0331078 73.7955077,14.0674701 L73.7955077,21.0904529 C73.7955077,21.4303205 74.0710247,21.7058376 74.4108923,21.7058376 L76.1630979,21.7058376 C76.5029654,21.7058376 76.7784825,21.4303205 76.7784825,21.0904529 L76.7784825,13.7889879 L76.7784825,13.7889879 C76.7784825,11.9854845 76.4072679,10.6726401 75.6648386,9.85045473 C74.7898326,8.9044995 73.623158,8.43152189 72.1648147,8.43152189 C70.8832403,8.43152189 69.7121465,8.90891985 68.6515332,9.86371578 L68.6515332,4.67099324 C68.6515332,4.3311257 68.3760161,4.05560862 68.0361486,4.05560862 L66.283943,4.05560862 C65.9440754,4.05560862 65.6685583,4.3311257 65.6685583,4.67099324 L65.6685583,21.0904529 C65.6685583,21.4303205 65.9440754,21.7058376 66.283943,21.7058376 L68.0361486,21.7058376 C68.3760161,21.7058376 68.6515332,21.4303205 68.6515332,21.0904529 Z M84.5656922,22.0771471 C85.237414,22.0771471 85.8605243,22.0064215 86.4350231,21.8649702 C87.009522,21.723519 87.5442479,21.5002912 88.0392007,21.1952869 C88.5341536,20.8902827 88.9981719,20.5012918 89.4312557,20.0283141 C89.639264,19.801145 89.8421751,19.5520522 90.0399889,19.2810357 C90.1134955,19.1803274 90.204351,19.0468691 90.3125555,18.8806606 C90.4979467,18.5958306 90.4173712,18.2146334 90.1325585,18.0292157 C90.1208516,18.0215943 90.1088886,18.0143737 90.0966902,18.0075666 L88.6361798,17.1925473 C88.3597449,17.0382598 88.0113599,17.1188921 87.8308032,17.3789308 C87.5979286,17.714318 87.4180747,17.9586853 87.2912415,18.1120325 C87.0153271,18.4456261 86.7564363,18.7020262 86.5145691,18.8812329 C86.0284547,19.234861 85.4141828,19.4116751 84.6717535,19.4116751 C83.7172016,19.4116751 82.9349993,19.1022505 82.3251466,18.4834013 C82.0521698,18.2024403 81.832318,17.8780829 81.6655912,17.510329 C81.5520213,17.2598247 81.4468983,16.8603122 81.3502224,16.3117914 C81.3205621,16.1443807 81.4323736,15.9847232 81.5998107,15.9552126 C81.617452,15.9521034 81.635331,15.9505399 81.6532442,15.9505399 L89.9410136,15.9505399 C90.2763572,15.9505399 90.5499643,15.6820452 90.5562888,15.3467612 L90.5581573,15.247704 L90.5581573,15.247704 C90.5581573,13.1170945 90.0101737,11.450622 88.9142067,10.2482864 C87.8094012,9.03711005 86.3068657,8.43152189 84.4066002,8.43152189 C82.5240116,8.43152189 81.0126377,9.05479145 79.8724784,10.3013306 C78.7411576,11.5655511 78.1754972,13.2187626 78.1754972,15.260965 C78.1754972,17.3208488 78.7588345,18.9740603 79.9255091,20.2205994 C81.0921837,21.4582979 82.6389114,22.0771471 84.5656922,22.0771471 Z M81.6245803,13.097076 C81.6422398,13.048817 81.6586576,13.0070756 81.6738338,12.971852 C81.7434011,12.8103875 81.8235095,12.6584124 81.914159,12.5159267 C82.0997663,12.2241835 82.322937,11.9744336 82.5836711,11.7666771 C82.8444052,11.5589206 83.1338643,11.3997879 83.4520483,11.2892792 C83.7702322,11.1787704 84.1105123,11.123516 84.4728885,11.123516 C85.8655057,11.123516 86.8077582,11.7331878 87.299646,12.9525315 C87.3162873,12.9937836 87.334734,13.0439564 87.3549862,13.10305 C87.410089,13.2638069 87.3244306,13.4387914 87.1636709,13.4938861 C87.1315626,13.5048901 87.0978548,13.5105058 87.0639132,13.5105058 L81.9135347,13.5105058 C81.7436005,13.5105066 81.6058416,13.3727477 81.6058416,13.2028135 C81.6058416,13.1667418 81.6121844,13.130951 81.6245803,13.097076 Z M95.0176928,21.0904529 L95.0176928,15.009005 L95.0176928,15.009005 C95.0176928,12.5512895 95.8308296,11.3224318 97.4571033,11.3224318 C97.7720455,11.3224318 98.0915115,11.3918167 98.4155016,11.5305864 C98.4610498,11.5500954 98.5135454,11.5755794 98.5729884,11.6070384 C98.8733823,11.7660452 99.2457915,11.6513998 99.4047753,11.3509937 C99.4070026,11.3467851 99.409181,11.3425508 99.41131,11.3382917 L100.211603,9.73729603 C100.36353,9.43329519 100.240284,9.06368147 99.9362966,8.91172682 C99.9360265,8.91159177 99.9357562,8.91145692 99.9354858,8.91132226 C99.8368424,8.86219459 99.7526603,8.82294572 99.6829395,8.79357567 C99.1099596,8.55220648 98.5536215,8.43152189 98.0139253,8.43152189 C97.4217496,8.43152189 96.9091198,8.54203067 96.4760361,8.76304825 C96.0517907,8.97522512 95.5656763,9.36863641 95.0176928,9.94328211 L95.0176928,9.40495498 C95.0176928,9.06508744 94.7421757,8.78957036 94.4023082,8.78957036 L92.6501025,8.78957036 C92.310235,8.78957036 92.0347179,9.06508744 92.0347179,9.40495498 L92.0347179,21.0904529 C92.0347179,21.4303205 92.310235,21.7058376 92.6501025,21.7058376 L94.4023082,21.7058376 C94.7421757,21.7058376 95.0176928,21.4303205 95.0176928,21.0904529 Z M104.74882,21.0904529 L104.74882,15.4731419 L104.74882,15.4731419 C104.74882,13.8641339 104.952104,13.0446366 105.358672,12.3992653 C105.774079,11.7450532 106.476735,11.1102549 107.466641,11.1102549 C108.377001,11.1102549 109.00453,11.3577946 109.34923,11.852874 C109.702768,12.3391126 109.879536,13.2187626 109.879536,14.4918238 L109.879536,21.0904529 C109.879536,21.4303205 110.155054,21.7058376 110.494921,21.7058376 L112.260384,21.7058376 C112.600252,21.7058376 112.875769,21.4303205 112.875769,21.0904529 L112.875769,13.7889879 L112.875769,13.7889879 C112.875769,11.9678031 112.513393,10.6549587 111.78864,9.85045473 C110.948988,8.9044995 109.777894,8.43152189 108.275359,8.43152189 C106.967269,8.43152189 105.791756,8.94870302 104.74882,9.98306527 L104.74882,9.40495498 C104.74882,9.06508744 104.473303,8.78957036 104.133435,8.78957036 L102.367972,8.78957036 C102.028104,8.78957036 101.752587,9.06508744 101.752587,9.40495498 L101.752587,21.0904529 C101.752587,21.4303205 102.028104,21.7058376 102.367972,21.7058376 L104.133435,21.7058376 C104.473303,21.7058376 104.74882,21.4303205 104.74882,21.0904529 Z M120.732033,22.0771471 C122.146184,22.0771471 123.467531,21.5025014 124.696075,20.35321 L124.696075,21.0904529 C124.696075,21.4303205 124.971592,21.7058376 125.31146,21.7058376 L127.076923,21.7058376 C127.416791,21.7058376 127.692308,21.4303205 127.692308,21.0904529 L127.692308,9.40495498 C127.692308,9.06508744 127.416791,8.78957036 127.076923,8.78957036 L125.31146,8.78957036 C124.971592,8.78957036 124.696075,9.06508744 124.696075,9.40495498 L124.696075,10.2880695 L124.696075,10.2880695 C123.502885,9.0503711 122.155022,8.43152189 120.652487,8.43152189 C118.911314,8.43152189 117.461809,9.07689321 116.303973,10.3676359 C115.146136,11.6583785 114.567218,13.2718068 114.567218,15.2079208 C114.567218,17.1793976 115.146136,18.8237683 116.303973,20.1410331 C117.470647,21.4317758 118.946667,22.0771471 120.732033,22.0771471 Z M120.875101,19.4116751 C119.841003,19.4116751 118.983674,19.0182638 118.303114,18.2314412 C117.640231,17.4534594 117.308789,16.4456192 117.308789,15.2079208 C117.308789,14.0497887 117.649069,13.0773114 118.329629,12.2904888 C119.019028,11.5125069 119.876357,11.123516 120.901617,11.123516 C121.988745,11.123516 122.87259,11.5080866 123.55315,12.2772277 C124.23371,13.0640503 124.57399,14.0630497 124.57399,15.2742261 C124.57399,16.4854024 124.23371,17.4844018 123.55315,18.2712244 C122.87259,19.0315249 121.979907,19.4116751 120.875101,19.4116751 Z" fill="#000000"></path>
            <path d="M30.3214011,1.42108547e-14 L30.3214011,4.25698006 L23.297384,11.2809972 C23.1888733,11.3895079 23.1805263,11.5602523 23.2723431,11.6783374 L23.297384,11.7066952 L30.3214011,18.7307123 L30.3214011,22.987901 L21.0350769,13.7012308 L11.9290931,22.807659 C11.701419,23.0353331 11.3397316,23.0473159 11.0979509,22.8436075 L11.0588078,22.807659 L0.180241981,11.9290931 C-0.0474321002,11.701419 -0.0594149466,11.3397316 0.144293442,11.0979509 L0.180241981,11.0588078 L11.0588078,0.180241981 C11.2864819,-0.0474321002 11.6481694,-0.0594149466 11.8899501,0.144293442 L11.9290931,0.180241981 L21.0350769,9.28615385 L30.3214011,1.42108547e-14 Z M31.2435609,3.90798505e-14 L42.311709,11.0681481 C42.5344415,11.2908806 42.5461643,11.6447178 42.3468773,11.8812507 L42.311709,11.9195442 L31.2435609,22.9876923 L31.2435609,18.7307123 L38.267578,11.7066952 C38.3760887,11.5981845 38.3844357,11.42744 38.2926189,11.3093549 L38.267578,11.2809972 L31.2435609,4.25698006 L31.2435609,3.90798505e-14 Z M11.7115218,4.31409701 C11.6006037,4.20317887 11.426071,4.1946467 11.305366,4.28850051 L11.2763792,4.31409701 L4.31409701,11.2763792 C4.20317887,11.3872973 4.1946467,11.5618299 4.28850051,11.6825349 L4.31409701,11.7115218 L11.2763792,18.673804 C11.3872973,18.7847221 11.5618299,18.7932543 11.6825349,18.6994004 L11.7115218,18.673804 L18.673804,11.7115218 C18.7847221,11.6006037 18.7932543,11.426071 18.6994004,11.305366 L18.673804,11.2763792 L11.7115218,4.31409701 Z" fill="#000000"></path>
            <path d="M37.0730631,11.721267 L31.2435609,17.5507692 L31.2435609,5.53846154 L37.0730631,11.3679638 C37.1706251,11.4655258 37.1706251,11.623705 37.0730631,11.721267 Z" fill="#37C4A5"></path>
        </g>
    </g>
</svg>