<svg xmlns="http://www.w3.org/2000/svg" viewBox="0 0 134 134">
  <path
    d="M77.2 54c1.988 0 3.6 1.587 3.6 3.545 0 .153-.01.304-.029.451l5.668 5.586c.306-.083.628-.127.961-.127 1.988 0 3.6 1.587 3.6 3.545s-1.612 3.545-3.6 3.545c-.332 0-.653-.044-.959-.127l-5.67 5.586c.02.147.029.298.029.45 0 1.959-1.612 3.546-3.6 3.546s-3.6-1.587-3.6-3.545c0-.143.008-.283.025-.42l-6.644-6.546L60.37 76c.02.149.029.3.029.454 0 1.958-1.612 3.545-3.6 3.545s-3.6-1.587-3.6-3.545c0-.143.008-.283.025-.42l-5.695-5.609c-.297.078-.608.12-.93.12-1.988 0-3.6-1.588-3.6-3.546 0-1.958 1.612-3.545 3.6-3.545.322 0 .635.041.932.12l5.693-5.61a3.529 3.529 0 01-.025-.42c0-1.958 1.612-3.545 3.6-3.545s3.6 1.587 3.6 3.545c0 .153-.01.304-.029.451l6.61 6.513 6.644-6.546a3.529 3.529 0 01-.025-.418c0-1.958 1.612-3.545 3.6-3.545zm-1.384 6.82l-6.272 6.178 6.275 6.181c.425-.174.892-.27 1.381-.27.478 0 .934.092 1.352.259l5.36-5.285a3.501 3.501 0 01.002-1.773l-5.36-5.279c-.418.168-.875.26-1.354.26-.49 0-.958-.097-1.384-.271zm-20.4 0l-5.339 5.26a3.5 3.5 0 01.001 1.838l5.34 5.261c.426-.174.893-.27 1.382-.27.478 0 .934.092 1.352.259l6.266-6.17-6.264-6.167c-.418.168-.875.26-1.354.26-.49 0-.958-.097-1.384-.271z"
    fill="#9BE8D6" fill-rule="nonzero" />
</svg>
