<svg xmlns="http://www.w3.org/2000/svg" viewBox="0 0 134 134">
  <path
    d="M74.582 52.998a8 8 0 0010.419 10.42L85 80a5 5 0 01-5 5H50a5 5 0 01-5-5V58a5 5 0 015-5l24.582-.002zM68.844 60h-2.962l-4.687 17.415h2.961L68.844 60zm-9.56 3.565L49 67.884v2.954l10.284 4.318v-3.224L52.6 69.429v-.136l6.684-2.496v-3.232zm11.463 0v3.232l6.69 2.5v.13l-6.69 2.505v3.224l10.284-4.318v-2.954l-10.284-4.319zM82 49a7 7 0 110 14 7 7 0 010-14zm2.5 2h-5a.5.5 0 00-.492.41L79 51.5v3.634a1 1 0 00-.493.75L78.5 56v4a1 1 0 00.883.993L79.5 61h5a1 1 0 00.993-.883L85.5 60v-4a1 1 0 00-1-1H80v-3h4v.5l.008.09a.5.5 0 00.984 0L85 52.5v-1l-.008-.09a.5.5 0 00-.402-.402L84.5 51z"
    fill="#D9DCF2" fill-rule="evenodd" />
</svg>
