<svg xmlns="http://www.w3.org/2000/svg" viewBox="0 0 134 134">
  <defs>
    <linearGradient x1="21.416%" y1="0%" x2="78.584%" y2="100%" id="prefix__fperm__a">
      <stop stop-color="#9EEAD2" offset="0%" />
      <stop stop-color="#B5EA86" offset="100%" />
    </linearGradient>
  </defs>
  <path
    d="M83 53.714v27.62c0 3.559-2.837 6.466-6.41 6.656l-.371.01H58.78c-3.62 0-6.578-2.79-6.771-6.3l-.01-.367V53.714h31zm-2.938 3.381h-25V80.72c0 2.223 1.692 4.059 3.883 4.338l.288.028.294.01h16.071c2.367 0 4.304-1.806 4.455-4.088l.01-.288V57.095zM73.436 63l2.121 2.121-5.657 5.657 5.657 5.657-2.121 2.121-5.657-5.657-5.657 5.657L60 76.435l5.657-5.657L60 65.121 62.121 63l5.657 5.657L73.435 63zM59.75 47h15.5l1.938 1.905H83V52H52v-3.095h5.813L59.75 47z"
    fill="url(#prefix__fperm__a)" fill-rule="nonzero" />
</svg>
