<svg xmlns="http://www.w3.org/2000/svg" viewBox="0 0 134 134">
  <path
    d="M67.5 43c7.664 0 12.57 3.894 14.273 11.331l.102.464v7.152h.625c1.38 0 2.5 1.131 2.5 2.527v24C85 89.869 83.88 91 82.5 91H71.562v-2.28l3.75-.947v-2.268l-1.562-.947v-.769h2.188v-.987c.539-.14.937-.635.937-1.223 0-.698-.56-1.263-1.25-1.263s-1.25.565-1.25 1.263c0 .543.34 1.006.816 1.185l.121.038v.356h-2.187v1.758l1.563.947v1.416l-3.75.948L70.936 91h-3.125v-3.868l2.188-.63v-1.134h-2.5V83.76l3.125-.315v-.642c.54-.14.938-.635.938-1.223 0-.698-.56-1.263-1.25-1.263s-1.25.565-1.25 1.263c0 .543.339 1.006.815 1.185l.122.038v.07l-3.125.316V86h2.5v.024l-2.188.633V91h-3.75v-3.947l1.25-.948V83.86l-1.25-.316.001-.11c.539-.14.937-.634.937-1.222 0-.698-.56-1.264-1.25-1.264s-1.25.566-1.25 1.264c0 .543.34 1.006.816 1.184l.121.039v.602l1.25.316v1.437l-1.25.948V91h-2.5v-4.346l-3.437-.948v-2.272c.54-.14.938-.635.938-1.223 0-.698-.56-1.264-1.25-1.264s-1.25.566-1.25 1.264c0 .543.339 1.006.815 1.184l.122.039v2.755l3.438.947L59.687 91H52.5c-1.38 0-2.5-1.131-2.5-2.526v-24c0-1.396 1.12-2.527 2.5-2.527h.625v-7.152l.102-.464C54.93 46.894 59.837 43 67.5 43zm-4.375 38.579c.345 0 .625.283.625.632 0 .348-.28.631-.625.631a.628.628 0 01-.625-.631c0-.35.28-.632.625-.632zm-6.563 0c.346 0 .626.283.626.632 0 .348-.28.631-.626.631a.628.628 0 01-.624-.631c0-.35.28-.632.624-.632zm19.063-.632c.345 0 .625.283.625.632 0 .349-.28.632-.625.632a.628.628 0 01-.625-.632c0-.349.28-.632.625-.632zm-5.313 0c.346 0 .626.283.626.632 0 .349-.28.632-.626.632a.628.628 0 01-.624-.632c0-.349.28-.632.624-.632zM67 71.5a4.5 4.5 0 100 9 4.5 4.5 0 000-9zm0 1a3.5 3.5 0 110 7 3.5 3.5 0 010-7zm-.8 1.674a.2.2 0 00-.193.147l-.007.053v3.252a.2.2 0 00.253.193l.058-.026 2.44-1.627a.2.2 0 00.046-.289l-.047-.043-2.44-1.627a.2.2 0 00-.11-.033zm1.3-27.385c-5.738 0-9.1 2.52-10.492 7.875l-.062.246-.071.298v6.74l3.75-.001v1.983l-3.75 1.263v2.59l1.563 1.06H56.25v1.302c-.54.14-.938.635-.938 1.223 0 .698.56 1.264 1.25 1.264s1.25-.566 1.25-1.264c0-.543-.339-1.006-.815-1.184l-.121-.039-.001-.671h2.188v-.731L57.5 67.479v-1.83l3.75-1.263v-2.439h3.125v3.235l-2.188.632v2.133H65v.58h-2.025l-1.258 1.588a1.25 1.25 0 00-1.404 1.253c0 .698.56 1.264 1.25 1.264s1.25-.566 1.25-1.264c0-.358-.148-.682-.385-.911l-.107-.093.954-1.206h2.35v-1.842h-2.813V66.29L65 65.66v-3.713h3.749l.001 3.948-1.25.947v1.48l1.25 1.579a1.266 1.266 0 00-.313.836c0 .697.56 1.263 1.25 1.263s1.25-.566 1.25-1.263a1.257 1.257 0 00-1.534-1.23l-.134.04-1.144-1.447v-.942l1.25-.947-.001-4.264h2.501v4.717l4.688.315v1.088l-1.25.633v.311a1.265 1.265 0 00-.626 1.094c0 .698.56 1.263 1.25 1.263s1.25-.565 1.25-1.263a1.26 1.26 0 00-1.01-1.24c-.036-.007.114-.074.451-.201l.56-.206v-2.07l-4.688-.315v-4.126h5.625v-6.735l-.072-.306c-1.312-5.357-4.53-7.959-10.038-8.11l-.26-.005-.255-.002zM56.562 70.737c.346 0 .626.283.626.631 0 .35-.28.632-.626.632a.628.628 0 01-.624-.632c0-.348.28-.631.624-.631zm5 0c.073 0 .143.012.208.036l.094.042.06.05a.599.599 0 01.264.503c0 .35-.28.632-.626.632a.628.628 0 01-.624-.632c0-.348.28-.631.624-.631zm8.126-.632c.345 0 .624.283.624.632 0 .349-.28.631-.624.631a.628.628 0 01-.626-.631c0-.349.28-.632.626-.632zm6.25-.631c.345 0 .624.282.624.631 0 .35-.28.632-.624.632a.628.628 0 01-.626-.632c0-.349.28-.631.626-.631z"
    fill="#A28670" fill-rule="evenodd" opacity=".617" />
</svg>
