<svg xmlns="http://www.w3.org/2000/svg" viewBox="0 0 134 134">
  <path
    d="M52 46a1 1 0 011 1v3a1 1 0 01-.54.888L54.262 54h4.166l1.804-2.359A.996.996 0 0160 51v-3a1 1 0 011-1h3a1 1 0 011 1v3a1 1 0 01-1 1h-2.783l-1.66 2.17c.268.18.443.484.443.83v5.521l3.2 2.525a1 1 0 01.3-.046h3c.346 0 .65.175.83.442L70 61.364V56a1 1 0 011-1h3.764l.667-3H75a1 1 0 01-1-1v-3a1 1 0 011-1h3a1 1 0 011 1v3a1 1 0 01-1 1h-1.544l-.667 3H77a1 1 0 011 1v6a1 1 0 01-.538.887L79.16 66H81a1 1 0 011 1v1.654l4-.889V66a1 1 0 011-1h3a1 1 0 011 1v3a1 1 0 01-1 1h-3a1 1 0 01-1-1v-.211l-4 .889V70a1 1 0 01-1 1h-1.034l-4.183 5.378c.136.171.217.387.217.622v3a1 1 0 01-1 1h-3a1 1 0 01-1-1v-1.41l-5-.834V80a.996.996 0 01-.194.592L67.947 83H70a1 1 0 011 1v3a1 1 0 01-1 1h-3a1 1 0 01-1-1v-3a1 1 0 01.662-.941L64.83 81H59a.996.996 0 01-.6-.2L57 82.402V85a1 1 0 01-1 1h-3a1 1 0 01-1-1v-3a1 1 0 011-1h3c.258 0 .494.098.671.259L58 79.739V74a1 1 0 011-1h3.239l1.818-5H63.5a1 1 0 01-1-1v-3c0-.073.008-.145.023-.214l-2.74-2.163A.998.998 0 0159 62h-5.522l-2.68 3.397A.996.996 0 0151 66v3a1 1 0 01-1 1h-3a1 1 0 01-1-1v-3a1 1 0 011-1h2.836l2.54-3.218A.998.998 0 0152 61v-1.924l-4 .571V61a1 1 0 01-1 1h-3a1 1 0 01-1-1v-3a1 1 0 011-1h3a1 1 0 011 1v.637l4-.571V55a1 1 0 011-1h.106l-1.737-3H49a1 1 0 01-1-1v-3a1 1 0 011-1h3zm30 33a1 1 0 011 1v3a1 1 0 01-1 1h-3a1 1 0 01-1-1v-3a1 1 0 011-1h3zM70.145 62.52L67.5 64.577V67a1 1 0 01-1 1h-1.378l-1.819 5H65a1 1 0 011 1v2.743l5 .833V77a1 1 0 011-1h2.81l3.888-5H78a1 1 0 01-1-1v-3a1 1 0 01.883-.993l.138-.007-1.636-3H71a.998.998 0 01-.782-.377l-.073-.103zM58 67a1 1 0 011 1v3a1 1 0 01-1 1h-3a1 1 0 01-1-1v-3a1 1 0 011-1h3z"
    fill="#C2D0DA" fill-rule="evenodd" />
</svg>
