<svg viewBox="0 0 18 18" xmlns="http://www.w3.org/2000/svg"><path d="M3.783 17c.211 0 .485-.051.821-.154.336-.102.702-.24 1.097-.412A13.03 13.03 0 007.907 15.2a.677.677 0 01.176-.105.464.464 0 01.162-.03 2.368 2.368 0 00.258.015c1.006 0 1.943-.107 2.809-.322a9.314 9.314 0 002.349-.915 7.265 7.265 0 001.796-1.407 5.904 5.904 0 001.145-1.803c.265-.66.398-1.358.398-2.093 0-.905-.206-1.752-.618-2.542a6.687 6.687 0 00-1.716-2.086 8.265 8.265 0 00-2.551-1.406A9.42 9.42 0 008.996 2c-1.104 0-2.14.169-3.107.506a8.322 8.322 0 00-2.551 1.407 6.666 6.666 0 00-1.72 2.084A5.415 5.415 0 001 8.54c0 .76.145 1.484.434 2.171.29.688.706 1.318 1.248 1.89a7.786 7.786 0 001.94 1.474.242.242 0 01.115.131c.017.053.008.109-.026.169-.133.22-.286.447-.46.682-.174.236-.344.452-.508.65-.165.197-.291.353-.38.468-.147.19-.182.375-.106.555.076.18.251.27.526.27z" fill="#202020" fill-rule="nonzero"/></svg>
