<svg width="134px" height="134px" viewBox="0 0 134 134" xmlns="http://www.w3.org/2000/svg" >
    <g stroke="none" stroke-width="1" fill="none" fill-rule="evenodd">
        <path d="M58.872882,82.5023987 C61.3013746,83.7781572 64.0663896,84.5 67,84.5 C69.9337264,84.5 72.6988441,83.7781001 75.127406,82.5022474 C75.7432975,83.3423943 76.4764034,84.0917179 77.3021662,84.7264648 C74.2755605,86.490027 70.7557262,87.5 67,87.5 C63.2440712,87.5 59.7240597,86.489918 56.6967885,84.726577 C57.4686455,84.1339771 58.1588341,83.4415139 58.7489097,82.6685334 L58.872882,82.5023987 Z M56,52 C56,52.4488659 56.0268854,52.8914524 56.0791337,53.3262369 C52.5574439,56.1406905 50.1469181,60.2896655 49.6121996,65.0073733 C48.5459838,65.0436527 47.5183433,65.2323337 46.5501847,65.5518264 C47.0235538,58.7674192 50.7988057,52.8921058 56.2798694,49.5229395 C56.0967383,50.3197002 56,51.1485529 56,52 Z M77.7191266,49.5223224 C83.2004635,52.8912226 86.9760458,58.7664268 87.4496312,65.5516928 C86.4812016,65.2322348 85.4536121,65.0436056 84.3874732,65.0066968 C83.8531126,60.2899368 81.4428333,56.1411677 77.9206854,53.3247889 C77.9731146,52.8914524 78,52.4488659 78,52 C78,51.2285546 77.9205867,50.4756572 77.7694889,49.7490368 L77.7191266,49.5223224 Z" fill="#EFE4F7" fill-rule="nonzero"></path>
        <path d="M50.4853516,67.2431641 C55.423165,67.2431641 59.4853516,71.3053506 59.4853516,76.2431641 C59.4853516,81.1809775 55.423165,85.2431641 50.4853516,85.2431641 C45.5475381,85.2431641 41.4853516,81.1809775 41.4853516,76.2431641 C41.4853516,71.3053506 45.5475381,67.2431641 50.4853516,67.2431641 Z M84,67 C88.9378134,67 93,71.0621866 93,76 C93,80.9378134 88.9378134,85 84,85 C79.0621866,85 75,80.9378134 75,76 C75,71.0621866 79.0621866,67 84,67 Z M50.4853516,69.4367448 C46.7120316,69.4367448 43.6879594,72.4698441 43.6879594,76.2431641 C43.6879594,78.0937157 44.419153,79.7637257 45.6107277,80.9914088 C46.5675983,80.0255111 48.2827437,79.2491821 50.4853516,79.2491821 C52.6969865,79.2491821 54.4121319,80.0255111 55.3690025,80.9914088 C56.5605772,79.7637257 57.2917708,78.0937157 57.2917708,76.2431641 C57.2827437,72.4698441 54.2496444,69.4367448 50.4853516,69.4367448 Z M84,69.1935807 C80.22668,69.1935807 77.2026078,72.22668 77.2026078,76 C77.2026078,77.8505517 77.9338014,79.5205617 79.1253761,80.7482447 C80.0822467,79.782347 81.7973922,79.0060181 84,79.0060181 C86.2116349,79.0060181 87.9267803,79.782347 88.883651,80.7482447 C90.0752257,79.5205617 90.8064193,77.8505517 90.8064193,76 C90.7973922,72.22668 87.7642929,69.1935807 84,69.1935807 Z M50.4853516,71.5039464 C52.1463345,71.5039464 53.4462342,72.9573065 53.4462342,74.681479 C53.4462342,76.5049494 52.1553616,77.9312283 50.4853516,77.9222438 C48.8153415,77.9131741 47.533496,76.5049494 47.5244228,74.681479 C47.5154418,72.9573065 48.8333957,71.5039464 50.4853516,71.5039464 Z M84,71.2607823 C85.6609829,71.2607823 86.9608826,72.7141424 86.9608826,74.4383149 C86.9608826,76.2617854 85.67001,77.6880642 84,77.6790797 C82.32999,77.67001 81.0481444,76.2617854 81.0390713,74.4383149 C81.0300903,72.7141424 82.3480441,71.2607823 84,71.2607823 Z M67,43 C71.9378134,43 76,47.0621866 76,52 C76,56.9378134 71.9378134,61 67,61 C62.0621866,61 58,56.9378134 58,52 C58,47.0621866 62.0621866,43 67,43 Z M67,45.1935807 C63.22668,45.1935807 60.2026078,48.22668 60.2026078,52 C60.2026078,53.8505517 60.9338014,55.5205617 62.1253761,56.7482447 C63.0822467,55.782347 64.7973922,55.0060181 67,55.0060181 C69.2116349,55.0060181 70.9267803,55.782347 71.883651,56.7482447 C73.0752257,55.5205617 73.8064193,53.8505517 73.8064193,52 C73.7973922,48.22668 70.7642929,45.1935807 67,45.1935807 Z M67,47.2607823 C68.6609829,47.2607823 69.9608826,48.7141424 69.9608826,50.4383149 C69.9608826,52.2617854 68.67001,53.6880642 67,53.6790797 C65.32999,53.67001 64.0481444,52.2617854 64.0390713,50.4383149 C64.0300903,48.7141424 65.3480441,47.2607823 67,47.2607823 Z" fill="#F0C8EC" fill-rule="nonzero"></path>
    </g>
</svg>
