<svg xmlns="http://www.w3.org/2000/svg" viewBox="0 0 134 134">
  <g fill="none" fill-rule="evenodd">
    <path
      d="M91 49v26H81v-1h9V50H44v10h-1V49h48zm-3.437 2.001A2.004 2.004 0 0089 52.437v19.126A2.003 2.003 0 0087.563 73L81 72.999V60H68.137l.019-2.87.05.008c.268.052.508.138.718.26l.153.096c.348.246.563.579.643.998l.024.161h2.029a3.045 3.045 0 00-.551-1.741c-.356-.506-.846-.902-1.47-1.188a4.803 4.803 0 00-1.572-.402h-.012L68.176 54h-1.204l-.01 1.326-.263.03c-.375.053-.729.143-1.061.268l-.246.1c-.644.286-1.152.687-1.526 1.202-.373.515-.56 1.116-.56 1.801 0 .48.093.905.277 1.275L45 60v-7.563A2.004 2.004 0 0046.437 51h41.126zM66.932 60h-.186l-.036-.011a3.15 3.15 0 01-.642-.31 1.448 1.448 0 01-.457-.452 1.162 1.162 0 01-.168-.63c.004-.292.09-.552.256-.779.167-.227.407-.407.721-.54.158-.066.33-.116.519-.149l.012-.001L66.932 60z"
      fill="#86D856" />
    <path
      d="M79 62v19.5H63v-.75h15.25v-18h-34.5V74H43V62h36zm-2.578 1.5c.136.528.551.942 1.078 1.078v14.344c-.527.136-.942.551-1.078 1.078H63v-4.151c.08-.023.157-.048.232-.076l.176-.069c.515-.219.91-.524 1.182-.915.273-.39.41-.844.41-1.36a2.12 2.12 0 00-.223-.997 2.24 2.24 0 00-.603-.726c-.254-.2-.54-.366-.86-.498a6.046 6.046 0 00-.655-.227l-.34-.087-.294-.07.016-2.457.038.006c.211.04.399.105.564.196l.12.074c.268.183.435.43.5.74l.023.136h1.59a2.248 2.248 0 00-.433-1.317c-.279-.382-.662-.682-1.15-.898A3.874 3.874 0 0062.06 67h-.01l.007-1h-.944l-.007 1.003-.207.022c-.294.04-.571.108-.832.203l-.192.076c-.505.216-.904.52-1.196.909-.292.39-.439.844-.439 1.362 0 .63.218 1.135.653 1.515.38.332.882.59 1.505.774l.274.074.4.1L61.06 74h-1.19l-.03-.04a1.289 1.289 0 01-.197-.51l-.018-.15H58c.01.25.045.484.104.701L44.5 74v-9.422c.527-.136.942-.55 1.078-1.077h30.844zm-14.406 8.78l.066.017c.117.036.228.073.333.112l.151.06c.245.102.436.228.573.378.136.15.206.34.209.57a1.027 1.027 0 01-.236.659c-.034.041-.071.08-.111.118L63 74h-.996l.012-1.72zm-.92-3.915l-.014 2.22-.174-.056a2.508 2.508 0 01-.503-.234 1.116 1.116 0 01-.359-.342.855.855 0 01-.131-.477.97.97 0 01.2-.588c.13-.172.32-.308.566-.409.123-.05.258-.087.406-.112l.01-.002z"
      fill="#A4D886" />
    <path
      d="M61 76v9.75H43V76h18zm-.375.375h-17.25v9h17.25v-9zm-.914.376c.069.263.276.47.539.538v7.172a.751.751 0 00-.539.539H44.29a.751.751 0 00-.538-.539V77.29a.751.751 0 00.538-.538H59.71zM52.318 78h-.54l-.003.547-.118.012a2.41 2.41 0 00-.476.11l-.11.042a1.633 1.633 0 00-.683.496c-.167.213-.25.46-.25.743 0 .344.124.62.372.826.207.173.477.309.81.408l.207.055.229.055-.01 1.416-.064-.01a1.477 1.477 0 01-.102-.023l-.098-.03a.891.891 0 01-.385-.248.66.66 0 01-.15-.297l-.018-.12H50c.014.319.104.59.271.811.167.222.4.39.697.506.223.087.477.141.76.163h.013l-.003.538h.54l.003-.536h.011c.26-.018.493-.062.698-.133l.1-.038c.295-.12.52-.286.676-.499.156-.213.234-.46.234-.742 0-.207-.042-.389-.127-.543a1.237 1.237 0 00-.345-.397c-.145-.109-.309-.2-.491-.271a3.567 3.567 0 00-.374-.124l-.195-.047-.168-.04.009-1.339.022.003c.12.022.228.057.322.107l.068.04c.14.092.233.212.276.361l.023.118h.909a1.19 1.19 0 00-.247-.719 1.58 1.58 0 00-.658-.49 2.3 2.3 0 00-.704-.166h-.006l.004-.545zm-.023 3.425l.037.01c.067.02.13.04.19.06l.087.034c.14.055.25.124.327.206a.442.442 0 01.12.31.545.545 0 01-.135.36.863.863 0 01-.365.24c-.078.028-.161.049-.252.063l-.018.003.009-1.286zm-.526-2.135l-.008 1.211-.1-.03a1.465 1.465 0 01-.287-.128.626.626 0 01-.205-.187.45.45 0 01-.075-.26.514.514 0 01.115-.321.747.747 0 01.323-.223c.07-.027.148-.048.232-.061h.005z"
      fill="#C9D8C0" />
  </g>
</svg>
