<svg xmlns="http://www.w3.org/2000/svg" viewBox="0 0 134 134">
  <path
    d="M69 54v24l-7.675-3.176a29.817 29.817 0 00-2.983-1.053l1.106 6.049c.303 1.657-.806 3.082-2.446 3.175L56.83 83h-2c-1.529 0-2.947-1.15-3.31-2.64l-.04-.18-1.406-7.683-1.346-.087c-2.031-.133-3.622-1.702-3.723-3.63L45 68.584v-5.17c0-1.951 1.526-3.58 3.526-3.807l.202-.018 3.073-.2c3.064-.201 6.074-.866 8.917-1.97l.607-.244L69 54zm4.5-3a3.5 3.5 0 013.495 3.308L77 54.5v7.229a5.475 5.475 0 011.5 3.771c0 1.461-.57 2.79-1.5 3.774V77.5a3.5 3.5 0 01-6.995.192L70 77.5v-23a3.5 3.5 0 013.5-3.5zm7.97 20.117l5.297 2.817a1 1 0 01-.939 1.766l-5.297-2.817a1 1 0 11.938-1.766zM89 64.5a1 1 0 010 2h-6a1 1 0 010-2h6zm-1.82-8.786a1 1 0 01-.413 1.352l-5.298 2.817a1 1 0 11-.938-1.766l5.297-2.817a1 1 0 011.353.414z"
    fill="#BAF9CD" fill-rule="nonzero" />
</svg>
