<?xml version="1.0" encoding="UTF-8"?>
<svg width="134px" height="134px" viewBox="0 0 134 134" version="1.1" xmlns="http://www.w3.org/2000/svg" xmlns:xlink="http://www.w3.org/1999/xlink">
    <!-- Generator: Sketch 61.2 (89653) - https://sketch.com -->
    <title>feature-viewers</title>
    <desc>Created with Sketch.</desc>
    <g id="feature-viewers" stroke="none" stroke-width="1" fill="none" fill-rule="evenodd">
        <g id="Group" transform="translate(42.500000, 43.000000)" fill-rule="nonzero">
            <path d="M24.5,11.04 L25.0254917,11.0536563 C28.2278463,11.2129584 33.6862496,12.7656065 33.9870232,15.6924311 L34,15.9466667 L34,19.6266667 C30.8947583,21.8755556 27.7775708,23 24.6484375,23 C21.693145,23 18.6602394,21.9970233 15.5497207,19.99107 L15,19.6266667 L15,15.9466667 C15,12.6837333 21.329375,11.04 24.5,11.04 Z M24.5,6.83897383e-14 C27.124375,6.83897383e-14 29.25,2.19573333 29.25,4.90666667 C29.25,7.6176 27.124375,9.81333333 24.5,9.81333333 C21.875625,9.81333333 19.75,7.6176 19.75,4.90666667 C19.75,2.19573333 21.875625,6.83897383e-14 24.5,6.83897383e-14 Z" id="Combined-Shape" fill="#94A5C3"></path>
            <path d="M24,35.64 L24.4148619,35.6506875 C26.9430365,35.7753587 31.2523023,36.9904746 31.4897552,39.281033 L31.5,39.48 L31.5,42.36 C29.0484934,44.12 26.5875559,45 24.1171875,45 C21.7840618,45 19.3896627,44.2150617 16.93399,42.6451852 L16.5,42.36 L16.5,39.48 C16.5,36.9264 21.496875,35.64 24,35.64 Z M7.5,32.64 L7.91486186,32.6506875 C10.4430365,32.7753587 14.7523023,33.9904746 14.9897552,36.281033 L15,36.48 L15,39.36 C12.5484934,41.12 10.0875559,42 7.6171875,42 C5.28406181,42 2.88966266,41.2150617 0.433990047,39.6451852 L-2.66453526e-14,39.36 L-2.66453526e-14,36.48 C-2.66453526e-14,33.9264 4.996875,32.64 7.5,32.64 Z M40.5,32.64 L40.9148619,32.6506875 C43.4430365,32.7753587 47.7523023,33.9904746 47.9897552,36.281033 L48,36.48 L48,39.36 C45.5484934,41.12 43.0875559,42 40.6171875,42 C38.2840618,42 35.8896627,41.2150617 33.43399,39.6451852 L33,39.36 L33,36.48 C33,33.9264 37.996875,32.64 40.5,32.64 Z M24,27 C26.071875,27 27.75,28.7184 27.75,30.84 C27.75,32.9616 26.071875,34.68 24,34.68 C21.928125,34.68 20.25,32.9616 20.25,30.84 C20.25,28.7184 21.928125,27 24,27 Z M7.5,24 C9.571875,24 11.25,25.7184 11.25,27.84 C11.25,29.9616 9.571875,31.68 7.5,31.68 C5.428125,31.68 3.75,29.9616 3.75,27.84 C3.75,25.7184 5.428125,24 7.5,24 Z M40.5,24 C42.571875,24 44.25,25.7184 44.25,27.84 C44.25,29.9616 42.571875,31.68 40.5,31.68 C38.428125,31.68 36.75,29.9616 36.75,27.84 C36.75,25.7184 38.428125,24 40.5,24 Z" id="Combined-Shape" fill="#BECDE7"></path>
            <path d="M11.75827,9.10956962 L14.4298235,13 L11.75827,16.8904304 L10.1095696,15.75827 L11.360641,13.9348092 C9.37851043,13.8554266 8.55954638,14.4830487 8.50314883,15.8973194 L8.5,16.0590631 L8.5,21.9085136 L6.5,21.9085136 L6.5,16.0590631 C6.5,13.3039366 8.24176493,11.9004386 11.2738343,11.9383245 L10.1095696,10.24173 L11.75827,9.10956962 Z M37.6715536,9 L39.3202539,10.1321604 L38.1559892,11.8287549 C41.1880586,11.7908689 42.9298235,13.194367 42.9298235,15.9494935 L42.9298235,15.9494935 L42.9298235,21.7989439 L40.9298235,21.7989439 L40.9298235,15.9494935 L40.9266747,15.7877498 C40.8702772,14.373479 40.0513131,13.745857 38.0691826,13.8252396 L38.0691826,13.8252396 L39.3202539,15.6487003 L37.6715536,16.7808608 L35,12.8904304 L37.6715536,9 Z" id="Combined-Shape" fill="#DDE5F4"></path>
        </g>
    </g>
</svg>