<svg xmlns="http://www.w3.org/2000/svg" viewBox="0 0 134 134">
  <g fill="#F2998F" fill-rule="nonzero">
    <path
      d="M76.365 46h-19.28a4.444 4.444 0 00-3.85 2.222l-9.64 16.698a4.444 4.444 0 000 4.444l9.64 16.698a4.444 4.444 0 003.85 2.222h19.28a4.444 4.444 0 003.85-2.222l9.64-16.698a4.444 4.444 0 000-4.444l-9.64-16.698A4.444 4.444 0 0076.364 46zm-.514 5.333L84.98 67.14l-9.127 15.81-18.254-.002-9.127-15.807 9.127-15.81h18.253z" />
    <path
      d="M64.902 74.253L56.87 86.825l-4.495-2.872 6.198-9.7h6.329zm10.79-26.794l4.494 2.871-6.766 10.59H67.09l8.6-13.461zM62.374 72.475l.163-1.894h.983l.137 1.894h2.806l-1.57-10.54H60.93l-1.393 10.54h2.838zm1.068-3.763h-.938c.07-.933.244-2.406.521-4.42.14 1.753.278 3.227.417 4.42zm5.398 3.92c.303 0 .594-.066.872-.196s.543-.325.794-.586v.625h2.63v-10.54h-2.63v2.448a2.23 2.23 0 00-.739-.528 2.234 2.234 0 00-.895-.175c-.42 0-.783.105-1.087.315-.304.21-.498.455-.583.733-.084.278-.127.749-.127 1.413v4.043c0 .638.043 1.098.127 1.38.085.282.277.53.576.745.3.215.654.322 1.062.322zm1.243-1.53c-.147 0-.247-.056-.3-.167-.051-.11-.077-.341-.077-.693V66.01c0-.338.027-.556.08-.654.055-.098.16-.146.317-.146.16 0 .268.054.322.162.054.109.081.322.081.638v3.998c0 .482-.028.784-.084.908-.057.124-.17.186-.339.186z" />
  </g>
</svg>
