<svg width="134px" height="134px" viewBox="0 0 134 134" xmlns="http://www.w3.org/2000/svg">
    <g stroke="none" stroke-width="1" fill="none" fill-rule="evenodd">
        <g transform="translate(43.000000, 46.000000)" fill="#F2998F" fill-rule="nonzero">
            <path d="M33.365243,-3.15796771e-15 L14.0847106,-3.15796771e-15 C12.4968636,-3.15796771e-15 11.0296324,0.847106326 10.2357088,2.22222222 L0.59544265,18.9196531 C-0.198480883,20.294769 -0.198480883,21.9889816 0.59544265,23.3640975 L10.2357088,40.0615283 C11.0296324,41.4366442 12.4968636,42.2837506 14.0847106,42.2837506 L33.365243,42.2837506 C34.9530901,42.2837506 36.4203213,41.4366442 37.2142448,40.0615283 L46.854511,23.3640975 C47.6484345,21.9889816 47.6484345,20.294769 46.854511,18.9196531 L37.2142448,2.22222222 C36.4203213,0.847106326 34.9530901,-3.15796771e-15 33.365243,-3.15796771e-15 Z M32.8513181,5.33281067 L41.9791064,21.1407954 L32.8515508,36.9501854 L14.5975404,36.9492812 L5.47052188,21.1417409 L14.5980774,5.33235095 L32.8513181,5.33281067 Z"></path>
            <path d="M21.9016376,28.2527583 L13.8697954,40.82477 L9.37541539,37.9533606 L15.5727487,28.2527583 L21.9016376,28.2527583 Z M32.6912693,1.45898052 L37.1856494,4.33038999 L30.4198598,14.919425 L24.0909709,14.919425 L32.6912693,1.45898052 Z"></path>
            <path d="M19.3742824,26.4752086 L19.5370428,24.5806774 L20.5201157,24.5806774 L20.6568345,26.4752086 L23.462824,26.4752086 L21.8938136,15.934844 L17.9289699,15.934844 L16.5357407,26.4752086 L19.3742824,26.4752086 Z M20.4419907,22.7121878 L19.5044907,22.7121878 C19.5739352,21.7790281 19.7475463,20.3055038 20.025324,18.2916149 C20.1642129,20.0450871 20.3031018,21.5186114 20.4419907,22.7121878 L20.4419907,22.7121878 Z M25.839647,26.6314586 C26.1434664,26.6314586 26.434265,26.5663544 26.7120428,26.4361461 C26.9898206,26.3059378 27.2545775,26.1106253 27.5063136,25.8502086 L27.5063136,25.8502086 L27.5063136,26.4752086 L30.136522,26.4752086 L30.136522,15.934844 L27.5063136,15.934844 L27.5063136,18.3827607 C27.2849595,18.1483857 27.0386487,17.9726044 26.7673813,17.8554169 C26.496114,17.7382294 26.1977199,17.6796357 25.872199,17.6796357 C25.4511921,17.6796357 25.0887789,17.7848874 24.7849595,17.9953909 C24.48114,18.2058944 24.2869126,18.450035 24.2022772,18.7278128 C24.1176418,19.0055906 24.075324,19.4765107 24.075324,20.1405732 L24.075324,20.1405732 L24.075324,24.1835419 C24.075324,24.8215628 24.1176418,25.2816322 24.2022772,25.5637503 C24.2869126,25.8458683 24.4789699,26.0943492 24.778449,26.309193 C25.0779282,26.5240367 25.4316608,26.6314586 25.839647,26.6314586 Z M27.0831365,25.1015107 C26.9355671,25.1015107 26.8357407,25.0461722 26.7836574,24.9354951 C26.731574,24.824818 26.7055324,24.5936982 26.7055324,24.2421357 L26.7055324,24.2421357 L26.7055324,20.0103649 C26.7055324,19.6718232 26.7326591,19.4537242 26.7869126,19.356068 C26.8411661,19.2584117 26.9464178,19.2095836 27.1026678,19.2095836 C27.2632581,19.2095836 27.3706799,19.2638371 27.4249334,19.372344 C27.4791869,19.480851 27.5063136,19.6935246 27.5063136,20.0103649 L27.5063136,20.0103649 L27.5063136,24.0077607 C27.5063136,24.4895315 27.4781018,24.7922659 27.4216782,24.9159638 C27.3652546,25.0396617 27.2524074,25.1015107 27.0831365,25.1015107 Z"></path>
        </g>
    </g>
</svg>
