<svg xmlns="http://www.w3.org/2000/svg" viewBox="0 0 134 134">
  <g fill="none" fill-rule="nonzero">
    <path
      d="M58.873 82.502A17.424 17.424 0 0067 84.5c2.934 0 5.699-.722 8.127-1.998a11.04 11.04 0 002.175 2.224A20.398 20.398 0 0167 87.5c-3.756 0-7.276-1.01-10.303-2.773a11.043 11.043 0 002.052-2.058l.124-.167zM56 52c0 .449.027.891.08 1.326a17.47 17.47 0 00-6.468 11.681 10.946 10.946 0 00-3.062.545c.474-6.785 4.249-12.66 9.73-16.03C56.097 50.32 56 51.15 56 52zm21.72-2.478c5.48 3.37 9.256 9.244 9.73 16.03a10.974 10.974 0 00-3.063-.545 17.475 17.475 0 00-6.466-11.682 11.032 11.032 0 00-.152-3.576l-.05-.227z"
      fill="#EFE4F7" />
    <path
      d="M50.485 67.243c4.938 0 9 4.062 9 9s-4.062 9-9 9c-4.937 0-9-4.062-9-9s4.063-9 9-9zM84 67c4.938 0 9 4.062 9 9s-4.062 9-9 9-9-4.062-9-9 4.062-9 9-9zm-33.515 2.437a6.78 6.78 0 00-6.797 6.806c0 1.85.731 3.52 1.923 4.748.957-.965 2.672-1.742 4.874-1.742 2.212 0 3.927.777 4.884 1.742a6.785 6.785 0 001.923-4.748 6.8 6.8 0 00-6.807-6.806zM84 69.194A6.78 6.78 0 0077.203 76c0 1.85.73 3.52 1.922 4.748.957-.966 2.672-1.742 4.875-1.742 2.212 0 3.927.776 4.884 1.742A6.785 6.785 0 0090.806 76 6.8 6.8 0 0084 69.194zm-33.515 2.31c1.661 0 2.961 1.453 2.961 3.177 0 1.824-1.29 3.25-2.96 3.241-1.67-.009-2.953-1.417-2.962-3.24-.009-1.725 1.31-3.178 2.961-3.178zM84 71.26c1.661 0 2.96 1.453 2.96 3.177 0 1.824-1.29 3.25-2.96 3.241-1.67-.009-2.952-1.417-2.96-3.24-.01-1.725 1.308-3.178 2.96-3.178zM67 43c4.938 0 9 4.062 9 9s-4.062 9-9 9-9-4.062-9-9 4.062-9 9-9zm0 2.194A6.78 6.78 0 0060.203 52c0 1.85.73 3.52 1.922 4.748.957-.966 2.672-1.742 4.875-1.742 2.212 0 3.927.776 4.884 1.742A6.785 6.785 0 0073.806 52 6.8 6.8 0 0067 45.194zm0 2.067c1.661 0 2.96 1.453 2.96 3.177 0 1.824-1.29 3.25-2.96 3.241-1.67-.009-2.952-1.417-2.96-3.24-.01-1.725 1.308-3.178 2.96-3.178z"
      fill="#F0C8EC" />
  </g>
</svg>
