<svg xmlns="http://www.w3.org/2000/svg" viewBox="0 0 134 134">
  <g fill-rule="nonzero" fill="none">
    <path
      d="M67 54.04l.525.014c3.203.159 8.661 1.712 8.962 4.638l.013.255v3.68C73.395 64.876 70.278 66 67.148 66c-2.955 0-5.988-1.003-9.098-3.009l-.55-.364v-3.68c0-3.263 6.33-4.907 9.5-4.907zM67 43c2.624 0 4.75 2.196 4.75 4.907 0 2.71-2.126 4.906-4.75 4.906s-4.75-2.195-4.75-4.906S64.376 43 67 43z"
      fill="#94A5C3" />
    <path
      d="M66.5 78.64l.415.01c2.528.125 6.837 1.34 7.075 3.631l.01.199v2.88C71.548 87.12 69.088 88 66.617 88c-2.333 0-4.727-.785-7.183-2.355L59 85.36v-2.88c0-2.554 4.997-3.84 7.5-3.84zm-16.5-3l.415.01c2.528.125 6.837 1.34 7.075 3.631l.01.199v2.88C55.048 84.12 52.588 85 50.117 85c-2.333 0-4.727-.785-7.183-2.355l-.434-.285v-2.88c0-2.554 4.997-3.84 7.5-3.84zm33 0l.415.01c2.528.125 6.837 1.34 7.075 3.631l.01.199v2.88C88.048 84.12 85.588 85 83.117 85c-2.333 0-4.727-.785-7.183-2.355l-.434-.285v-2.88c0-2.554 4.997-3.84 7.5-3.84zM66.5 70c2.072 0 3.75 1.718 3.75 3.84s-1.678 3.84-3.75 3.84-3.75-1.718-3.75-3.84S64.428 70 66.5 70zM50 67c2.072 0 3.75 1.718 3.75 3.84s-1.678 3.84-3.75 3.84-3.75-1.718-3.75-3.84S47.928 67 50 67zm33 0c2.072 0 3.75 1.718 3.75 3.84s-1.678 3.84-3.75 3.84-3.75-1.718-3.75-3.84S80.928 67 83 67z"
      fill="#BECDE7" />
    <path
      d="M54.258 52.11L56.93 56l-2.672 3.89-1.648-1.132 1.25-1.823c-1.981-.08-2.8.548-2.857 1.962L51 59.06v5.85h-2v-5.85c0-2.755 1.742-4.159 4.774-4.12l-1.164-1.697 1.648-1.132zM80.172 52l1.648 1.132-1.164 1.697c3.032-.038 4.774 1.365 4.774 4.12v5.85h-2v-5.85l-.003-.161c-.057-1.415-.876-2.042-2.858-1.963l1.251 1.824-1.648 1.132-2.672-3.89L80.172 52z"
      fill="#DDE5F4" />
  </g>
</svg>
