<svg viewBox="15 0 30 30">
    <defs>
        <path d="M30,15 L60,15 L60,30 L30,15 Z M30,15 L30,30 L0,30 L30,15 Z M30,15 L0,15 L0,0 L30,15 Z M30,15 L30,0 L60,0 L30,15 Z" id="path-1"></path>
    </defs>
    <g stroke="none" stroke-width="1" fill="none" fill-rule="evenodd">
        <polygon fill="#012169" fill-rule="nonzero" points="0 0 0 30 60 30 60 0"></polygon>
        <path d="M0,0 L60,30 M60,0 L0,30" stroke="#FFFFFF" stroke-width="6" fill="#000000" fill-rule="nonzero"></path>
        <g>
            <mask id="mask-2" fill="white">
                <use xlink:href="#path-1"></use>
            </mask>
            <path d="M0,0 L60,30 M60,0 L0,30" stroke="#C8102E" stroke-width="4" fill="#000000" fill-rule="nonzero" mask="url(#mask-2)"></path>
        </g>
        <path d="M30,0 L30,30 M0,15 L60,15" stroke="#FFFFFF" stroke-width="10" fill="#000000" fill-rule="nonzero"></path>
        <path d="M30,0 L30,30 M0,15 L60,15" stroke="#C8102E" stroke-width="6" fill="#000000" fill-rule="nonzero"></path>
    </g>
</svg>
