<svg xmlns="http://www.w3.org/2000/svg" viewBox="0 0 21 20" fill="currentColor">
  <path
    d="M5.92.01L14.95.002l1.111.01c.546.01.755.026.962.054l.186.026c.964.139 1.773.523 2.435 1.155.37.357.626.706.856 1.174.25.507.386.99.457 1.655l.024.259c.01.127.016 1.67.019 3.578l-.017 7.72-.001.024c-.063.79-.2 1.335-.472 1.895a4.188 4.188 0 01-2.73 2.236c-.381.098-.73.15-1.264.184l-.323.015c-.245.005-.917.008-1.811.01L13.022 20l-7.342-.017c-.584-.028-1.04-.087-1.452-.193a4.214 4.214 0 01-2.731-2.23c-.246-.51-.377-.982-.452-1.666l-.03-.333c-.006-.151-.01-.473-.014-1.082L.996 12.77l.005-7.325c.01-1.152.033-1.29.086-1.652.139-.964.524-1.774 1.158-2.433a3.993 3.993 0 011.15-.842C3.91.262 4.39.127 5.092.05l.337-.03c.09-.004.246-.007.491-.01zm6.626 2.61H9.443c-.693.005-.979.017-1.492.04-.786.036-1.323.16-1.793.343a3.616 3.616 0 00-1.308.852c-.41.41-.663.822-.852 1.308-.163.418-.28.888-.328 1.54l-.032.627-.022.922c-.003.268-.005.6-.005 1.048l.002 2.071c.005.83.016 1.118.042 1.674.036.786.16 1.323.343 1.793.189.485.44.897.852 1.308.41.41.822.664 1.307.852.47.183 1.007.307 1.793.343l.854.032c.305.007.68.01 1.292.012l2.424-.003c.713-.005.999-.017 1.52-.04.786-.037 1.323-.161 1.793-.344a3.613 3.613 0 001.307-.852c.411-.41.663-.823.853-1.308.161-.418.277-.888.327-1.54l.023-.416.018-.471c.01-.286.014-.6.017-1.118l-.001-2.75a37.924 37.924 0 00-.016-.952l-.025-.635c-.037-.787-.162-1.323-.343-1.793a3.625 3.625 0 00-.853-1.308 3.61 3.61 0 00-1.308-.852c-.418-.162-.889-.278-1.54-.328l-.823-.038a34.17 34.17 0 00-.923-.017zM9.322 3.949l3.316.002c.298.003.515.007.718.013l.624.025c.72.033 1.111.153 1.371.254.345.134.59.294.85.553.258.258.418.504.552.849l.062.173c.083.256.166.622.192 1.198l.031.841c.005.229.008.497.01.879l-.001 2.708c-.003.404-.007.67-.015.915l-.025.623c-.033.72-.153 1.111-.254 1.371-.134.345-.294.59-.553.849a2.284 2.284 0 01-.849.552c-.234.091-.574.198-1.164.242l-.576.029-.973.022c-.249.002-.554.004-.954.004l-2.33-.004a32.27 32.27 0 01-.719-.013l-.623-.025c-.72-.034-1.111-.154-1.372-.255a2.287 2.287 0 01-.849-.552 2.289 2.289 0 01-.553-.85c-.09-.233-.197-.573-.242-1.164l-.035-.773c-.006-.18-.01-.365-.013-.605l-.006-2.29.011-1.669.006-.213.025-.624c.033-.72.153-1.11.254-1.371.134-.345.295-.591.553-.85.259-.258.505-.418.85-.552.234-.092.574-.198 1.164-.242l.663-.032c.249-.01.49-.015.854-.018zm1.674 2.26a3.793 3.793 0 100 7.585 3.793 3.793 0 000-7.586zm0 1.33a2.462 2.462 0 110 4.924 2.462 2.462 0 010-4.924zm3.942-2.367a.887.887 0 100 1.774.887.887 0 000-1.774z" />
</svg>