<svg xmlns="http://www.w3.org/2000/svg" viewBox="0 0 95 95">
  <defs>
    <radialGradient cx="50%" cy="66.859%" fx="50%" fy="66.859%" r="57.823%"
      gradientTransform="matrix(0 -1 .81481 0 -.045 1.169)" id="prefix__award__a">
      <stop stop-color="#E8D2BA" offset="0%" />
      <stop stop-color="#C2A080" offset="100%" />
    </radialGradient>
  </defs>
  <path
    d="M60.78 69.856l-.104 1.024-.054.479-.11.889-.117.799a17.031 17.031 0 01-.38 1.855c-.262.942-.937 1.884-2.024 2.826 1.126.045 2.019.262 2.679.65l.602.36.683.421.764.48 1.298.835.474.308c-1.64 1.143-3.423 1.398-5.35.765-1.523-.5-2.728-1.176-3.615-2.026-2.302.558-4.614 1.655-6.935 3.294a39.659 39.659 0 013.91 3.603l.65.694-.964.888c-1.566-1.703-3.128-3.16-4.687-4.374-1.558 1.212-3.12 2.67-4.687 4.374l-.964-.888c1.517-1.65 3.037-3.082 4.56-4.296-2.321-1.64-4.633-2.737-6.935-3.295-.887.85-2.092 1.525-3.616 2.026-1.926.633-3.709.378-5.349-.765l1.772-1.142 1.116-.699.642-.39.291-.173c.66-.388 1.553-.605 2.68-.65-1.088-.942-1.763-1.884-2.025-2.826a17.031 17.031 0 01-.38-1.855l-.116-.8-.111-.888-.106-.98-.051-.523c1.528.523 2.765 1.682 3.711 3.476.896 1.699 1.335 3.297 1.318 4.794 2.762.578 5.512 1.866 8.251 3.86 2.738-1.994 5.488-3.282 8.25-3.86-.018-1.497.421-3.095 1.317-4.794.946-1.794 2.183-2.953 3.711-3.476zm3.649 6.118h.28c.12.005.252.013.396.025l.47.05a13.91 13.91 0 012.518.581l.326.116.403.16.75.326.595.272c-1.516 1.291-2.935 1.91-4.257 1.858-1.322-.053-2.742-.782-4.257-2.186.917-.765 1.843-1.166 2.776-1.202zm-31.082 1.202c-1.515 1.404-2.935 2.133-4.257 2.186-1.322.053-2.741-.567-4.257-1.858l.596-.272.75-.325.402-.161.326-.116a13.91 13.91 0 012.518-.58l.47-.05a9.03 9.03 0 01.396-.026c1.028-.04 2.047.36 3.056 1.202zm31.471-8.85l.147 2.241.054 1.07.016.58.002.152c0 .82-.542 1.448-1.03 1.92l-.28.265c-.354.329-.973.62-1.856.874.014-2.143.196-3.637.546-4.48.35-.842 1.15-1.716 2.401-2.622zm-34.636 0c1.251.906 2.052 1.78 2.401 2.623.35.842.532 2.336.546 4.48-.883-.255-1.502-.546-1.856-.875l-.28-.265c-.488-.472-1.03-1.1-1.03-1.92l.01-.517.03-.707.095-1.603.084-1.216zm38.9 3.89c.619-.084 1.656-.141 3.004.05l.34.059.204.042.478.11.57.143.32.084c-1.105 1.344-2.23 2.094-3.373 2.25-1.144.155-2.472-.257-3.986-1.237.74-.88 1.553-1.38 2.442-1.501zm-43.163 0c.889.12 1.703.621 2.442 1.5-1.514.98-2.842 1.393-3.986 1.237-1.143-.155-2.268-.905-3.374-2.249l.891-.228.478-.11.386-.075.158-.025c1.348-.191 2.385-.134 3.005-.05zm43.279-7.319l.37 2.13.16 1.02.055.389.037.309c.073.706-.304 1.31-.7 1.79l-.26.303-.124.137c-.32.351-.905.695-1.758 1.031-.201-2.053-.17-3.502.094-4.346.263-.844.972-1.764 2.126-2.763zm-43.396 0c1.154.999 1.863 1.92 2.126 2.763.264.844.295 2.293.094 4.346-.853-.336-1.439-.68-1.758-1.031l-.253-.284c-.437-.503-.913-1.162-.83-1.946l.036-.31.054-.388.16-1.02.23-1.34.141-.79zm49.168 2.446c1.31-.437 2.475-.437 3.494 0l-.923.9-.343.347-.263.277-.782.864c-.423.456-.8.802-1.183.89-.946.218-1.965.073-3.056-.437.728-1.457 1.746-2.404 3.056-2.841zm-54.94 0c1.31.437 2.328 1.384 3.056 2.84-1.091.51-2.11.656-3.056.438-.382-.088-.76-.434-1.183-.89l-.782-.864-.263-.277-.765-.762-.5-.485c1.018-.437 2.183-.437 3.493 0zm53.303-6.665c.624 1.85.842 3.525.655 5.026-.146 1.165-.728 2.003-1.747 2.513-.402-1.346-.547-2.439-.436-3.278.079-.6.361-1.495.847-2.688l.316-.75.365-.823zm-51.666 0l.365.822.316.751c.486 1.193.768 2.089.847 2.688.111.84-.034 1.932-.436 3.278-1.02-.51-1.601-1.348-1.747-2.513-.187-1.501.031-3.176.655-5.026zm61.272-.11c-.655 1.822-1.856 3.315-3.602 4.48-.426.284-1.372.394-2.838.328.218-1.165.946-2.185 2.183-3.059 1.237-.874 2.656-1.457 4.257-1.748zm-70.878 0c1.6.292 3.02.875 4.257 1.749 1.237.874 1.965 1.894 2.183 3.06-1.466.065-2.412-.045-2.838-.329-1.746-1.165-2.947-2.658-3.602-4.48zm64.547-4.26l.514 1.507.338 1.064.178.508c.11.324.19.628.17.963-.07 1.179-.616 2.344-1.637 3.497-.794-1.294-1.158-2.496-1.092-3.606.067-1.11.576-2.42 1.529-3.933zm-58.216 0c.953 1.512 1.462 2.823 1.529 3.933.066 1.11-.298 2.312-1.092 3.606-1.021-1.153-1.567-2.318-1.638-3.497-.02-.335.061-.639.171-.963l.178-.508.338-1.064.514-1.507zm67.276-1.858a16.99 16.99 0 01-.524 1.452l-.25.574-.337.872c-.192.483-.41.938-.745 1.254-1.126 1.065-2.508 1.61-4.148 1.639.463-1.833 1.227-3.253 2.293-4.261s2.303-1.518 3.711-1.53zm-76.336 0c1.408.012 2.645.522 3.711 1.53 1.066 1.008 1.83 2.428 2.293 4.261-1.64-.028-3.022-.574-4.148-1.639-.335-.316-.553-.771-.745-1.254l-.336-.872-.12-.278a15.294 15.294 0 01-.655-1.748zM78.9 51.391l.437 2.513.085.387.217.718c.068.237.122.48.134.752.065 1.466-.117 2.486-.545 3.06-1.107-.958-1.69-2.087-1.747-3.387-.057-1.3.416-2.648 1.42-4.043zm-62.8 0c1.003 1.395 1.476 2.743 1.419 4.043-.057 1.3-.64 2.429-1.747 3.387-.428-.574-.61-1.594-.545-3.06.012-.271.066-.515.134-.752l.217-.718c.033-.124.063-.252.085-.387l.437-2.513zm71.642-4.37c.147 1.35-.327 2.697-1.419 4.042-1.092 1.346-2.511 2.33-4.257 2.95.146-1.732.729-3.225 1.746-4.48 1.018-1.253 2.328-2.091 3.93-2.512zm-80.484 0c1.602.42 2.912 1.259 3.93 2.513 1.017 1.254 1.6 2.747 1.746 4.48-1.746-.622-3.165-1.605-4.257-2.95-1.092-1.346-1.566-2.694-1.42-4.043zm72.625-1.312l.712 1.593.16.374.133.285.287.553c.142.279.271.57.345.91.317 1.463.244 2.41-.218 2.841-.947-.26-1.566-1.062-1.856-2.404-.29-1.342-.145-2.726.437-4.152zm-64.766 0c.582 1.426.728 2.81.437 4.152-.29 1.342-.909 2.143-1.856 2.404-.462-.431-.535-1.378-.218-2.84.074-.341.203-.632.345-.911l.287-.553a5.05 5.05 0 00.132-.285l.598-1.357.275-.61zm72.844-5.79c.152 1.885-.139 3.487-.874 4.807-.735 1.32-1.863 2.267-3.384 2.84-.218-2.111.182-3.86 1.201-5.244 1.019-1.384 2.038-2.185 3.057-2.403zm-80.922 0c1.02.218 2.038 1.02 3.057 2.403 1.019 1.384 1.419 3.133 1.2 5.245-1.52-.574-2.648-1.52-3.383-2.84-.735-1.321-1.026-2.923-.874-4.808zm73.062-.11c.963.79 1.69 1.9 2.183 3.333.493 1.433.53 2.543.11 3.332-.897-.261-1.588-1.099-2.075-2.513-.486-1.414-.559-2.798-.218-4.152zm-65.202 0c.34 1.354.268 2.738-.218 4.152-.487 1.414-1.178 2.252-2.074 2.513-.42-.789-.384-1.9.109-3.332.493-1.433 1.22-2.544 2.183-3.333zm71.643-7.21l.089.977c.173 2.198.107 3.802-.199 4.813-.349 1.155-1.15 2.03-2.401 2.622-.297-2.077-.297-3.606 0-4.589.297-.982 1.134-2.257 2.51-3.824zm-78.084 0c1.377 1.566 2.214 2.84 2.511 3.823.297.983.297 2.512 0 4.59-1.251-.593-2.052-1.468-2.401-2.623-.306-1.011-.372-2.615-.199-4.813l.09-.978zm70.77 1.42c.987.48 1.788 1.281 2.401 2.403.614 1.123.868 2.252.764 3.387-.956-.034-1.684-.507-2.183-1.42-.499-.913-.826-2.37-.982-4.37zm-63.456 0c-.156 2-.483 3.457-.982 4.37-.5.913-1.227 1.386-2.183 1.42-.104-1.135.15-2.264.764-3.387.613-1.122 1.414-1.923 2.401-2.403zm67.931-7.54c.66 2.198.915 3.983.764 5.354-.15 1.372-.696 2.246-1.637 2.623-.626-1.898-.88-3.391-.764-4.48.116-1.089.662-2.254 1.637-3.496zm-72.406 0c.975 1.243 1.52 2.408 1.637 3.497.117 1.089-.138 2.582-.764 4.48-.941-.377-1.487-1.25-1.637-2.623-.15-1.371.104-3.156.764-5.353zm66.293 1.967a7.099 7.099 0 012.948 2.186c.775.975 1.212 2.03 1.31 3.168-1.225-.107-2.17-.58-2.839-1.42-.668-.84-1.14-2.151-1.419-3.934zm-60.18 0c-.278 1.783-.751 3.094-1.42 3.934-.667.84-1.613 1.313-2.838 1.42.098-1.137.535-2.193 1.31-3.168a7.099 7.099 0 012.948-2.186zM77.918 22c1.252.696 2.198 1.862 2.838 3.496.64 1.635.75 3.165.327 4.59-1.11-.656-2.02-1.749-2.729-3.279-.709-1.53-.854-3.132-.436-4.807zm-60.836 0c.418 1.675.273 3.278-.436 4.807-.71 1.53-1.62 2.623-2.73 3.278-.421-1.424-.312-2.954.328-4.589.64-1.634 1.586-2.8 2.838-3.496z"
    fill="url(#prefix__award__a)" fill-rule="evenodd" />
</svg>
